<?xml version="1.0" encoding="UTF-8" standalone="no"?>
<!-- Created with Inkscape (http://www.inkscape.org/) -->

<svg
   xmlns:dc="http://purl.org/dc/elements/1.1/"
   xmlns:cc="http://creativecommons.org/ns#"
   xmlns:rdf="http://www.w3.org/1999/02/22-rdf-syntax-ns#"
   xmlns:svg="http://www.w3.org/2000/svg"
   xmlns="http://www.w3.org/2000/svg"
   xmlns:sodipodi="http://sodipodi.sourceforge.net/DTD/sodipodi-0.dtd"
   xmlns:inkscape="http://www.inkscape.org/namespaces/inkscape"
   width="132.40863mm"
   height="21.525724mm"
   viewBox="0 0 469.16441 76.272246"
   id="svg9275"
   version="1.1"
   inkscape:version="0.91 r13725"
   sodipodi:docname="de-RSE-logo-colour.svg">
  <defs
     id="defs9277" />
  <sodipodi:namedview
     id="base"
     pagecolor="#ffffff"
     bordercolor="#666666"
     borderopacity="1.0"
     inkscape:pageopacity="0.0"
     inkscape:pageshadow="2"
     inkscape:zoom="0.70710678"
     inkscape:cx="-290.94865"
     inkscape:cy="36.312894"
     inkscape:document-units="px"
     inkscape:current-layer="layer1"
     showgrid="false"
     fit-margin-top="3"
     fit-margin-left="3"
     fit-margin-right="3"
     fit-margin-bottom="3"
     inkscape:window-width="1879"
     inkscape:window-height="1056"
     inkscape:window-x="1961"
     inkscape:window-y="24"
     inkscape:window-maximized="1" />
  <metadata
     id="metadata9280">
    <rdf:RDF>
      <cc:Work
         rdf:about="">
        <dc:format>image/svg+xml</dc:format>
        <dc:type
           rdf:resource="http://purl.org/dc/dcmitype/StillImage" />
        <dc:title></dc:title>
      </cc:Work>
    </rdf:RDF>
  </metadata>
  <g
     inkscape:label="Ebene 1"
     inkscape:groupmode="layer"
     id="layer1"
     transform="translate(-119.70349,-414.22608)">
    <text
       sodipodi:linespacing="125%"
       id="text114"
       y="445.81369"
       x="258.81909"
       style="font-style:normal;font-variant:normal;font-weight:normal;font-stretch:normal;font-size:24.483284px;line-height:125%;font-family:Montserrat;-inkscape-font-specification:Montserrat;text-align:start;letter-spacing:0px;word-spacing:0px;writing-mode:lr-tb;text-anchor:start;display:inline;fill:#000000;fill-opacity:1;stroke:none;stroke-width:0.23891759px;stroke-linecap:butt;stroke-linejoin:miter;stroke-opacity:1"
       xml:space="preserve"><tspan
         style="font-style:normal;font-variant:normal;font-weight:300;font-stretch:normal;font-size:24.483284px;font-family:Montserrat;-inkscape-font-specification:'Montserrat Light';fill:#000000;stroke-width:0.23891759px"
         y="445.81369"
         x="258.81909"
         id="tspan110"
         sodipodi:role="line">GESELLSCHAFT FÜR</tspan><tspan
         id="tspan112"
         style="font-style:normal;font-variant:normal;font-weight:300;font-stretch:normal;font-size:24.483284px;font-family:Montserrat;-inkscape-font-specification:'Montserrat Light';fill:#000000;stroke-width:0.23891759px"
         y="476.41779"
         x="258.81909"
         sodipodi:role="line">FORSCHUNGSSOFTWARE</tspan></text>
    <path
       sodipodi:nodetypes="ccccc"
       style="display:inline;opacity:1;fill:#000000;fill-opacity:1;fill-rule:nonzero;stroke:none;stroke-width:0.11509767;stroke-linecap:square;stroke-linejoin:round;stroke-miterlimit:4;stroke-dasharray:none;stroke-dashoffset:0;stroke-opacity:1;paint-order:stroke markers fill"
       d="m 247.55179,424.91663 1.9822,0 0,54.95177 -1.9822,0 z"
       id="path116"
       inkscape:connector-curvature="0" />
    <g
       transform="matrix(3.5433068,0,0,3.5433068,95.455544,184.76741)"
       style="display:inline"
       id="g5175">
      <path
         id="path164"
         d="m 22.628899,77.084698 -3.57911,6.19859 8.95243,0 -5.3e-4,-5.3e-4 -1.79421,0 z"
         style="opacity:1;fill:#621e4b;fill-opacity:1;fill-rule:nonzero;stroke:none;stroke-width:1.5;stroke-linecap:butt;stroke-linejoin:round;stroke-miterlimit:4;stroke-dasharray:none;stroke-dashoffset:0;stroke-opacity:0.95294118;paint-order:stroke markers fill"
         inkscape:connector-curvature="0" />
      <path
         style="opacity:1;fill:#892a69;fill-opacity:1;fill-rule:nonzero;stroke:none;stroke-width:1.5;stroke-linecap:butt;stroke-linejoin:round;stroke-miterlimit:4;stroke-dasharray:none;stroke-dashoffset:0;stroke-opacity:0.95294118;paint-order:stroke markers fill"
         d="m 14.573432,75.530792 4.476213,7.752497 3.579109,-6.198589 -0.897102,-1.553908 -0.875916,0 c -0.164603,0.381777 -0.461986,0.661505 -0.874366,0.821137 l 1.107427,1.651063 -0.945163,0 -0.903304,-1.496033 c -0.07056,0.0071 -0.148214,0.0072 -0.225827,0.0072 l -1.170987,0 0,1.488799 -0.833022,0 0,-2.4722 z m 3.270084,0 0,0.235643 1.170987,0 c 0.37184,0 0.665046,-0.07862 0.869199,-0.235643 z"
         id="path160"
         inkscape:connector-curvature="0" />
      <path
         style="opacity:1;fill:#b03686;fill-opacity:1;fill-rule:nonzero;stroke:none;stroke-width:1.5;stroke-linecap:butt;stroke-linejoin:round;stroke-miterlimit:4;stroke-dasharray:none;stroke-dashoffset:0;stroke-opacity:0.95294118;paint-order:stroke markers fill"
         d="m 19.049645,67.777775 -4.476213,7.753017 2.437062,0 0,-2.466518 2.004009,0 c 1.262946,0 1.989545,0.61376 1.989545,1.686203 0,0.293592 -0.05101,0.55462 -0.148312,0.780315 l 0.875916,0 -5.29e-4,-0.0011 0.897104,-1.553911 z m -1.206129,6.034257 0,1.71876 2.040186,0 c 0.214214,-0.164767 0.330213,-0.415931 0.330213,-0.759127 0,-0.649113 -0.437412,-0.959633 -1.199412,-0.959633 z"
         id="path162"
         inkscape:connector-curvature="0" />
      <text
         sodipodi:linespacing="125%"
         xml:space="preserve"
         style="font-style:normal;font-variant:normal;font-weight:normal;font-stretch:normal;font-size:3.54523301px;line-height:125%;font-family:Montserrat;-inkscape-font-specification:Montserrat;text-align:start;letter-spacing:0px;word-spacing:0px;writing-mode:lr-tb;text-anchor:start;display:inline;fill:#7e2560;fill-opacity:0.94117647;stroke:none;stroke-width:0.12258349px;stroke-linecap:butt;stroke-linejoin:miter;stroke-opacity:1"
         x="9.6161213"
         y="71.441391"
         id="text122"><tspan
           sodipodi:role="line"
           x="9.6161213"
           y="71.441391"
           style="font-style:normal;font-variant:normal;font-weight:normal;font-stretch:normal;font-size:4.93888903px;font-family:Montserrat;-inkscape-font-specification:Montserrat;fill:#7e2560;fill-opacity:0.94117647;stroke-width:0.12258349px"
           id="tspan120">de</tspan></text>
      <path
         id="path150"
         d="m 28.001699,67.776748 3.57911,6.19858 3.57911,-6.19858 z"
         style="opacity:1;fill:#621e4b;fill-opacity:1;fill-rule:nonzero;stroke:none;stroke-width:1.5;stroke-linecap:butt;stroke-linejoin:round;stroke-miterlimit:4;stroke-dasharray:none;stroke-dashoffset:0;stroke-opacity:0.95294118;paint-order:stroke markers fill"
         inkscape:connector-curvature="0" />
      <path
         style="opacity:1;fill:#892a69;fill-opacity:1;fill-rule:nonzero;stroke:none;stroke-width:1.5;stroke-linecap:butt;stroke-linejoin:round;stroke-miterlimit:4;stroke-dasharray:none;stroke-dashoffset:0;stroke-opacity:0.95294118;paint-order:stroke markers fill"
         d="m 35.159772,67.776743 -3.578592,6.199103 0.896585,1.553395 0.875917,0 0,-2.464967 3.527948,0 0,0.747758 -2.695442,0 0,1.333254 2.413291,0 0,0.383955 3.036506,0 z"
         id="path154"
         inkscape:connector-curvature="0" />
      <path
         inkscape:connector-curvature="0"
         style="opacity:1;fill:#621e4b;fill-opacity:1;fill-rule:nonzero;stroke:none;stroke-width:1.5;stroke-linecap:butt;stroke-linejoin:round;stroke-miterlimit:4;stroke-dasharray:none;stroke-dashoffset:0;stroke-opacity:0.95294118;paint-order:stroke markers fill"
         d="m 28.001699,67.776748 3.57911,6.19858 3.57911,-6.19858 z"
         id="path124" />
      <path
         id="path156"
         d="m 31.581319,77.084188 -2.67942,4.64157 -1.79627,0.002 0.89762,1.55495 7.15667,-5.2e-4 z"
         style="opacity:1;fill:#c94fa0;fill-opacity:1;fill-rule:nonzero;stroke:none;stroke-width:1.5;stroke-linecap:butt;stroke-linejoin:round;stroke-miterlimit:4;stroke-dasharray:none;stroke-dashoffset:0;stroke-opacity:0.95294118;paint-order:stroke markers fill"
         inkscape:connector-curvature="0" />
      <path
         inkscape:connector-curvature="0"
         id="path126"
         d="m 32.478281,75.529757 -0.897101,1.553911 3.579108,6.199106 4.475697,-7.753017 -3.036506,0 0,0.363802 -2.413291,0 0,1.361676 2.780191,0 0,0.747757 -3.612697,0 0,-2.473235 z"
         style="opacity:1;fill:#b03586;fill-opacity:1;fill-rule:nonzero;stroke:none;stroke-width:1.5;stroke-linecap:butt;stroke-linejoin:round;stroke-miterlimit:4;stroke-dasharray:none;stroke-dashoffset:0;stroke-opacity:0.95294118;paint-order:stroke markers fill" />
      <path
         inkscape:connector-curvature="0"
         id="path128"
         d="m 35.159772,67.776743 -3.578592,6.199103 0.896585,1.553395 0.875917,0 0,-2.464967 3.527948,0 0,0.747758 -2.695442,0 0,1.333254 2.413291,0 0,0.383955 3.036506,0 z"
         style="opacity:1;fill:#892968;fill-opacity:1;fill-rule:nonzero;stroke:none;stroke-width:1.5;stroke-linecap:butt;stroke-linejoin:round;stroke-miterlimit:4;stroke-dasharray:none;stroke-dashoffset:0;stroke-opacity:0.95294118;paint-order:stroke markers fill" />
      <path
         inkscape:connector-curvature="0"
         style="opacity:1;fill:#c94fa0;fill-opacity:1;fill-rule:nonzero;stroke:none;stroke-width:1.5;stroke-linecap:butt;stroke-linejoin:round;stroke-miterlimit:4;stroke-dasharray:none;stroke-dashoffset:0;stroke-opacity:0.95294118;paint-order:stroke markers fill"
         d="m 31.581319,77.084188 -2.67942,4.64157 -1.79627,0.002 0.89762,1.55495 7.15667,-5.2e-4 z"
         id="path130" />
      <path
         id="path158"
         d="m 19.049789,67.777778 3.57859,6.19807 2.68097,-4.64313 1.79524,0 -0.89762,-1.55494 z"
         style="opacity:1;fill:#c94fa0;fill-opacity:1;fill-rule:nonzero;stroke:none;stroke-width:1.5;stroke-linecap:butt;stroke-linejoin:round;stroke-miterlimit:4;stroke-dasharray:none;stroke-dashoffset:0;stroke-opacity:0.95294118;paint-order:stroke markers fill"
         inkscape:connector-curvature="0" />
      <path
         inkscape:connector-curvature="0"
         style="opacity:1;fill:#000000;fill-opacity:0;fill-rule:nonzero;stroke:none;stroke-width:1.5;stroke-linecap:butt;stroke-linejoin:round;stroke-miterlimit:4;stroke-dasharray:none;stroke-dashoffset:0;stroke-opacity:0.95294118;paint-order:stroke markers fill"
         d="m 19.049789,67.777778 3.57859,6.19807 2.68097,-4.64313 1.79524,0 -0.89762,-1.55494 z"
         id="path132" />
      <path
         inkscape:connector-curvature="0"
         id="path134"
         d="m 14.573432,75.530792 4.476213,7.752497 3.579109,-6.198589 -0.897102,-1.553908 -0.875916,0 c -0.164603,0.381777 -0.461986,0.661505 -0.874366,0.821137 l 1.107427,1.651063 -0.945163,0 -0.903304,-1.496033 c -0.07056,0.0071 -0.148214,0.0072 -0.225827,0.0072 l -1.170987,0 0,1.488799 -0.833022,0 0,-2.4722 z m 3.270084,0 0,0.235643 1.170987,0 c 0.37184,0 0.665046,-0.07862 0.869199,-0.235643 z"
         style="opacity:1;fill:#892968;fill-opacity:1;fill-rule:nonzero;stroke:none;stroke-width:1.5;stroke-linecap:butt;stroke-linejoin:round;stroke-miterlimit:4;stroke-dasharray:none;stroke-dashoffset:0;stroke-opacity:0.95294118;paint-order:stroke markers fill" />
      <path
         inkscape:connector-curvature="0"
         id="path136"
         d="m 19.049645,67.777775 -4.476213,7.753017 2.437062,0 0,-2.466518 2.004009,0 c 1.262946,0 1.989545,0.61376 1.989545,1.686203 0,0.293592 -0.05101,0.55462 -0.148312,0.780315 l 0.875916,0 -5.29e-4,-0.0011 0.897104,-1.553911 z m -1.206129,6.034257 0,1.71876 2.040186,0 c 0.214214,-0.164767 0.330213,-0.415931 0.330213,-0.759127 0,-0.649113 -0.437412,-0.959633 -1.199412,-0.959633 z"
         style="opacity:1;fill:#b03586;fill-opacity:1;fill-rule:nonzero;stroke:none;stroke-width:1.5;stroke-linecap:butt;stroke-linejoin:round;stroke-miterlimit:4;stroke-dasharray:none;stroke-dashoffset:0;stroke-opacity:0.95294118;paint-order:stroke markers fill" />
      <path
         inkscape:connector-curvature="0"
         style="opacity:1;fill:#621e4b;fill-opacity:1;fill-rule:nonzero;stroke:none;stroke-width:1.5;stroke-linecap:butt;stroke-linejoin:round;stroke-miterlimit:4;stroke-dasharray:none;stroke-dashoffset:0;stroke-opacity:0.95294118;paint-order:stroke markers fill"
         d="m 22.628899,77.084698 -3.57911,6.19859 8.95243,0 -5.3e-4,-5.3e-4 -1.79421,0 z"
         id="path138" />
      <text
         sodipodi:linespacing="125%"
         xml:space="preserve"
         style="font-style:normal;font-variant:normal;font-weight:normal;font-stretch:normal;font-size:7.05555534px;line-height:125%;font-family:Montserrat;-inkscape-font-specification:Montserrat;text-align:start;letter-spacing:0px;word-spacing:0px;writing-mode:lr-tb;text-anchor:start;fill:#621e4b;fill-opacity:1;stroke:none;stroke-width:0.26458332px;stroke-linecap:butt;stroke-linejoin:miter;stroke-opacity:1"
         x="24.981119"
         y="78.002998"
         id="text142"><tspan
           sodipodi:role="line"
           id="tspan140"
           x="24.981119"
           y="78.002998"
           style="fill:#621e4b;fill-opacity:1;stroke-width:0.26458332px">S</tspan></text>
      <text
         sodipodi:linespacing="125%"
         id="text148"
         y="71.441391"
         x="9.6161194"
         style="font-style:normal;font-variant:normal;font-weight:normal;font-stretch:normal;font-size:3.54523301px;line-height:125%;font-family:Montserrat;-inkscape-font-specification:Montserrat;text-align:start;letter-spacing:0px;word-spacing:0px;writing-mode:lr-tb;text-anchor:start;display:inline;fill:#621e4b;fill-opacity:1;stroke:none;stroke-width:0.12258349px;stroke-linecap:butt;stroke-linejoin:miter;stroke-opacity:1"
         xml:space="preserve"><tspan
           id="tspan146"
           style="font-style:normal;font-variant:normal;font-weight:normal;font-stretch:normal;font-size:4.93888903px;font-family:Montserrat;-inkscape-font-specification:Montserrat;fill:#621e4b;fill-opacity:1;stroke-width:0.12258349px"
           y="71.441391"
           x="9.6161194"
           sodipodi:role="line">de</tspan></text>
      <text
         sodipodi:linespacing="125%"
         id="text168"
         y="78.002991"
         x="24.981119"
         style="font-style:normal;font-variant:normal;font-weight:normal;font-stretch:normal;font-size:7.05555534px;line-height:125%;font-family:Montserrat;-inkscape-font-specification:Montserrat;text-align:start;letter-spacing:0px;word-spacing:0px;writing-mode:lr-tb;text-anchor:start;fill:#621e4b;fill-opacity:1;stroke:none;stroke-width:0.26458332px;stroke-linecap:butt;stroke-linejoin:miter;stroke-opacity:1"
         xml:space="preserve"><tspan
           style="fill:#621e4b;fill-opacity:1;stroke-width:0.26458332px"
           y="78.002991"
           x="24.981119"
           id="tspan166"
           sodipodi:role="line">S</tspan></text>
      <path
         style="opacity:1;fill:#b03586;fill-opacity:1;fill-rule:nonzero;stroke:none;stroke-width:1.5;stroke-linecap:butt;stroke-linejoin:round;stroke-miterlimit:4;stroke-dasharray:none;stroke-dashoffset:0;stroke-opacity:0.95294118;paint-order:stroke markers fill"
         d="m 32.478281,75.529757 -0.897101,1.553911 3.579108,6.199106 4.475697,-7.753017 -3.036506,0 0,0.363802 -2.413291,0 0,1.361676 2.780191,0 0,0.747757 -3.612697,0 0,-2.473235 z"
         id="path5058"
         inkscape:connector-curvature="0" />
    </g>
    <text
       xml:space="preserve"
       style="font-style:normal;font-variant:normal;font-weight:normal;font-stretch:normal;font-size:24.483284px;line-height:125%;font-family:Montserrat;-inkscape-font-specification:Montserrat;text-align:start;letter-spacing:0px;word-spacing:0px;writing-mode:lr-tb;text-anchor:start;display:inline;fill:#000000;fill-opacity:1;stroke:none;stroke-width:0.23891759px;stroke-linecap:butt;stroke-linejoin:miter;stroke-opacity:1"
       x="258.81909"
       y="445.81369"
       id="text9885"
       sodipodi:linespacing="125%"><tspan
         sodipodi:role="line"
         id="tspan9887"
         x="258.81909"
         y="445.81369"
         style="font-style:normal;font-variant:normal;font-weight:300;font-stretch:normal;font-size:24.483284px;font-family:Montserrat;-inkscape-font-specification:'Montserrat Light';fill:#000000;stroke-width:0.23891759px">GESELLSCHAFT FÜR</tspan><tspan
         sodipodi:role="line"
         x="258.81909"
         y="476.41779"
         style="font-style:normal;font-variant:normal;font-weight:300;font-stretch:normal;font-size:24.483284px;font-family:Montserrat;-inkscape-font-specification:'Montserrat Light';fill:#000000;stroke-width:0.23891759px"
         id="tspan9889">FORSCHUNGSSOFTWARE</tspan></text>
    <path
       inkscape:connector-curvature="0"
       id="path9891"
       d="m 247.55179,424.91663 1.9822,0 0,54.95177 -1.9822,0 z"
       style="display:inline;opacity:1;fill:#000000;fill-opacity:1;fill-rule:nonzero;stroke:none;stroke-width:0.11509767;stroke-linecap:square;stroke-linejoin:round;stroke-miterlimit:4;stroke-dasharray:none;stroke-dashoffset:0;stroke-opacity:1;paint-order:stroke markers fill"
       sodipodi:nodetypes="ccccc" />
    <g
       id="g9893"
       style="display:inline"
       transform="matrix(3.5433068,0,0,3.5433068,95.455544,184.76741)">
      <path
         inkscape:connector-curvature="0"
         style="opacity:1;fill:#621e4b;fill-opacity:1;fill-rule:nonzero;stroke:none;stroke-width:1.5;stroke-linecap:butt;stroke-linejoin:round;stroke-miterlimit:4;stroke-dasharray:none;stroke-dashoffset:0;stroke-opacity:0.95294118;paint-order:stroke markers fill"
         d="m 22.628899,77.084698 -3.57911,6.19859 8.95243,0 -5.3e-4,-5.3e-4 -1.79421,0 z"
         id="path9895" />
      <path
         inkscape:connector-curvature="0"
         id="path9897"
         d="m 14.573432,75.530792 4.476213,7.752497 3.579109,-6.198589 -0.897102,-1.553908 -0.875916,0 c -0.164603,0.381777 -0.461986,0.661505 -0.874366,0.821137 l 1.107427,1.651063 -0.945163,0 -0.903304,-1.496033 c -0.07056,0.0071 -0.148214,0.0072 -0.225827,0.0072 l -1.170987,0 0,1.488799 -0.833022,0 0,-2.4722 z m 3.270084,0 0,0.235643 1.170987,0 c 0.37184,0 0.665046,-0.07862 0.869199,-0.235643 z"
         style="opacity:1;fill:#892a69;fill-opacity:1;fill-rule:nonzero;stroke:none;stroke-width:1.5;stroke-linecap:butt;stroke-linejoin:round;stroke-miterlimit:4;stroke-dasharray:none;stroke-dashoffset:0;stroke-opacity:0.95294118;paint-order:stroke markers fill" />
      <path
         inkscape:connector-curvature="0"
         id="path9899"
         d="m 19.049645,67.777775 -4.476213,7.753017 2.437062,0 0,-2.466518 2.004009,0 c 1.262946,0 1.989545,0.61376 1.989545,1.686203 0,0.293592 -0.05101,0.55462 -0.148312,0.780315 l 0.875916,0 -5.29e-4,-0.0011 0.897104,-1.553911 z m -1.206129,6.034257 0,1.71876 2.040186,0 c 0.214214,-0.164767 0.330213,-0.415931 0.330213,-0.759127 0,-0.649113 -0.437412,-0.959633 -1.199412,-0.959633 z"
         style="opacity:1;fill:#b03686;fill-opacity:1;fill-rule:nonzero;stroke:none;stroke-width:1.5;stroke-linecap:butt;stroke-linejoin:round;stroke-miterlimit:4;stroke-dasharray:none;stroke-dashoffset:0;stroke-opacity:0.95294118;paint-order:stroke markers fill" />
      <text
         id="text9901"
         y="71.441391"
         x="9.6161213"
         style="font-style:normal;font-variant:normal;font-weight:normal;font-stretch:normal;font-size:3.54523301px;line-height:125%;font-family:Montserrat;-inkscape-font-specification:Montserrat;text-align:start;letter-spacing:0px;word-spacing:0px;writing-mode:lr-tb;text-anchor:start;display:inline;fill:#7e2560;fill-opacity:0.94117647;stroke:none;stroke-width:0.12258349px;stroke-linecap:butt;stroke-linejoin:miter;stroke-opacity:1"
         xml:space="preserve"
         sodipodi:linespacing="125%"><tspan
           id="tspan9903"
           style="font-style:normal;font-variant:normal;font-weight:normal;font-stretch:normal;font-size:4.93888903px;font-family:Montserrat;-inkscape-font-specification:Montserrat;fill:#7e2560;fill-opacity:0.94117647;stroke-width:0.12258349px"
           y="71.441391"
           x="9.6161213"
           sodipodi:role="line">de</tspan></text>
      <path
         inkscape:connector-curvature="0"
         style="opacity:1;fill:#621e4b;fill-opacity:1;fill-rule:nonzero;stroke:none;stroke-width:1.5;stroke-linecap:butt;stroke-linejoin:round;stroke-miterlimit:4;stroke-dasharray:none;stroke-dashoffset:0;stroke-opacity:0.95294118;paint-order:stroke markers fill"
         d="m 28.001699,67.776748 3.57911,6.19858 3.57911,-6.19858 z"
         id="path9905" />
      <path
         inkscape:connector-curvature="0"
         id="path9907"
         d="m 35.159772,67.776743 -3.578592,6.199103 0.896585,1.553395 0.875917,0 0,-2.464967 3.527948,0 0,0.747758 -2.695442,0 0,1.333254 2.413291,0 0,0.383955 3.036506,0 z"
         style="opacity:1;fill:#892a69;fill-opacity:1;fill-rule:nonzero;stroke:none;stroke-width:1.5;stroke-linecap:butt;stroke-linejoin:round;stroke-miterlimit:4;stroke-dasharray:none;stroke-dashoffset:0;stroke-opacity:0.95294118;paint-order:stroke markers fill" />
      <path
         id="path9909"
         d="m 28.001699,67.776748 3.57911,6.19858 3.57911,-6.19858 z"
         style="opacity:1;fill:#621e4b;fill-opacity:1;fill-rule:nonzero;stroke:none;stroke-width:1.5;stroke-linecap:butt;stroke-linejoin:round;stroke-miterlimit:4;stroke-dasharray:none;stroke-dashoffset:0;stroke-opacity:0.95294118;paint-order:stroke markers fill"
         inkscape:connector-curvature="0" />
      <path
         inkscape:connector-curvature="0"
         style="opacity:1;fill:#c94fa0;fill-opacity:1;fill-rule:nonzero;stroke:none;stroke-width:1.5;stroke-linecap:butt;stroke-linejoin:round;stroke-miterlimit:4;stroke-dasharray:none;stroke-dashoffset:0;stroke-opacity:0.95294118;paint-order:stroke markers fill"
         d="m 31.581319,77.084188 -2.67942,4.64157 -1.79627,0.002 0.89762,1.55495 7.15667,-5.2e-4 z"
         id="path9911" />
      <path
         style="opacity:1;fill:#b03586;fill-opacity:1;fill-rule:nonzero;stroke:none;stroke-width:1.5;stroke-linecap:butt;stroke-linejoin:round;stroke-miterlimit:4;stroke-dasharray:none;stroke-dashoffset:0;stroke-opacity:0.95294118;paint-order:stroke markers fill"
         d="m 32.478281,75.529757 -0.897101,1.553911 3.579108,6.199106 4.475697,-7.753017 -3.036506,0 0,0.363802 -2.413291,0 0,1.361676 2.780191,0 0,0.747757 -3.612697,0 0,-2.473235 z"
         id="path9913"
         inkscape:connector-curvature="0" />
      <path
         style="opacity:1;fill:#892968;fill-opacity:1;fill-rule:nonzero;stroke:none;stroke-width:1.5;stroke-linecap:butt;stroke-linejoin:round;stroke-miterlimit:4;stroke-dasharray:none;stroke-dashoffset:0;stroke-opacity:0.95294118;paint-order:stroke markers fill"
         d="m 35.159772,67.776743 -3.578592,6.199103 0.896585,1.553395 0.875917,0 0,-2.464967 3.527948,0 0,0.747758 -2.695442,0 0,1.333254 2.413291,0 0,0.383955 3.036506,0 z"
         id="path9915"
         inkscape:connector-curvature="0" />
      <path
         id="path9917"
         d="m 31.581319,77.084188 -2.67942,4.64157 -1.79627,0.002 0.89762,1.55495 7.15667,-5.2e-4 z"
         style="opacity:1;fill:#c94fa0;fill-opacity:1;fill-rule:nonzero;stroke:none;stroke-width:1.5;stroke-linecap:butt;stroke-linejoin:round;stroke-miterlimit:4;stroke-dasharray:none;stroke-dashoffset:0;stroke-opacity:0.95294118;paint-order:stroke markers fill"
         inkscape:connector-curvature="0" />
      <path
         inkscape:connector-curvature="0"
         style="opacity:1;fill:#c94fa0;fill-opacity:1;fill-rule:nonzero;stroke:none;stroke-width:1.5;stroke-linecap:butt;stroke-linejoin:round;stroke-miterlimit:4;stroke-dasharray:none;stroke-dashoffset:0;stroke-opacity:0.95294118;paint-order:stroke markers fill"
         d="m 19.049789,67.777778 3.57859,6.19807 2.68097,-4.64313 1.79524,0 -0.89762,-1.55494 z"
         id="path9919" />
      <path
         id="path9921"
         d="m 19.049789,67.777778 3.57859,6.19807 2.68097,-4.64313 1.79524,0 -0.89762,-1.55494 z"
         style="opacity:1;fill:#000000;fill-opacity:0;fill-rule:nonzero;stroke:none;stroke-width:1.5;stroke-linecap:butt;stroke-linejoin:round;stroke-miterlimit:4;stroke-dasharray:none;stroke-dashoffset:0;stroke-opacity:0.95294118;paint-order:stroke markers fill"
         inkscape:connector-curvature="0" />
      <path
         style="opacity:1;fill:#892968;fill-opacity:1;fill-rule:nonzero;stroke:none;stroke-width:1.5;stroke-linecap:butt;stroke-linejoin:round;stroke-miterlimit:4;stroke-dasharray:none;stroke-dashoffset:0;stroke-opacity:0.95294118;paint-order:stroke markers fill"
         d="m 14.573432,75.530792 4.476213,7.752497 3.579109,-6.198589 -0.897102,-1.553908 -0.875916,0 c -0.164603,0.381777 -0.461986,0.661505 -0.874366,0.821137 l 1.107427,1.651063 -0.945163,0 -0.903304,-1.496033 c -0.07056,0.0071 -0.148214,0.0072 -0.225827,0.0072 l -1.170987,0 0,1.488799 -0.833022,0 0,-2.4722 z m 3.270084,0 0,0.235643 1.170987,0 c 0.37184,0 0.665046,-0.07862 0.869199,-0.235643 z"
         id="path9923"
         inkscape:connector-curvature="0" />
      <path
         style="opacity:1;fill:#b03586;fill-opacity:1;fill-rule:nonzero;stroke:none;stroke-width:1.5;stroke-linecap:butt;stroke-linejoin:round;stroke-miterlimit:4;stroke-dasharray:none;stroke-dashoffset:0;stroke-opacity:0.95294118;paint-order:stroke markers fill"
         d="m 19.049645,67.777775 -4.476213,7.753017 2.437062,0 0,-2.466518 2.004009,0 c 1.262946,0 1.989545,0.61376 1.989545,1.686203 0,0.293592 -0.05101,0.55462 -0.148312,0.780315 l 0.875916,0 -5.29e-4,-0.0011 0.897104,-1.553911 z m -1.206129,6.034257 0,1.71876 2.040186,0 c 0.214214,-0.164767 0.330213,-0.415931 0.330213,-0.759127 0,-0.649113 -0.437412,-0.959633 -1.199412,-0.959633 z"
         id="path9925"
         inkscape:connector-curvature="0" />
      <path
         id="path9927"
         d="m 22.628899,77.084698 -3.57911,6.19859 8.95243,0 -5.3e-4,-5.3e-4 -1.79421,0 z"
         style="opacity:1;fill:#621e4b;fill-opacity:1;fill-rule:nonzero;stroke:none;stroke-width:1.5;stroke-linecap:butt;stroke-linejoin:round;stroke-miterlimit:4;stroke-dasharray:none;stroke-dashoffset:0;stroke-opacity:0.95294118;paint-order:stroke markers fill"
         inkscape:connector-curvature="0" />
      <text
         id="text9929"
         y="78.002998"
         x="24.981119"
         style="font-style:normal;font-variant:normal;font-weight:normal;font-stretch:normal;font-size:7.05555534px;line-height:125%;font-family:Montserrat;-inkscape-font-specification:Montserrat;text-align:start;letter-spacing:0px;word-spacing:0px;writing-mode:lr-tb;text-anchor:start;fill:#621e4b;fill-opacity:1;stroke:none;stroke-width:0.26458332px;stroke-linecap:butt;stroke-linejoin:miter;stroke-opacity:1"
         xml:space="preserve"
         sodipodi:linespacing="125%"><tspan
           style="fill:#621e4b;fill-opacity:1;stroke-width:0.26458332px"
           y="78.002998"
           x="24.981119"
           id="tspan9931"
           sodipodi:role="line">S</tspan></text>
      <text
         xml:space="preserve"
         style="font-style:normal;font-variant:normal;font-weight:normal;font-stretch:normal;font-size:3.54523301px;line-height:125%;font-family:Montserrat;-inkscape-font-specification:Montserrat;text-align:start;letter-spacing:0px;word-spacing:0px;writing-mode:lr-tb;text-anchor:start;display:inline;fill:#621e4b;fill-opacity:1;stroke:none;stroke-width:0.12258349px;stroke-linecap:butt;stroke-linejoin:miter;stroke-opacity:1"
         x="9.6161194"
         y="71.441391"
         id="text9933"
         sodipodi:linespacing="125%"><tspan
           sodipodi:role="line"
           x="9.6161194"
           y="71.441391"
           style="font-style:normal;font-variant:normal;font-weight:normal;font-stretch:normal;font-size:4.93888903px;font-family:Montserrat;-inkscape-font-specification:Montserrat;fill:#621e4b;fill-opacity:1;stroke-width:0.12258349px"
           id="tspan9935">de</tspan></text>
      <text
         xml:space="preserve"
         style="font-style:normal;font-variant:normal;font-weight:normal;font-stretch:normal;font-size:7.05555534px;line-height:125%;font-family:Montserrat;-inkscape-font-specification:Montserrat;text-align:start;letter-spacing:0px;word-spacing:0px;writing-mode:lr-tb;text-anchor:start;fill:#621e4b;fill-opacity:1;stroke:none;stroke-width:0.26458332px;stroke-linecap:butt;stroke-linejoin:miter;stroke-opacity:1"
         x="24.981119"
         y="78.002991"
         id="text9937"
         sodipodi:linespacing="125%"><tspan
           sodipodi:role="line"
           id="tspan9939"
           x="24.981119"
           y="78.002991"
           style="fill:#621e4b;fill-opacity:1;stroke-width:0.26458332px">S</tspan></text>
      <path
         inkscape:connector-curvature="0"
         id="path9941"
         d="m 32.478281,75.529757 -0.897101,1.553911 3.579108,6.199106 4.475697,-7.753017 -3.036506,0 0,0.363802 -2.413291,0 0,1.361676 2.780191,0 0,0.747757 -3.612697,0 0,-2.473235 z"
         style="opacity:1;fill:#b03586;fill-opacity:1;fill-rule:nonzero;stroke:none;stroke-width:1.5;stroke-linecap:butt;stroke-linejoin:round;stroke-miterlimit:4;stroke-dasharray:none;stroke-dashoffset:0;stroke-opacity:0.95294118;paint-order:stroke markers fill" />
    </g>
  </g>
</svg>
