<?xml version="1.0" encoding="UTF-8" standalone="no"?>
<svg
   xmlns:dc="http://purl.org/dc/elements/1.1/"
   xmlns:cc="http://creativecommons.org/ns#"
   xmlns:rdf="http://www.w3.org/1999/02/22-rdf-syntax-ns#"
   xmlns:svg="http://www.w3.org/2000/svg"
   xmlns="http://www.w3.org/2000/svg"
   xmlns:sodipodi="http://sodipodi.sourceforge.net/DTD/sodipodi-0.dtd"
   xmlns:inkscape="http://www.inkscape.org/namespaces/inkscape"
   id="svg4769"
   version="1.1"
   viewBox="0 0 30 30"
   height="30mm"
   width="30mm"
   sodipodi:docname="de-RSE-logo-text-below-colour.svg"
   inkscape:version="0.92.4 (5da689c313, 2019-01-14)"
   inkscape:export-filename="F:\Projects\RSE\Online\de-RSE-logo-text-colour.png"
   inkscape:export-xdpi="300"
   inkscape:export-ydpi="300">
  <sodipodi:namedview
     pagecolor="#ffffff"
     bordercolor="#666666"
     borderopacity="1"
     objecttolerance="10"
     gridtolerance="10"
     guidetolerance="10"
     inkscape:pageopacity="0"
     inkscape:pageshadow="2"
     inkscape:window-width="1920"
     inkscape:window-height="1171"
     id="namedview34"
     showgrid="false"
     inkscape:object-paths="true"
     inkscape:zoom="7.130118"
     inkscape:cx="25.205302"
     inkscape:cy="57.844149"
     inkscape:window-x="1920"
     inkscape:window-y="0"
     inkscape:window-maximized="1"
     inkscape:current-layer="layer2"
     fit-margin-top="2.7"
     fit-margin-left="0.1"
     fit-margin-right="0.1"
     fit-margin-bottom="2.7" />
  <defs
     id="defs4763" />
  <metadata
     id="metadata4766">
    <rdf:RDF>
      <cc:Work
         rdf:about="">
        <dc:format>image/svg+xml</dc:format>
        <dc:type
           rdf:resource="http://purl.org/dc/dcmitype/StillImage" />
        <dc:title></dc:title>
      </cc:Work>
    </rdf:RDF>
  </metadata>
  <g
     inkscape:groupmode="layer"
     id="layer2"
     inkscape:label="Logo"
     style="display:inline"
     transform="translate(-2.9736644,0.63494715)"
     sodipodi:insensitive="true">
    <g
       id="g4600">
      <g
         transform="translate(0,-277)"
         id="g5591">
        <path
           style="opacity:1;fill:#c94fa0;fill-opacity:1;fill-rule:nonzero;stroke:none;stroke-width:0.26458332;stroke-linecap:butt;stroke-linejoin:round;stroke-miterlimit:4;stroke-dasharray:none;stroke-dashoffset:0;stroke-opacity:0.94117647;paint-order:stroke markers fill"
           d="m 24.709874,288.55494 -2.680456,4.64313 h -1.795756 l 0.89762,1.55495 h 5.29e-4 7.156668 z"
           id="path4669"
           inkscape:connector-curvature="0" />
        <path
           style="opacity:1;fill:#b03686;fill-opacity:1;fill-rule:nonzero;stroke:none;stroke-width:0.26458332;stroke-linecap:butt;stroke-linejoin:round;stroke-miterlimit:4;stroke-dasharray:none;stroke-dashoffset:0;stroke-opacity:0.94117647;paint-order:stroke markers fill"
           d="m 12.17882,279.24689 -4.4762128,7.75302 h 2.3667808 v -2.4691 h 2.031917 c 1.298222,0 2.102714,0.66287 2.102714,1.75648 0,0.2639 -0.04971,0.50194 -0.14056,0.71262 h 0.796334 l 0.897619,-1.55495 z m -1.192176,6.05958 v 1.69344 h 1.998328 c 0.194316,-0.16886 0.294556,-0.41015 0.294556,-0.71262 0,-0.62089 -0.416264,-0.98082 -1.220598,-0.98082 z"
           id="path4663"
           inkscape:connector-curvature="0" />
        <path
           style="opacity:1;fill:#621e4b;fill-opacity:1;fill-rule:nonzero;stroke:none;stroke-width:0.26458332;stroke-linecap:butt;stroke-linejoin:round;stroke-miterlimit:4;stroke-dasharray:none;stroke-dashoffset:0;stroke-opacity:0.94117647;paint-order:stroke markers fill"
           d="m 15.75745,288.55494 -3.578593,6.19808 h 7.157185 z"
           id="path4665"
           inkscape:connector-curvature="0" />
        <path
           style="opacity:1;fill:#c94fa0;fill-opacity:1;fill-rule:nonzero;stroke:none;stroke-width:0.26458332;stroke-linecap:butt;stroke-linejoin:round;stroke-miterlimit:4;stroke-dasharray:none;stroke-dashoffset:0;stroke-opacity:0.94117647;paint-order:stroke markers fill"
           d="m 12.179374,279.24698 3.578076,6.19808 2.680973,-4.64313 h 1.795239 l -0.89762,-1.55495 z"
           id="path4671"
           inkscape:connector-curvature="0" />
        <path
           style="opacity:1;fill:#892a69;fill-opacity:1;fill-rule:nonzero;stroke:none;stroke-width:0.26458332;stroke-linecap:butt;stroke-linejoin:round;stroke-miterlimit:4;stroke-dasharray:none;stroke-dashoffset:0;stroke-opacity:0.94117647;paint-order:stroke markers fill"
           d="m 7.7026072,286.99991 4.4762128,7.75301 3.578592,-6.19807 -0.897619,-1.55494 h -0.796334 c -0.166613,0.38637 -0.476778,0.67803 -0.910539,0.84697 l 1.135848,1.62264 h -0.988053 l -1.008724,-1.44642 c -0.0635,0.007 -0.127186,0.007 -0.190686,0.007 h -1.114661 v 1.43919 h -0.917256 v -2.46961 z m 3.2840368,0 v 0.27543 h 1.072286 c 0.412501,0 0.721476,-0.0977 0.926042,-0.27543 z"
           id="path4673"
           inkscape:connector-curvature="0" />
        <path
           style="opacity:1;fill:#892a69;fill-opacity:1;fill-rule:nonzero;stroke:none;stroke-width:0.26458332;stroke-linecap:butt;stroke-linejoin:round;stroke-miterlimit:4;stroke-dasharray:none;stroke-dashoffset:0;stroke-opacity:0.94117647;paint-order:stroke markers fill"
           d="m 28.288429,279.24689 -3.578591,6.19807 0.898136,1.55495 h 0.828373 v -2.4691 h 3.604947 v 0.76894 h -2.688206 v 1.28416 h 2.384866 v 0.416 h 3.026688 z"
           id="path4667"
           inkscape:connector-curvature="0" />
        <path
           style="opacity:1;fill:#b03686;fill-opacity:1;fill-rule:nonzero;stroke:none;stroke-width:0.26458332;stroke-linecap:butt;stroke-linejoin:round;stroke-miterlimit:4;stroke-dasharray:none;stroke-dashoffset:0;stroke-opacity:0.94117647;paint-order:stroke markers fill"
           d="m 25.607974,286.99991 -0.898136,1.55494 3.578591,6.19807 4.476213,-7.75301 h -3.026688 v 0.33899 h -2.384866 v 1.36168 h 2.787425 v 0.76894 h -3.704166 v -2.46961 z"
           id="path4675"
           inkscape:connector-curvature="0" />
        <path
           style="opacity:1;fill:#621e4b;fill-opacity:1;fill-rule:nonzero;stroke:none;stroke-width:0.26458332;stroke-linecap:butt;stroke-linejoin:round;stroke-miterlimit:4;stroke-dasharray:none;stroke-dashoffset:0;stroke-opacity:0.94117647;paint-order:stroke markers fill"
           d="m 21.131798,279.24698 3.578076,6.19808 3.578593,-6.19808 z"
           id="path4677"
           inkscape:connector-curvature="0" />
      </g>
      <g
         id="text5362"
         style="font-style:normal;font-variant:normal;font-weight:normal;font-stretch:normal;font-size:7.05555534px;line-height:125%;font-family:Montserrat;-inkscape-font-specification:Montserrat;text-align:start;letter-spacing:0px;word-spacing:0px;writing-mode:lr-tb;text-anchor:start;fill:#621e4b;fill-opacity:1;stroke:none;stroke-width:0.26458332px;stroke-linecap:butt;stroke-linejoin:miter;stroke-opacity:1"
         aria-label="S">
        <path
           id="path4573"
           style="font-style:normal;font-variant:normal;font-weight:normal;font-stretch:normal;font-family:Montserrat;-inkscape-font-specification:Montserrat;fill:#621e4b;fill-opacity:1;stroke-width:0.26458332px"
           d="m 20.230135,12.511785 c 1.262944,0 1.8415,-0.620889 1.8415,-1.347611 0,-1.7991664 -3.040945,-0.980722 -3.040945,-2.3353887 0,-0.4938888 0.402167,-0.8960555 1.305278,-0.8960555 0.437445,0 0.931333,0.1340556 1.354667,0.4092222 L 21.867024,7.9256743 C 21.471913,7.6505076 20.893357,7.4882298 20.335968,7.4882298 c -1.255889,0 -1.820333,0.6279445 -1.820333,1.3546667 0,1.8273885 3.040944,0.9948333 3.040944,2.3494995 0,0.486834 -0.402166,0.874889 -1.326444,0.874889 -0.649111,0 -1.277056,-0.254 -1.629834,-0.599722 L 18.39569,11.86973 c 0.366889,0.381 1.093611,0.642055 1.834445,0.642055 z"
           inkscape:connector-curvature="0" />
      </g>
      <path
         inkscape:connector-curvature="0"
         style="opacity:1;fill:#c94fa0;fill-opacity:1;fill-rule:nonzero;stroke:none;stroke-width:0.26458332;stroke-linecap:butt;stroke-linejoin:round;stroke-miterlimit:4;stroke-dasharray:none;stroke-dashoffset:0;stroke-opacity:0.94117647;paint-order:stroke markers fill"
         d="m 24.709874,11.55494 -2.680456,4.64313 h -1.795756 l 0.89762,1.55495 h 5.29e-4 7.156668 z"
         id="path5593" />
      <path
         inkscape:connector-curvature="0"
         style="opacity:1;fill:#b03686;fill-opacity:1;fill-rule:nonzero;stroke:none;stroke-width:0.26458332;stroke-linecap:butt;stroke-linejoin:round;stroke-miterlimit:4;stroke-dasharray:none;stroke-dashoffset:0;stroke-opacity:0.94117647;paint-order:stroke markers fill"
         d="M 12.17882,2.24689 7.7026072,9.99991 h 2.3667808 v -2.4691 h 2.031917 c 1.298222,0 2.102714,0.66287 2.102714,1.75648 0,0.2639 -0.04971,0.50194 -0.14056,0.71262 h 0.796334 l 0.897619,-1.55495 z m -1.192176,6.05958 v 1.69344 h 1.998328 c 0.194316,-0.16886 0.294556,-0.41015 0.294556,-0.71262 0,-0.62089 -0.416264,-0.98082 -1.220598,-0.98082 z"
         id="path5595" />
      <path
         inkscape:connector-curvature="0"
         style="opacity:1;fill:#621e4b;fill-opacity:1;fill-rule:nonzero;stroke:none;stroke-width:0.26458332;stroke-linecap:butt;stroke-linejoin:round;stroke-miterlimit:4;stroke-dasharray:none;stroke-dashoffset:0;stroke-opacity:0.94117647;paint-order:stroke markers fill"
         d="m 15.75745,11.55494 -3.578593,6.19808 h 7.157185 z"
         id="path5597" />
      <path
         inkscape:connector-curvature="0"
         style="opacity:1;fill:#c94fa0;fill-opacity:1;fill-rule:nonzero;stroke:none;stroke-width:0.26458332;stroke-linecap:butt;stroke-linejoin:round;stroke-miterlimit:4;stroke-dasharray:none;stroke-dashoffset:0;stroke-opacity:0.94117647;paint-order:stroke markers fill"
         d="m 12.179374,2.24698 3.578076,6.19808 2.680973,-4.64313 h 1.795239 l -0.89762,-1.55495 z"
         id="path5599" />
      <path
         inkscape:connector-curvature="0"
         style="opacity:1;fill:#892a69;fill-opacity:1;fill-rule:nonzero;stroke:none;stroke-width:0.26458332;stroke-linecap:butt;stroke-linejoin:round;stroke-miterlimit:4;stroke-dasharray:none;stroke-dashoffset:0;stroke-opacity:0.94117647;paint-order:stroke markers fill"
         d="m 7.7026072,9.99991 4.4762128,7.75301 3.578592,-6.19807 -0.897619,-1.55494 h -0.796334 c -0.166613,0.38637 -0.476778,0.67803 -0.910539,0.84697 l 1.135848,1.62264 H 13.300715 L 12.291991,11.0231 c -0.0635,0.007 -0.127186,0.007 -0.190686,0.007 h -1.114661 v 1.43919 H 10.069388 V 9.99968 Z m 3.2840368,0 v 0.27543 h 1.072286 c 0.412501,0 0.721476,-0.0977 0.926042,-0.27543 z"
         id="path5601" />
      <path
         inkscape:connector-curvature="0"
         style="opacity:1;fill:#892a69;fill-opacity:1;fill-rule:nonzero;stroke:none;stroke-width:0.26458332;stroke-linecap:butt;stroke-linejoin:round;stroke-miterlimit:4;stroke-dasharray:none;stroke-dashoffset:0;stroke-opacity:0.94117647;paint-order:stroke markers fill"
         d="m 28.288429,2.24689 -3.578591,6.19807 0.898136,1.55495 h 0.828373 v -2.4691 h 3.604947 v 0.76894 h -2.688206 v 1.28416 h 2.384866 v 0.416 h 3.026688 z"
         id="path5603" />
      <path
         inkscape:connector-curvature="0"
         style="opacity:1;fill:#b03686;fill-opacity:1;fill-rule:nonzero;stroke:none;stroke-width:0.26458332;stroke-linecap:butt;stroke-linejoin:round;stroke-miterlimit:4;stroke-dasharray:none;stroke-dashoffset:0;stroke-opacity:0.94117647;paint-order:stroke markers fill"
         d="m 25.607974,9.99991 -0.898136,1.55494 3.578591,6.19807 4.476213,-7.75301 h -3.026688 v 0.33899 h -2.384866 v 1.36168 h 2.787425 v 0.76894 H 26.436347 V 9.99991 Z"
         id="path5605" />
      <path
         inkscape:connector-curvature="0"
         style="opacity:1;fill:#621e4b;fill-opacity:1;fill-rule:nonzero;stroke:none;stroke-width:0.26458332;stroke-linecap:butt;stroke-linejoin:round;stroke-miterlimit:4;stroke-dasharray:none;stroke-dashoffset:0;stroke-opacity:0.94117647;paint-order:stroke markers fill"
         d="m 21.131798,2.24698 3.578076,6.19808 3.578593,-6.19808 z"
         id="path5607" />
    </g>
  </g>
  <g
     inkscape:groupmode="layer"
     id="layer1"
     inkscape:label="Prefix_as_path"
     style="display:inline"
     transform="translate(-2.9736644,0.63494715)"
     sodipodi:insensitive="true">
    <g
       id="g4609">
      <path
         inkscape:connector-curvature="0"
         d="m 5.3554763,2.2469654 v 1.560689 C 5.1381652,3.4718099 4.7825652,3.2940099 4.3676985,3.2940099 c -0.7408334,0 -1.2939889,0.5334 -1.2939889,1.3186834 0,0.7852833 0.5531555,1.3236222 1.2939889,1.3236222 0.4296833,0 0.7902222,-0.1876777 1.0025945,-0.5383389 V 5.9116211 H 5.7061374 V 2.2469654 Z M 4.3973318,5.6251655 c -0.5531556,0 -0.9680222,-0.4049889 -0.9680222,-1.0124722 0,-0.6074834 0.4148666,-1.0124723 0.9680222,-1.0124723 0.5482167,0 0.9630834,0.4049889 0.9630834,1.0124723 0,0.6074833 -0.4148667,1.0124722 -0.9630834,1.0124722 z"
         style="font-style:normal;font-variant:normal;font-weight:normal;font-stretch:normal;font-size:4.93888903px;line-height:125%;font-family:Montserrat;-inkscape-font-specification:Montserrat;text-align:start;letter-spacing:0px;word-spacing:0px;writing-mode:lr-tb;text-anchor:start;display:inline;fill:#621e4b;fill-opacity:1;stroke:none;stroke-width:0.26458332px;stroke-linecap:butt;stroke-linejoin:miter;stroke-opacity:1"
         id="path4576" />
      <path
         inkscape:connector-curvature="0"
         d="m 8.9496755,4.6126933 c 0,-0.7803445 -0.5284611,-1.3186834 -1.2594167,-1.3186834 -0.7309556,0 -1.2692945,0.5482167 -1.2692945,1.3186834 0,0.7704667 0.5531556,1.3236222 1.3631334,1.3236222 0.4099278,0 0.7704667,-0.1481666 1.0025945,-0.4247444 L 8.5891366,5.2843822 C 8.391581,5.5115711 8.1100644,5.6251655 7.7939755,5.6251655 c -0.5679723,0 -0.982839,-0.3605389 -1.0223501,-0.9038167 h 2.1731112 c 0,-0.039511 0.00494,-0.079022 0.00494,-0.1086555 z M 7.6902588,3.5952821 c 0.5087056,0 0.8791222,0.3556001 0.9235722,0.8643056 H 6.7716254 C 6.8160754,3.9508822 7.1864921,3.5952821 7.6902588,3.5952821 Z"
         style="font-style:normal;font-variant:normal;font-weight:normal;font-stretch:normal;font-size:4.93888903px;line-height:125%;font-family:Montserrat;-inkscape-font-specification:Montserrat;text-align:start;letter-spacing:0px;word-spacing:0px;writing-mode:lr-tb;text-anchor:start;display:inline;fill:#621e4b;fill-opacity:1;stroke:none;stroke-width:0.26458332px;stroke-linecap:butt;stroke-linejoin:miter;stroke-opacity:1"
         id="path4578" />
    </g>
  </g>
  <g
     style="display:none"
     inkscape:label="Prefix_editable"
     id="g4885"
     inkscape:groupmode="layer"
     transform="translate(-2.9736644,0.63494715)"
     sodipodi:insensitive="true">
    <text
       xml:space="preserve"
       style="font-style:normal;font-variant:normal;font-weight:normal;font-stretch:normal;font-size:7.05555534px;line-height:125%;font-family:Montserrat;-inkscape-font-specification:Montserrat;text-align:end;letter-spacing:0px;word-spacing:0px;writing-mode:lr-tb;text-anchor:end;fill:#00ff00;fill-opacity:1;stroke:none;stroke-width:0.26458332px;stroke-linecap:butt;stroke-linejoin:miter;stroke-opacity:1"
       x="9.1744738"
       y="5.9116211"
       id="text4889"><tspan
         sodipodi:role="line"
         id="tspan4887"
         x="9.1744738"
         y="5.9116211"
         style="font-size:4.93888903px;text-align:end;text-anchor:end;fill:#00ff00;fill-opacity:1;stroke:none;stroke-width:0.26458332px;stroke-opacity:1">de</tspan></text>
  </g>
  <g
     style="display:inline"
     inkscape:label="Text_as_path"
     id="g4592"
     inkscape:groupmode="layer"
     transform="translate(-2.9736644,0.63494715)"
     sodipodi:insensitive="true">
    <path
       inkscape:connector-curvature="0"
       id="path4584"
       d="M 32.764677,19.944809 H 3.0736646"
       style="opacity:1;fill:none;fill-opacity:1;fill-rule:nonzero;stroke:#000000;stroke-width:0.35718751;stroke-linecap:butt;stroke-linejoin:round;stroke-miterlimit:4;stroke-dasharray:none;stroke-dashoffset:0;stroke-opacity:0.94117647;paint-order:stroke markers fill" />
    <g
       aria-label="GESELLSCHAFT FÜR FORSCHUNGSSOFTWARE"
       style="font-style:normal;font-variant:normal;font-weight:normal;font-stretch:normal;font-size:7.05555534px;line-height:125%;font-family:Montserrat;-inkscape-font-specification:Montserrat;text-align:start;letter-spacing:0px;word-spacing:0px;writing-mode:lr-tb;text-anchor:start;fill:#000000;fill-opacity:1;stroke:none;stroke-width:0.26458332px;stroke-linecap:butt;stroke-linejoin:miter;stroke-opacity:1"
       id="text4590"
       transform="matrix(0.3239199,0,0,0.3239199,-9.8100368,21.196678)">
      <path
         d="m 43.774843,7.2792661 c -0.402167,0.3245555 -0.881944,0.4515555 -1.404055,0.4515555 -1.284111,0 -2.236611,-0.9383889 -2.236611,-2.173111 0,-1.2417778 0.9525,-2.1731111 2.236611,-2.1731111 0.599722,0 1.114777,0.1622778 1.545166,0.5856111 l 0.225778,-0.2398889 c -0.437444,-0.4515555 -1.065389,-0.6773333 -1.778,-0.6773333 -1.495778,0 -2.589389,1.0653889 -2.589389,2.5047222 0,1.4393332 1.093611,2.5047221 2.582333,2.5047221 0.677334,0 1.319389,-0.2116667 1.763889,-0.635 V 5.5788772 h -0.345722 z"
         style="font-style:normal;font-variant:normal;font-weight:300;font-stretch:normal;font-family:Montserrat;-inkscape-font-specification:'Montserrat Light';fill:#000000;stroke-width:0.26458332px"
         id="path4594"
         inkscape:connector-curvature="0" />
      <path
         d="M 46.06393,7.7025994 V 5.677655 h 2.631722 v -0.3175 H 46.06393 V 3.4128217 h 2.942167 V 3.0882662 h -3.302 V 8.0271549 H 49.11193 V 7.7025994 Z"
         style="font-style:normal;font-variant:normal;font-weight:300;font-stretch:normal;font-family:Montserrat;-inkscape-font-specification:'Montserrat Light';fill:#000000;stroke-width:0.26458332px"
         id="path4596"
         inkscape:connector-curvature="0" />
      <path
         d="m 51.72899,8.0624327 c 1.220611,0 1.778,-0.6067778 1.778,-1.3052777 0,-1.7921111 -3.083278,-0.9172222 -3.083278,-2.3988889 0,-0.5432777 0.430389,-0.9877777 1.389945,-0.9877777 0.4445,0 0.945444,0.1340555 1.354666,0.4162778 l 0.134056,-0.2892778 c -0.381,-0.2751667 -0.945444,-0.4445 -1.488722,-0.4445 -1.213556,0 -1.749778,0.6138333 -1.749778,1.3123333 0,1.8203333 3.083278,0.9313333 3.083278,2.4129999 0,0.5362222 -0.437445,0.9666111 -1.425222,0.9666111 -0.663223,0 -1.291167,-0.2681111 -1.629834,-0.6208889 l -0.162278,0.2681111 c 0.359834,0.3951111 1.065389,0.6702778 1.799167,0.6702778 z"
         style="font-style:normal;font-variant:normal;font-weight:300;font-stretch:normal;font-family:Montserrat;-inkscape-font-specification:'Montserrat Light';fill:#000000;stroke-width:0.26458332px"
         id="path4598"
         inkscape:connector-curvature="0" />
      <path
         d="M 55.09008,7.7025994 V 5.677655 h 2.631722 v -0.3175 H 55.09008 V 3.4128217 h 2.942166 V 3.0882662 h -3.302 V 8.0271549 H 58.13808 V 7.7025994 Z"
         style="font-style:normal;font-variant:normal;font-weight:300;font-stretch:normal;font-family:Montserrat;-inkscape-font-specification:'Montserrat Light';fill:#000000;stroke-width:0.26458332px"
         id="path4600"
         inkscape:connector-curvature="0" />
      <path
         d="M 59.456918,8.0271549 H 62.66014 V 7.7025994 H 59.816751 V 3.0882662 h -0.359833 z"
         style="font-style:normal;font-variant:normal;font-weight:300;font-stretch:normal;font-family:Montserrat;-inkscape-font-specification:'Montserrat Light';fill:#000000;stroke-width:0.26458332px"
         id="path4602"
         inkscape:connector-curvature="0" />
      <path
         d="m 63.591031,8.0271549 h 3.203222 V 7.7025994 H 63.950864 V 3.0882662 h -0.359833 z"
         style="font-style:normal;font-variant:normal;font-weight:300;font-stretch:normal;font-family:Montserrat;-inkscape-font-specification:'Montserrat Light';fill:#000000;stroke-width:0.26458332px"
         id="path4604"
         inkscape:connector-curvature="0" />
      <path
         d="m 68.954467,8.0624327 c 1.220611,0 1.778,-0.6067778 1.778,-1.3052777 0,-1.7921111 -3.083277,-0.9172222 -3.083277,-2.3988889 0,-0.5432777 0.430388,-0.9877777 1.389944,-0.9877777 0.4445,0 0.945444,0.1340555 1.354667,0.4162778 l 0.134055,-0.2892778 c -0.381,-0.2751667 -0.945444,-0.4445 -1.488722,-0.4445 -1.213556,0 -1.749778,0.6138333 -1.749778,1.3123333 0,1.8203333 3.083278,0.9313333 3.083278,2.4129999 0,0.5362222 -0.437444,0.9666111 -1.425222,0.9666111 -0.663222,0 -1.291167,-0.2681111 -1.629834,-0.6208889 l -0.162277,0.2681111 c 0.359833,0.3951111 1.065389,0.6702778 1.799166,0.6702778 z"
         style="font-style:normal;font-variant:normal;font-weight:300;font-stretch:normal;font-family:Montserrat;-inkscape-font-specification:'Montserrat Light';fill:#000000;stroke-width:0.26458332px"
         id="path4606"
         inkscape:connector-curvature="0" />
      <path
         d="m 74.044168,8.0624327 c 0.6985,0 1.326444,-0.2328333 1.756833,-0.6914444 L 75.575224,7.1381549 c -0.423334,0.4162778 -0.938389,0.5926667 -1.516945,0.5926667 -1.262944,0 -2.215444,-0.9313333 -2.215444,-2.173111 0,-1.2417778 0.9525,-2.1731111 2.215444,-2.1731111 0.578556,0 1.093611,0.1693333 1.516945,0.5856111 L 75.801001,3.7373773 C 75.370612,3.2787662 74.742668,3.0529884 74.044168,3.0529884 c -1.467555,0 -2.561167,1.0653889 -2.561167,2.5047222 0,1.4393332 1.093612,2.5047221 2.561167,2.5047221 z"
         style="font-style:normal;font-variant:normal;font-weight:300;font-stretch:normal;font-family:Montserrat;-inkscape-font-specification:'Montserrat Light';fill:#000000;stroke-width:0.26458332px"
         id="path4608"
         inkscape:connector-curvature="0" />
      <path
         d="M 80.674959,3.0882662 V 5.360155 h -3.302 V 3.0882662 h -0.359834 v 4.9388887 h 0.359834 V 5.677655 h 3.302 v 2.3494999 h 0.359833 V 3.0882662 Z"
         style="font-style:normal;font-variant:normal;font-weight:300;font-stretch:normal;font-family:Montserrat;-inkscape-font-specification:'Montserrat Light';fill:#000000;stroke-width:0.26458332px"
         id="path4610"
         inkscape:connector-curvature="0" />
      <path
         d="m 86.449599,8.0271549 h 0.388055 L 84.565765,3.0882662 h -0.359833 l -2.271889,4.9388887 h 0.388056 l 0.627944,-1.3899444 h 2.864556 z m -3.358445,-1.6933333 1.291167,-2.8504443 1.298222,2.8504443 z"
         style="font-style:normal;font-variant:normal;font-weight:300;font-stretch:normal;font-family:Montserrat;-inkscape-font-specification:'Montserrat Light';fill:#000000;stroke-width:0.26458332px"
         id="path4612"
         inkscape:connector-curvature="0" />
      <path
         d="M 91.036259,3.4128217 V 3.0882662 H 87.73426 v 4.9388887 h 0.359833 V 5.8469883 h 2.631722 V 5.5224328 H 88.094093 V 3.4128217 Z"
         style="font-style:normal;font-variant:normal;font-weight:300;font-stretch:normal;font-family:Montserrat;-inkscape-font-specification:'Montserrat Light';fill:#000000;stroke-width:0.26458332px"
         id="path4614"
         inkscape:connector-curvature="0" />
      <path
         d="m 93.172109,8.0271549 h 0.359833 V 3.4128217 h 1.778 V 3.0882662 h -3.915833 v 0.3245555 h 1.778 z"
         style="font-style:normal;font-variant:normal;font-weight:300;font-stretch:normal;font-family:Montserrat;-inkscape-font-specification:'Montserrat Light';fill:#000000;stroke-width:0.26458332px"
         id="path4616"
         inkscape:connector-curvature="0" />
      <path
         d="M 101.31643,3.4128217 V 3.0882662 h -3.302004 v 4.9388887 h 0.359833 V 5.8469883 h 2.631721 V 5.5224328 H 98.374259 V 3.4128217 Z"
         style="font-style:normal;font-variant:normal;font-weight:300;font-stretch:normal;font-family:Montserrat;-inkscape-font-specification:'Montserrat Light';fill:#000000;stroke-width:0.26458332px"
         id="path4618"
         inkscape:connector-curvature="0" />
      <path
         d="m 103.79899,2.4955995 c 0.13405,0 0.254,-0.1128889 0.254,-0.254 0,-0.1481666 -0.11995,-0.254 -0.254,-0.254 -0.14111,0 -0.254,0.1058334 -0.254,0.254 0,0.1411111 0.11289,0.254 0.254,0.254 z m 1.21355,0 c 0.14111,0 0.254,-0.1128889 0.254,-0.254 0,-0.1481666 -0.11289,-0.254 -0.254,-0.254 -0.13405,0 -0.254,0.1058334 -0.254,0.254 0,0.1411111 0.11995,0.254 0.254,0.254 z m -0.61383,5.5668332 c 1.22767,0 1.98261,-0.7196666 1.98261,-2.1307777 V 3.0882662 h -0.35983 v 2.8292777 c 0,1.2347222 -0.58561,1.8132777 -1.61572,1.8132777 -1.03012,0 -1.62278,-0.5785555 -1.62278,-1.8132777 V 3.0882662 h -0.35984 V 5.931655 c 0,1.4111111 0.74789,2.1307777 1.97556,2.1307777 z"
         style="font-style:normal;font-variant:normal;font-weight:300;font-stretch:normal;font-family:Montserrat;-inkscape-font-specification:'Montserrat Light';fill:#000000;stroke-width:0.26458332px"
         id="path4620"
         inkscape:connector-curvature="0" />
      <path
         d="m 111.89854,8.0271549 -1.23472,-1.728611 c 0.73378,-0.2187223 1.15711,-0.762 1.15711,-1.5451667 0,-1.0442221 -0.74789,-1.665111 -1.98966,-1.665111 h -1.77095 v 4.9388887 h 0.35983 V 6.4114327 h 1.41112 c 0.16933,0 0.32455,-0.014111 0.47977,-0.035278 l 1.17828,1.6509999 z M 108.42015,6.0939328 V 3.4128217 h 1.41112 c 1.05833,0 1.62277,0.4868333 1.62277,1.3405555 0,0.8466667 -0.56444,1.3405556 -1.62277,1.3405556 z"
         style="font-style:normal;font-variant:normal;font-weight:300;font-stretch:normal;font-family:Montserrat;-inkscape-font-specification:'Montserrat Light';fill:#000000;stroke-width:0.26458332px"
         id="path4622"
         inkscape:connector-curvature="0" />
      <path
         d="m 43.549065,12.232267 v -0.324556 h -3.302 V 16.8466 h 0.359834 v -2.180167 h 2.631722 v -0.324555 h -2.631722 v -2.109611 z"
         style="font-style:normal;font-variant:normal;font-weight:300;font-stretch:normal;font-family:Montserrat;-inkscape-font-specification:'Montserrat Light';fill:#000000;stroke-width:0.26458332px"
         id="path4624"
         inkscape:connector-curvature="0" />
      <path
         d="m 46.724727,16.881878 c 1.467555,0 2.568222,-1.065389 2.568222,-2.504722 0,-1.439334 -1.100667,-2.504723 -2.568222,-2.504723 -1.474612,0 -2.568223,1.072445 -2.568223,2.504723 0,1.432277 1.093611,2.504722 2.568223,2.504722 z m 0,-0.331611 c -1.262945,0 -2.208389,-0.924278 -2.208389,-2.173111 0,-1.248834 0.945444,-2.173111 2.208389,-2.173111 1.255888,0 2.201333,0.924277 2.201333,2.173111 0,1.248833 -0.945445,2.173111 -2.201333,2.173111 z"
         style="font-style:normal;font-variant:normal;font-weight:300;font-stretch:normal;font-family:Montserrat;-inkscape-font-specification:'Montserrat Light';fill:#000000;stroke-width:0.26458332px"
         id="path4626"
         inkscape:connector-curvature="0" />
      <path
         d="m 54.379233,16.8466 -1.234722,-1.728611 c 0.733777,-0.218722 1.157111,-0.762 1.157111,-1.545167 0,-1.044222 -0.747889,-1.665111 -1.989667,-1.665111 H 50.541011 V 16.8466 h 0.359833 v -1.615722 h 1.411111 c 0.169333,0 0.324556,-0.01411 0.479778,-0.03528 l 1.178278,1.651 z m -3.478389,-1.933222 v -2.681111 h 1.411111 c 1.058333,0 1.622778,0.486833 1.622778,1.340555 0,0.846667 -0.564445,1.340556 -1.622778,1.340556 z"
         style="font-style:normal;font-variant:normal;font-weight:300;font-stretch:normal;font-family:Montserrat;-inkscape-font-specification:'Montserrat Light';fill:#000000;stroke-width:0.26458332px"
         id="path4628"
         inkscape:connector-curvature="0" />
      <path
         d="m 56.924194,16.881878 c 1.220611,0 1.778,-0.606778 1.778,-1.305278 0,-1.792111 -3.083278,-0.917222 -3.083278,-2.398889 0,-0.543278 0.430389,-0.987778 1.389945,-0.987778 0.4445,0 0.945444,0.134056 1.354666,0.416278 l 0.134056,-0.289278 c -0.381,-0.275166 -0.945445,-0.4445 -1.488722,-0.4445 -1.213556,0 -1.749778,0.613834 -1.749778,1.312334 0,1.820333 3.083277,0.931333 3.083277,2.413 0,0.536222 -0.437444,0.966611 -1.425222,0.966611 -0.663222,0 -1.291166,-0.268111 -1.629833,-0.620889 L 55.125027,16.2116 c 0.359834,0.395111 1.065389,0.670278 1.799167,0.670278 z"
         style="font-style:normal;font-variant:normal;font-weight:300;font-stretch:normal;font-family:Montserrat;-inkscape-font-specification:'Montserrat Light';fill:#000000;stroke-width:0.26458332px"
         id="path4630"
         inkscape:connector-curvature="0" />
      <path
         d="m 62.013895,16.881878 c 0.6985,0 1.326444,-0.232834 1.756833,-0.691445 L 63.54495,15.9576 c -0.423333,0.416278 -0.938389,0.592667 -1.516944,0.592667 -1.262945,0 -2.215445,-0.931334 -2.215445,-2.173111 0,-1.241778 0.9525,-2.173111 2.215445,-2.173111 0.578555,0 1.093611,0.169333 1.516944,0.585611 l 0.225778,-0.232834 c -0.430389,-0.458611 -1.058333,-0.684389 -1.756833,-0.684389 -1.467556,0 -2.561167,1.065389 -2.561167,2.504723 0,1.439333 1.093611,2.504722 2.561167,2.504722 z"
         style="font-style:normal;font-variant:normal;font-weight:300;font-stretch:normal;font-family:Montserrat;-inkscape-font-specification:'Montserrat Light';fill:#000000;stroke-width:0.26458332px"
         id="path4632"
         inkscape:connector-curvature="0" />
      <path
         d="M 68.644683,11.907711 V 14.1796 h -3.302 V 11.907711 H 64.98285 V 16.8466 h 0.359833 v -2.3495 h 3.302 v 2.3495 h 0.359834 v -4.938889 z"
         style="font-style:normal;font-variant:normal;font-weight:300;font-stretch:normal;font-family:Montserrat;-inkscape-font-specification:'Montserrat Light';fill:#000000;stroke-width:0.26458332px"
         id="path4634"
         inkscape:connector-curvature="0" />
      <path
         d="m 72.662492,16.881878 c 1.227667,0 1.982611,-0.719667 1.982611,-2.130778 V 11.907711 H 74.28527 v 2.829278 c 0,1.234722 -0.585611,1.813278 -1.615722,1.813278 -1.030111,0 -1.622778,-0.578556 -1.622778,-1.813278 V 11.907711 H 70.686937 V 14.7511 c 0,1.411111 0.747888,2.130778 1.975555,2.130778 z"
         style="font-style:normal;font-variant:normal;font-weight:300;font-stretch:normal;font-family:Montserrat;-inkscape-font-specification:'Montserrat Light';fill:#000000;stroke-width:0.26458332px"
         id="path4636"
         inkscape:connector-curvature="0" />
      <path
         d="m 79.985936,11.907711 v 4.289778 L 76.627492,11.907711 H 76.324103 V 16.8466 h 0.359834 v -4.289778 l 3.365499,4.289778 h 0.296334 v -4.938889 z"
         style="font-style:normal;font-variant:normal;font-weight:300;font-stretch:normal;font-family:Montserrat;-inkscape-font-specification:'Montserrat Light';fill:#000000;stroke-width:0.26458332px"
         id="path4638"
         inkscape:connector-curvature="0" />
      <path
         d="m 85.598299,16.098711 c -0.402167,0.324556 -0.881944,0.451556 -1.404056,0.451556 -1.284111,0 -2.236611,-0.938389 -2.236611,-2.173111 0,-1.241778 0.9525,-2.173111 2.236611,-2.173111 0.599723,0 1.114778,0.162277 1.545167,0.585611 l 0.225778,-0.239889 c -0.437445,-0.451556 -1.065389,-0.677334 -1.778,-0.677334 -1.495778,0 -2.589389,1.065389 -2.589389,2.504723 0,1.439333 1.093611,2.504722 2.582333,2.504722 0.677334,0 1.319389,-0.211667 1.763889,-0.635 v -1.848556 h -0.345722 z"
         style="font-style:normal;font-variant:normal;font-weight:300;font-stretch:normal;font-family:Montserrat;-inkscape-font-specification:'Montserrat Light';fill:#000000;stroke-width:0.26458332px"
         id="path4641"
         inkscape:connector-curvature="0" />
      <path
         d="m 88.825775,16.881878 c 1.220611,0 1.778,-0.606778 1.778,-1.305278 0,-1.792111 -3.083278,-0.917222 -3.083278,-2.398889 0,-0.543278 0.430389,-0.987778 1.389944,-0.987778 0.4445,0 0.945445,0.134056 1.354667,0.416278 l 0.134056,-0.289278 c -0.381,-0.275166 -0.945445,-0.4445 -1.488723,-0.4445 -1.213555,0 -1.749777,0.613834 -1.749777,1.312334 0,1.820333 3.083277,0.931333 3.083277,2.413 0,0.536222 -0.437444,0.966611 -1.425222,0.966611 -0.663222,0 -1.291166,-0.268111 -1.629833,-0.620889 L 87.026608,16.2116 c 0.359833,0.395111 1.065389,0.670278 1.799167,0.670278 z"
         style="font-style:normal;font-variant:normal;font-weight:300;font-stretch:normal;font-family:Montserrat;-inkscape-font-specification:'Montserrat Light';fill:#000000;stroke-width:0.26458332px"
         id="path4643"
         inkscape:connector-curvature="0" />
      <path
         d="m 93.125255,16.881878 c 1.220611,0 1.778,-0.606778 1.778,-1.305278 0,-1.792111 -3.083278,-0.917222 -3.083278,-2.398889 0,-0.543278 0.430389,-0.987778 1.389945,-0.987778 0.4445,0 0.945444,0.134056 1.354666,0.416278 l 0.134056,-0.289278 c -0.381,-0.275166 -0.945444,-0.4445 -1.488722,-0.4445 -1.213556,0 -1.749778,0.613834 -1.749778,1.312334 0,1.820333 3.083278,0.931333 3.083278,2.413 0,0.536222 -0.437445,0.966611 -1.425222,0.966611 -0.663223,0 -1.291167,-0.268111 -1.629834,-0.620889 L 91.326089,16.2116 c 0.359833,0.395111 1.065388,0.670278 1.799166,0.670278 z"
         style="font-style:normal;font-variant:normal;font-weight:300;font-stretch:normal;font-family:Montserrat;-inkscape-font-specification:'Montserrat Light';fill:#000000;stroke-width:0.26458332px"
         id="path4645"
         inkscape:connector-curvature="0" />
      <path
         d="m 98.222013,16.881878 c 1.467556,0 2.568227,-1.065389 2.568227,-2.504722 0,-1.439334 -1.100671,-2.504723 -2.568227,-2.504723 -1.474611,0 -2.568222,1.072445 -2.568222,2.504723 0,1.432277 1.093611,2.504722 2.568222,2.504722 z m 0,-0.331611 c -1.262944,0 -2.208389,-0.924278 -2.208389,-2.173111 0,-1.248834 0.945445,-2.173111 2.208389,-2.173111 1.255889,0 2.201337,0.924277 2.201337,2.173111 0,1.248833 -0.945448,2.173111 -2.201337,2.173111 z"
         style="font-style:normal;font-variant:normal;font-weight:300;font-stretch:normal;font-family:Montserrat;-inkscape-font-specification:'Montserrat Light';fill:#000000;stroke-width:0.26458332px"
         id="path4647"
         inkscape:connector-curvature="0" />
      <path
         d="m 105.34029,12.232267 v -0.324556 h -3.302 V 16.8466 h 0.35984 v -2.180167 h 2.63172 v -0.324555 h -2.63172 v -2.109611 z"
         style="font-style:normal;font-variant:normal;font-weight:300;font-stretch:normal;font-family:Montserrat;-inkscape-font-specification:'Montserrat Light';fill:#000000;stroke-width:0.26458332px"
         id="path4649"
         inkscape:connector-curvature="0" />
      <path
         d="m 107.47615,16.8466 h 0.35983 v -4.614333 h 1.778 v -0.324556 h -3.91583 v 0.324556 h 1.778 z"
         style="font-style:normal;font-variant:normal;font-weight:300;font-stretch:normal;font-family:Montserrat;-inkscape-font-specification:'Montserrat Light';fill:#000000;stroke-width:0.26458332px"
         id="path4651"
         inkscape:connector-curvature="0" />
      <path
         d="m 116.72311,11.907711 -1.51694,4.452056 -1.53811,-4.452056 h -0.34573 l -1.54516,4.445 -1.50284,-4.445 h -0.381 l 1.67923,4.938889 h 0.381 l 1.53811,-4.430889 1.53105,4.430889 h 0.381 l 1.67217,-4.938889 z"
         style="font-style:normal;font-variant:normal;font-weight:300;font-stretch:normal;font-family:Montserrat;-inkscape-font-specification:'Montserrat Light';fill:#000000;stroke-width:0.26458332px"
         id="path4653"
         inkscape:connector-curvature="0" />
      <path
         d="m 121.65847,16.8466 h 0.38806 l -2.27189,-4.938889 h -0.35983 l -2.27189,4.938889 h 0.38805 l 0.62795,-1.389944 h 2.86455 z m -3.35844,-1.693333 1.29116,-2.850445 1.29823,2.850445 z"
         style="font-style:normal;font-variant:normal;font-weight:300;font-stretch:normal;font-family:Montserrat;-inkscape-font-specification:'Montserrat Light';fill:#000000;stroke-width:0.26458332px"
         id="path4655"
         inkscape:connector-curvature="0" />
      <path
         d="m 126.78136,16.8466 -1.23473,-1.728611 c 0.73378,-0.218722 1.15711,-0.762 1.15711,-1.545167 0,-1.044222 -0.74788,-1.665111 -1.98966,-1.665111 h -1.77095 V 16.8466 h 0.35984 v -1.615722 h 1.41111 c 0.16933,0 0.32455,-0.01411 0.47978,-0.03528 l 1.17827,1.651 z m -3.47839,-1.933222 v -2.681111 h 1.41111 c 1.05833,0 1.62278,0.486833 1.62278,1.340555 0,0.846667 -0.56445,1.340556 -1.62278,1.340556 z"
         style="font-style:normal;font-variant:normal;font-weight:300;font-stretch:normal;font-family:Montserrat;-inkscape-font-specification:'Montserrat Light';fill:#000000;stroke-width:0.26458332px"
         id="path4657"
         inkscape:connector-curvature="0" />
      <path
         d="M 128.38793,16.522044 V 14.4971 h 2.63172 v -0.3175 h -2.63172 v -1.947333 h 2.94216 v -0.324556 h -3.302 V 16.8466 h 3.40784 v -0.324556 z"
         style="font-style:normal;font-variant:normal;font-weight:300;font-stretch:normal;font-family:Montserrat;-inkscape-font-specification:'Montserrat Light';fill:#000000;stroke-width:0.26458332px"
         id="path4659"
         inkscape:connector-curvature="0" />
    </g>
  </g>
  <g
     inkscape:groupmode="layer"
     id="g4572"
     inkscape:label="Text_editable"
     style="display:none"
     transform="translate(-2.9736644,0.63494715)"
     sodipodi:insensitive="true">
    <path
       style="opacity:1;fill:none;fill-opacity:1;fill-rule:nonzero;stroke:#000000;stroke-width:0.26458332;stroke-linecap:butt;stroke-linejoin:round;stroke-miterlimit:4;stroke-dasharray:none;stroke-dashoffset:0;stroke-opacity:0.94117647;paint-order:stroke markers fill"
       d="M 32.764677,19.944809 H 3.0736646"
       id="path4570"
       inkscape:connector-curvature="0" />
    <text
       xml:space="preserve"
       style="font-style:normal;font-variant:normal;font-weight:normal;font-stretch:normal;font-size:2.28543472px;line-height:125%;font-family:Montserrat;-inkscape-font-specification:Montserrat;text-align:start;letter-spacing:0px;word-spacing:0px;writing-mode:lr-tb;text-anchor:start;fill:#00ff00;fill-opacity:1;stroke:none;stroke-width:0.08570381px;stroke-linecap:butt;stroke-linejoin:miter;stroke-opacity:1"
       x="2.9479659"
       y="23.796833"
       id="text4580"><tspan
         sodipodi:role="line"
         id="tspan4578"
         x="2.9479659"
         y="23.796833"
         style="font-style:normal;font-variant:normal;font-weight:300;font-stretch:normal;font-family:Montserrat;-inkscape-font-specification:'Montserrat Light';fill:#00ff00;stroke-width:0.08570381px">GESELLSCHAFT FÜR</tspan><tspan
         sodipodi:role="line"
         x="2.9479659"
         y="26.653625"
         style="font-style:normal;font-variant:normal;font-weight:300;font-stretch:normal;font-family:Montserrat;-inkscape-font-specification:'Montserrat Light';fill:#00ff00;stroke-width:0.08570381px"
         id="tspan4582">FORSCHUNGSSOFTWARE</tspan></text>
  </g>
  <g
     inkscape:groupmode="layer"
     id="layer4"
     inkscape:label="Helper_lines_alignment"
     style="display:none"
     transform="translate(-2.9736644,0.63494715)"
     sodipodi:insensitive="true">
    <path
       style="opacity:1;fill:#404040;fill-opacity:1;fill-rule:nonzero;stroke:#ff0000;stroke-width:0.23602873;stroke-linecap:butt;stroke-linejoin:round;stroke-miterlimit:4;stroke-dasharray:none;stroke-dashoffset:0;stroke-opacity:0.94117647;paint-order:stroke markers fill"
       d="M 12.17882,2.24689 H 3.9485717"
       id="path4640"
       inkscape:connector-curvature="0" />
    <path
       style="opacity:1;fill:#404040;fill-opacity:1;fill-rule:nonzero;stroke:#ff0000;stroke-width:0.26458332;stroke-linecap:butt;stroke-linejoin:round;stroke-miterlimit:4;stroke-dasharray:none;stroke-dashoffset:0;stroke-opacity:0.94117647;paint-order:stroke markers fill"
       d="M 7.7026071,9.9999098 V 2.24689"
       id="path4642"
       inkscape:connector-curvature="0" />
  </g>
</svg>
