<?xml version="1.0" encoding="UTF-8" standalone="no"?>
<svg
   xmlns:dc="http://purl.org/dc/elements/1.1/"
   xmlns:cc="http://creativecommons.org/ns#"
   xmlns:rdf="http://www.w3.org/1999/02/22-rdf-syntax-ns#"
   xmlns:svg="http://www.w3.org/2000/svg"
   xmlns="http://www.w3.org/2000/svg"
   version="1.1"
   id="svg9275"
   viewBox="0 0 469.16441 76.272246"
   height="21.525724mm"
   width="132.40863mm">
  <defs
     id="defs9277" />
  <metadata
     id="metadata9280">
    <rdf:RDF>
      <cc:Work
         rdf:about="">
        <dc:format>image/svg+xml</dc:format>
        <dc:type
           rdf:resource="http://purl.org/dc/dcmitype/StillImage" />
        <dc:title></dc:title>
      </cc:Work>
    </rdf:RDF>
  </metadata>
  <g
     transform="translate(-119.70349,-414.22608)"
     id="layer1">
    <text
       xml:space="preserve"
       style="font-style:normal;font-variant:normal;font-weight:normal;font-stretch:normal;font-size:24.483284px;line-height:125%;font-family:Montserrat;-inkscape-font-specification:Montserrat;text-align:start;letter-spacing:0px;word-spacing:0px;writing-mode:lr-tb;text-anchor:start;display:inline;fill:#000000;fill-opacity:1;stroke:none;stroke-width:0.23891759px;stroke-linecap:butt;stroke-linejoin:miter;stroke-opacity:1"
       x="258.81909"
       y="445.81369"
       id="text114"><tspan
         id="tspan110"
         x="258.81909"
         y="445.81369"
         style="font-style:normal;font-variant:normal;font-weight:300;font-stretch:normal;font-size:24.483284px;font-family:Montserrat;-inkscape-font-specification:'Montserrat Light';fill:#000000;stroke-width:0.23891759px">GESELLSCHAFT FÜR</tspan><tspan
         x="258.81909"
         y="476.41779"
         style="font-style:normal;font-variant:normal;font-weight:300;font-stretch:normal;font-size:24.483284px;font-family:Montserrat;-inkscape-font-specification:'Montserrat Light';fill:#000000;stroke-width:0.23891759px"
         id="tspan112">FORSCHUNGSSOFTWARE</tspan></text>
    <path
       id="path116"
       d="m 247.55179,424.91663 1.9822,0 0,54.95177 -1.9822,0 z"
       style="display:inline;opacity:1;fill:#000000;fill-opacity:1;fill-rule:nonzero;stroke:none;stroke-width:0.11509767;stroke-linecap:square;stroke-linejoin:round;stroke-miterlimit:4;stroke-dasharray:none;stroke-dashoffset:0;stroke-opacity:1;paint-order:stroke markers fill" />
    <g
       id="g5175"
       style="display:inline"
       transform="matrix(3.5433068,0,0,3.5433068,95.455544,184.76741)">
      <path
         style="opacity:1;fill:#621e4b;fill-opacity:1;fill-rule:nonzero;stroke:none;stroke-width:1.5;stroke-linecap:butt;stroke-linejoin:round;stroke-miterlimit:4;stroke-dasharray:none;stroke-dashoffset:0;stroke-opacity:0.95294118;paint-order:stroke markers fill"
         d="m 22.628899,77.084698 -3.57911,6.19859 8.95243,0 -5.3e-4,-5.3e-4 -1.79421,0 z"
         id="path164" />
      <path
         id="path160"
         d="m 14.573432,75.530792 4.476213,7.752497 3.579109,-6.198589 -0.897102,-1.553908 -0.875916,0 c -0.164603,0.381777 -0.461986,0.661505 -0.874366,0.821137 l 1.107427,1.651063 -0.945163,0 -0.903304,-1.496033 c -0.07056,0.0071 -0.148214,0.0072 -0.225827,0.0072 l -1.170987,0 0,1.488799 -0.833022,0 0,-2.4722 z m 3.270084,0 0,0.235643 1.170987,0 c 0.37184,0 0.665046,-0.07862 0.869199,-0.235643 z"
         style="opacity:1;fill:#892a69;fill-opacity:1;fill-rule:nonzero;stroke:none;stroke-width:1.5;stroke-linecap:butt;stroke-linejoin:round;stroke-miterlimit:4;stroke-dasharray:none;stroke-dashoffset:0;stroke-opacity:0.95294118;paint-order:stroke markers fill" />
      <path
         id="path162"
         d="m 19.049645,67.777775 -4.476213,7.753017 2.437062,0 0,-2.466518 2.004009,0 c 1.262946,0 1.989545,0.61376 1.989545,1.686203 0,0.293592 -0.05101,0.55462 -0.148312,0.780315 l 0.875916,0 -5.29e-4,-0.0011 0.897104,-1.553911 z m -1.206129,6.034257 0,1.71876 2.040186,0 c 0.214214,-0.164767 0.330213,-0.415931 0.330213,-0.759127 0,-0.649113 -0.437412,-0.959633 -1.199412,-0.959633 z"
         style="opacity:1;fill:#b03686;fill-opacity:1;fill-rule:nonzero;stroke:none;stroke-width:1.5;stroke-linecap:butt;stroke-linejoin:round;stroke-miterlimit:4;stroke-dasharray:none;stroke-dashoffset:0;stroke-opacity:0.95294118;paint-order:stroke markers fill" />
      <text
         id="text122"
         y="71.441391"
         x="9.6161213"
         style="font-style:normal;font-variant:normal;font-weight:normal;font-stretch:normal;font-size:3.54523301px;line-height:125%;font-family:Montserrat;-inkscape-font-specification:Montserrat;text-align:start;letter-spacing:0px;word-spacing:0px;writing-mode:lr-tb;text-anchor:start;display:inline;fill:#7e2560;fill-opacity:0.94117647;stroke:none;stroke-width:0.12258349px;stroke-linecap:butt;stroke-linejoin:miter;stroke-opacity:1"
         xml:space="preserve"><tspan
           id="tspan120"
           style="font-style:normal;font-variant:normal;font-weight:normal;font-stretch:normal;font-size:4.93888903px;font-family:Montserrat;-inkscape-font-specification:Montserrat;fill:#7e2560;fill-opacity:0.94117647;stroke-width:0.12258349px"
           y="71.441391"
           x="9.6161213">de</tspan></text>
      <path
         style="opacity:1;fill:#621e4b;fill-opacity:1;fill-rule:nonzero;stroke:none;stroke-width:1.5;stroke-linecap:butt;stroke-linejoin:round;stroke-miterlimit:4;stroke-dasharray:none;stroke-dashoffset:0;stroke-opacity:0.95294118;paint-order:stroke markers fill"
         d="m 28.001699,67.776748 3.57911,6.19858 3.57911,-6.19858 z"
         id="path150" />
      <path
         id="path154"
         d="m 35.159772,67.776743 -3.578592,6.199103 0.896585,1.553395 0.875917,0 0,-2.464967 3.527948,0 0,0.747758 -2.695442,0 0,1.333254 2.413291,0 0,0.383955 3.036506,0 z"
         style="opacity:1;fill:#892a69;fill-opacity:1;fill-rule:nonzero;stroke:none;stroke-width:1.5;stroke-linecap:butt;stroke-linejoin:round;stroke-miterlimit:4;stroke-dasharray:none;stroke-dashoffset:0;stroke-opacity:0.95294118;paint-order:stroke markers fill" />
      <path
         id="path124"
         d="m 28.001699,67.776748 3.57911,6.19858 3.57911,-6.19858 z"
         style="opacity:1;fill:#621e4b;fill-opacity:1;fill-rule:nonzero;stroke:none;stroke-width:1.5;stroke-linecap:butt;stroke-linejoin:round;stroke-miterlimit:4;stroke-dasharray:none;stroke-dashoffset:0;stroke-opacity:0.95294118;paint-order:stroke markers fill" />
      <path
         style="opacity:1;fill:#c94fa0;fill-opacity:1;fill-rule:nonzero;stroke:none;stroke-width:1.5;stroke-linecap:butt;stroke-linejoin:round;stroke-miterlimit:4;stroke-dasharray:none;stroke-dashoffset:0;stroke-opacity:0.95294118;paint-order:stroke markers fill"
         d="m 31.581319,77.084188 -2.67942,4.64157 -1.79627,0.002 0.89762,1.55495 7.15667,-5.2e-4 z"
         id="path156" />
      <path
         style="opacity:1;fill:#b03586;fill-opacity:1;fill-rule:nonzero;stroke:none;stroke-width:1.5;stroke-linecap:butt;stroke-linejoin:round;stroke-miterlimit:4;stroke-dasharray:none;stroke-dashoffset:0;stroke-opacity:0.95294118;paint-order:stroke markers fill"
         d="m 32.478281,75.529757 -0.897101,1.553911 3.579108,6.199106 4.475697,-7.753017 -3.036506,0 0,0.363802 -2.413291,0 0,1.361676 2.780191,0 0,0.747757 -3.612697,0 0,-2.473235 z"
         id="path126" />
      <path
         style="opacity:1;fill:#892968;fill-opacity:1;fill-rule:nonzero;stroke:none;stroke-width:1.5;stroke-linecap:butt;stroke-linejoin:round;stroke-miterlimit:4;stroke-dasharray:none;stroke-dashoffset:0;stroke-opacity:0.95294118;paint-order:stroke markers fill"
         d="m 35.159772,67.776743 -3.578592,6.199103 0.896585,1.553395 0.875917,0 0,-2.464967 3.527948,0 0,0.747758 -2.695442,0 0,1.333254 2.413291,0 0,0.383955 3.036506,0 z"
         id="path128" />
      <path
         id="path130"
         d="m 31.581319,77.084188 -2.67942,4.64157 -1.79627,0.002 0.89762,1.55495 7.15667,-5.2e-4 z"
         style="opacity:1;fill:#c94fa0;fill-opacity:1;fill-rule:nonzero;stroke:none;stroke-width:1.5;stroke-linecap:butt;stroke-linejoin:round;stroke-miterlimit:4;stroke-dasharray:none;stroke-dashoffset:0;stroke-opacity:0.95294118;paint-order:stroke markers fill" />
      <path
         style="opacity:1;fill:#c94fa0;fill-opacity:1;fill-rule:nonzero;stroke:none;stroke-width:1.5;stroke-linecap:butt;stroke-linejoin:round;stroke-miterlimit:4;stroke-dasharray:none;stroke-dashoffset:0;stroke-opacity:0.95294118;paint-order:stroke markers fill"
         d="m 19.049789,67.777778 3.57859,6.19807 2.68097,-4.64313 1.79524,0 -0.89762,-1.55494 z"
         id="path158" />
      <path
         id="path132"
         d="m 19.049789,67.777778 3.57859,6.19807 2.68097,-4.64313 1.79524,0 -0.89762,-1.55494 z"
         style="opacity:1;fill:#000000;fill-opacity:0;fill-rule:nonzero;stroke:none;stroke-width:1.5;stroke-linecap:butt;stroke-linejoin:round;stroke-miterlimit:4;stroke-dasharray:none;stroke-dashoffset:0;stroke-opacity:0.95294118;paint-order:stroke markers fill" />
      <path
         style="opacity:1;fill:#892968;fill-opacity:1;fill-rule:nonzero;stroke:none;stroke-width:1.5;stroke-linecap:butt;stroke-linejoin:round;stroke-miterlimit:4;stroke-dasharray:none;stroke-dashoffset:0;stroke-opacity:0.95294118;paint-order:stroke markers fill"
         d="m 14.573432,75.530792 4.476213,7.752497 3.579109,-6.198589 -0.897102,-1.553908 -0.875916,0 c -0.164603,0.381777 -0.461986,0.661505 -0.874366,0.821137 l 1.107427,1.651063 -0.945163,0 -0.903304,-1.496033 c -0.07056,0.0071 -0.148214,0.0072 -0.225827,0.0072 l -1.170987,0 0,1.488799 -0.833022,0 0,-2.4722 z m 3.270084,0 0,0.235643 1.170987,0 c 0.37184,0 0.665046,-0.07862 0.869199,-0.235643 z"
         id="path134" />
      <path
         style="opacity:1;fill:#b03586;fill-opacity:1;fill-rule:nonzero;stroke:none;stroke-width:1.5;stroke-linecap:butt;stroke-linejoin:round;stroke-miterlimit:4;stroke-dasharray:none;stroke-dashoffset:0;stroke-opacity:0.95294118;paint-order:stroke markers fill"
         d="m 19.049645,67.777775 -4.476213,7.753017 2.437062,0 0,-2.466518 2.004009,0 c 1.262946,0 1.989545,0.61376 1.989545,1.686203 0,0.293592 -0.05101,0.55462 -0.148312,0.780315 l 0.875916,0 -5.29e-4,-0.0011 0.897104,-1.553911 z m -1.206129,6.034257 0,1.71876 2.040186,0 c 0.214214,-0.164767 0.330213,-0.415931 0.330213,-0.759127 0,-0.649113 -0.437412,-0.959633 -1.199412,-0.959633 z"
         id="path136" />
      <path
         id="path138"
         d="m 22.628899,77.084698 -3.57911,6.19859 8.95243,0 -5.3e-4,-5.3e-4 -1.79421,0 z"
         style="opacity:1;fill:#621e4b;fill-opacity:1;fill-rule:nonzero;stroke:none;stroke-width:1.5;stroke-linecap:butt;stroke-linejoin:round;stroke-miterlimit:4;stroke-dasharray:none;stroke-dashoffset:0;stroke-opacity:0.95294118;paint-order:stroke markers fill" />
      <text
         id="text142"
         y="78.002998"
         x="24.981119"
         style="font-style:normal;font-variant:normal;font-weight:normal;font-stretch:normal;font-size:7.05555534px;line-height:125%;font-family:Montserrat;-inkscape-font-specification:Montserrat;text-align:start;letter-spacing:0px;word-spacing:0px;writing-mode:lr-tb;text-anchor:start;fill:#621e4b;fill-opacity:1;stroke:none;stroke-width:0.26458332px;stroke-linecap:butt;stroke-linejoin:miter;stroke-opacity:1"
         xml:space="preserve"><tspan
           style="fill:#621e4b;fill-opacity:1;stroke-width:0.26458332px"
           y="78.002998"
           x="24.981119"
           id="tspan140">S</tspan></text>
      <text
         xml:space="preserve"
         style="font-style:normal;font-variant:normal;font-weight:normal;font-stretch:normal;font-size:3.54523301px;line-height:125%;font-family:Montserrat;-inkscape-font-specification:Montserrat;text-align:start;letter-spacing:0px;word-spacing:0px;writing-mode:lr-tb;text-anchor:start;display:inline;fill:#621e4b;fill-opacity:1;stroke:none;stroke-width:0.12258349px;stroke-linecap:butt;stroke-linejoin:miter;stroke-opacity:1"
         x="9.6161194"
         y="71.441391"
         id="text148"><tspan
           x="9.6161194"
           y="71.441391"
           style="font-style:normal;font-variant:normal;font-weight:normal;font-stretch:normal;font-size:4.93888903px;font-family:Montserrat;-inkscape-font-specification:Montserrat;fill:#621e4b;fill-opacity:1;stroke-width:0.12258349px"
           id="tspan146">de</tspan></text>
      <text
         xml:space="preserve"
         style="font-style:normal;font-variant:normal;font-weight:normal;font-stretch:normal;font-size:7.05555534px;line-height:125%;font-family:Montserrat;-inkscape-font-specification:Montserrat;text-align:start;letter-spacing:0px;word-spacing:0px;writing-mode:lr-tb;text-anchor:start;fill:#621e4b;fill-opacity:1;stroke:none;stroke-width:0.26458332px;stroke-linecap:butt;stroke-linejoin:miter;stroke-opacity:1"
         x="24.981119"
         y="78.002991"
         id="text168"><tspan
           id="tspan166"
           x="24.981119"
           y="78.002991"
           style="fill:#621e4b;fill-opacity:1;stroke-width:0.26458332px">S</tspan></text>
      <path
         id="path5058"
         d="m 32.478281,75.529757 -0.897101,1.553911 3.579108,6.199106 4.475697,-7.753017 -3.036506,0 0,0.363802 -2.413291,0 0,1.361676 2.780191,0 0,0.747757 -3.612697,0 0,-2.473235 z"
         style="opacity:1;fill:#b03586;fill-opacity:1;fill-rule:nonzero;stroke:none;stroke-width:1.5;stroke-linecap:butt;stroke-linejoin:round;stroke-miterlimit:4;stroke-dasharray:none;stroke-dashoffset:0;stroke-opacity:0.95294118;paint-order:stroke markers fill" />
    </g>
    <text
       id="text9885"
       y="445.81369"
       x="258.81909"
       style="font-style:normal;font-variant:normal;font-weight:normal;font-stretch:normal;font-size:24.483284px;line-height:125%;font-family:Montserrat;-inkscape-font-specification:Montserrat;text-align:start;letter-spacing:0px;word-spacing:0px;writing-mode:lr-tb;text-anchor:start;display:inline;fill:#000000;fill-opacity:1;stroke:none;stroke-width:0.23891759px;stroke-linecap:butt;stroke-linejoin:miter;stroke-opacity:1"
       xml:space="preserve"><tspan
         style="font-style:normal;font-variant:normal;font-weight:300;font-stretch:normal;font-size:24.483284px;font-family:Montserrat;-inkscape-font-specification:'Montserrat Light';fill:#000000;stroke-width:0.23891759px"
         y="445.81369"
         x="258.81909"
         id="tspan9887">GESELLSCHAFT FÜR</tspan><tspan
         id="tspan9889"
         style="font-style:normal;font-variant:normal;font-weight:300;font-stretch:normal;font-size:24.483284px;font-family:Montserrat;-inkscape-font-specification:'Montserrat Light';fill:#000000;stroke-width:0.23891759px"
         y="476.41779"
         x="258.81909">FORSCHUNGSSOFTWARE</tspan></text>
    <path
       style="display:inline;opacity:1;fill:#000000;fill-opacity:1;fill-rule:nonzero;stroke:none;stroke-width:0.11509767;stroke-linecap:square;stroke-linejoin:round;stroke-miterlimit:4;stroke-dasharray:none;stroke-dashoffset:0;stroke-opacity:1;paint-order:stroke markers fill"
       d="m 247.55179,424.91663 1.9822,0 0,54.95177 -1.9822,0 z"
       id="path9891" />
    <g
       transform="matrix(3.5433068,0,0,3.5433068,95.455544,184.76741)"
       style="display:inline"
       id="g9893">
      <path
         id="path9895"
         d="m 22.628899,77.084698 -3.57911,6.19859 8.95243,0 -5.3e-4,-5.3e-4 -1.79421,0 z"
         style="opacity:1;fill:#621e4b;fill-opacity:1;fill-rule:nonzero;stroke:none;stroke-width:1.5;stroke-linecap:butt;stroke-linejoin:round;stroke-miterlimit:4;stroke-dasharray:none;stroke-dashoffset:0;stroke-opacity:0.95294118;paint-order:stroke markers fill" />
      <path
         style="opacity:1;fill:#892a69;fill-opacity:1;fill-rule:nonzero;stroke:none;stroke-width:1.5;stroke-linecap:butt;stroke-linejoin:round;stroke-miterlimit:4;stroke-dasharray:none;stroke-dashoffset:0;stroke-opacity:0.95294118;paint-order:stroke markers fill"
         d="m 14.573432,75.530792 4.476213,7.752497 3.579109,-6.198589 -0.897102,-1.553908 -0.875916,0 c -0.164603,0.381777 -0.461986,0.661505 -0.874366,0.821137 l 1.107427,1.651063 -0.945163,0 -0.903304,-1.496033 c -0.07056,0.0071 -0.148214,0.0072 -0.225827,0.0072 l -1.170987,0 0,1.488799 -0.833022,0 0,-2.4722 z m 3.270084,0 0,0.235643 1.170987,0 c 0.37184,0 0.665046,-0.07862 0.869199,-0.235643 z"
         id="path9897" />
      <path
         style="opacity:1;fill:#b03686;fill-opacity:1;fill-rule:nonzero;stroke:none;stroke-width:1.5;stroke-linecap:butt;stroke-linejoin:round;stroke-miterlimit:4;stroke-dasharray:none;stroke-dashoffset:0;stroke-opacity:0.95294118;paint-order:stroke markers fill"
         d="m 19.049645,67.777775 -4.476213,7.753017 2.437062,0 0,-2.466518 2.004009,0 c 1.262946,0 1.989545,0.61376 1.989545,1.686203 0,0.293592 -0.05101,0.55462 -0.148312,0.780315 l 0.875916,0 -5.29e-4,-0.0011 0.897104,-1.553911 z m -1.206129,6.034257 0,1.71876 2.040186,0 c 0.214214,-0.164767 0.330213,-0.415931 0.330213,-0.759127 0,-0.649113 -0.437412,-0.959633 -1.199412,-0.959633 z"
         id="path9899" />
      <text
         xml:space="preserve"
         style="font-style:normal;font-variant:normal;font-weight:normal;font-stretch:normal;font-size:3.54523301px;line-height:125%;font-family:Montserrat;-inkscape-font-specification:Montserrat;text-align:start;letter-spacing:0px;word-spacing:0px;writing-mode:lr-tb;text-anchor:start;display:inline;fill:#7e2560;fill-opacity:0.94117647;stroke:none;stroke-width:0.12258349px;stroke-linecap:butt;stroke-linejoin:miter;stroke-opacity:1"
         x="9.6161213"
         y="71.441391"
         id="text9901"><tspan
           x="9.6161213"
           y="71.441391"
           style="font-style:normal;font-variant:normal;font-weight:normal;font-stretch:normal;font-size:4.93888903px;font-family:Montserrat;-inkscape-font-specification:Montserrat;fill:#7e2560;fill-opacity:0.94117647;stroke-width:0.12258349px"
           id="tspan9903">de</tspan></text>
      <path
         id="path9905"
         d="m 28.001699,67.776748 3.57911,6.19858 3.57911,-6.19858 z"
         style="opacity:1;fill:#621e4b;fill-opacity:1;fill-rule:nonzero;stroke:none;stroke-width:1.5;stroke-linecap:butt;stroke-linejoin:round;stroke-miterlimit:4;stroke-dasharray:none;stroke-dashoffset:0;stroke-opacity:0.95294118;paint-order:stroke markers fill" />
      <path
         style="opacity:1;fill:#892a69;fill-opacity:1;fill-rule:nonzero;stroke:none;stroke-width:1.5;stroke-linecap:butt;stroke-linejoin:round;stroke-miterlimit:4;stroke-dasharray:none;stroke-dashoffset:0;stroke-opacity:0.95294118;paint-order:stroke markers fill"
         d="m 35.159772,67.776743 -3.578592,6.199103 0.896585,1.553395 0.875917,0 0,-2.464967 3.527948,0 0,0.747758 -2.695442,0 0,1.333254 2.413291,0 0,0.383955 3.036506,0 z"
         id="path9907" />
      <path
         style="opacity:1;fill:#621e4b;fill-opacity:1;fill-rule:nonzero;stroke:none;stroke-width:1.5;stroke-linecap:butt;stroke-linejoin:round;stroke-miterlimit:4;stroke-dasharray:none;stroke-dashoffset:0;stroke-opacity:0.95294118;paint-order:stroke markers fill"
         d="m 28.001699,67.776748 3.57911,6.19858 3.57911,-6.19858 z"
         id="path9909" />
      <path
         id="path9911"
         d="m 31.581319,77.084188 -2.67942,4.64157 -1.79627,0.002 0.89762,1.55495 7.15667,-5.2e-4 z"
         style="opacity:1;fill:#c94fa0;fill-opacity:1;fill-rule:nonzero;stroke:none;stroke-width:1.5;stroke-linecap:butt;stroke-linejoin:round;stroke-miterlimit:4;stroke-dasharray:none;stroke-dashoffset:0;stroke-opacity:0.95294118;paint-order:stroke markers fill" />
      <path
         id="path9913"
         d="m 32.478281,75.529757 -0.897101,1.553911 3.579108,6.199106 4.475697,-7.753017 -3.036506,0 0,0.363802 -2.413291,0 0,1.361676 2.780191,0 0,0.747757 -3.612697,0 0,-2.473235 z"
         style="opacity:1;fill:#b03586;fill-opacity:1;fill-rule:nonzero;stroke:none;stroke-width:1.5;stroke-linecap:butt;stroke-linejoin:round;stroke-miterlimit:4;stroke-dasharray:none;stroke-dashoffset:0;stroke-opacity:0.95294118;paint-order:stroke markers fill" />
      <path
         id="path9915"
         d="m 35.159772,67.776743 -3.578592,6.199103 0.896585,1.553395 0.875917,0 0,-2.464967 3.527948,0 0,0.747758 -2.695442,0 0,1.333254 2.413291,0 0,0.383955 3.036506,0 z"
         style="opacity:1;fill:#892968;fill-opacity:1;fill-rule:nonzero;stroke:none;stroke-width:1.5;stroke-linecap:butt;stroke-linejoin:round;stroke-miterlimit:4;stroke-dasharray:none;stroke-dashoffset:0;stroke-opacity:0.95294118;paint-order:stroke markers fill" />
      <path
         style="opacity:1;fill:#c94fa0;fill-opacity:1;fill-rule:nonzero;stroke:none;stroke-width:1.5;stroke-linecap:butt;stroke-linejoin:round;stroke-miterlimit:4;stroke-dasharray:none;stroke-dashoffset:0;stroke-opacity:0.95294118;paint-order:stroke markers fill"
         d="m 31.581319,77.084188 -2.67942,4.64157 -1.79627,0.002 0.89762,1.55495 7.15667,-5.2e-4 z"
         id="path9917" />
      <path
         id="path9919"
         d="m 19.049789,67.777778 3.57859,6.19807 2.68097,-4.64313 1.79524,0 -0.89762,-1.55494 z"
         style="opacity:1;fill:#c94fa0;fill-opacity:1;fill-rule:nonzero;stroke:none;stroke-width:1.5;stroke-linecap:butt;stroke-linejoin:round;stroke-miterlimit:4;stroke-dasharray:none;stroke-dashoffset:0;stroke-opacity:0.95294118;paint-order:stroke markers fill" />
      <path
         style="opacity:1;fill:#000000;fill-opacity:0;fill-rule:nonzero;stroke:none;stroke-width:1.5;stroke-linecap:butt;stroke-linejoin:round;stroke-miterlimit:4;stroke-dasharray:none;stroke-dashoffset:0;stroke-opacity:0.95294118;paint-order:stroke markers fill"
         d="m 19.049789,67.777778 3.57859,6.19807 2.68097,-4.64313 1.79524,0 -0.89762,-1.55494 z"
         id="path9921" />
      <path
         id="path9923"
         d="m 14.573432,75.530792 4.476213,7.752497 3.579109,-6.198589 -0.897102,-1.553908 -0.875916,0 c -0.164603,0.381777 -0.461986,0.661505 -0.874366,0.821137 l 1.107427,1.651063 -0.945163,0 -0.903304,-1.496033 c -0.07056,0.0071 -0.148214,0.0072 -0.225827,0.0072 l -1.170987,0 0,1.488799 -0.833022,0 0,-2.4722 z m 3.270084,0 0,0.235643 1.170987,0 c 0.37184,0 0.665046,-0.07862 0.869199,-0.235643 z"
         style="opacity:1;fill:#892968;fill-opacity:1;fill-rule:nonzero;stroke:none;stroke-width:1.5;stroke-linecap:butt;stroke-linejoin:round;stroke-miterlimit:4;stroke-dasharray:none;stroke-dashoffset:0;stroke-opacity:0.95294118;paint-order:stroke markers fill" />
      <path
         id="path9925"
         d="m 19.049645,67.777775 -4.476213,7.753017 2.437062,0 0,-2.466518 2.004009,0 c 1.262946,0 1.989545,0.61376 1.989545,1.686203 0,0.293592 -0.05101,0.55462 -0.148312,0.780315 l 0.875916,0 -5.29e-4,-0.0011 0.897104,-1.553911 z m -1.206129,6.034257 0,1.71876 2.040186,0 c 0.214214,-0.164767 0.330213,-0.415931 0.330213,-0.759127 0,-0.649113 -0.437412,-0.959633 -1.199412,-0.959633 z"
         style="opacity:1;fill:#b03586;fill-opacity:1;fill-rule:nonzero;stroke:none;stroke-width:1.5;stroke-linecap:butt;stroke-linejoin:round;stroke-miterlimit:4;stroke-dasharray:none;stroke-dashoffset:0;stroke-opacity:0.95294118;paint-order:stroke markers fill" />
      <path
         style="opacity:1;fill:#621e4b;fill-opacity:1;fill-rule:nonzero;stroke:none;stroke-width:1.5;stroke-linecap:butt;stroke-linejoin:round;stroke-miterlimit:4;stroke-dasharray:none;stroke-dashoffset:0;stroke-opacity:0.95294118;paint-order:stroke markers fill"
         d="m 22.628899,77.084698 -3.57911,6.19859 8.95243,0 -5.3e-4,-5.3e-4 -1.79421,0 z"
         id="path9927" />
      <text
         xml:space="preserve"
         style="font-style:normal;font-variant:normal;font-weight:normal;font-stretch:normal;font-size:7.05555534px;line-height:125%;font-family:Montserrat;-inkscape-font-specification:Montserrat;text-align:start;letter-spacing:0px;word-spacing:0px;writing-mode:lr-tb;text-anchor:start;fill:#621e4b;fill-opacity:1;stroke:none;stroke-width:0.26458332px;stroke-linecap:butt;stroke-linejoin:miter;stroke-opacity:1"
         x="24.981119"
         y="78.002998"
         id="text9929"><tspan
           id="tspan9931"
           x="24.981119"
           y="78.002998"
           style="fill:#621e4b;fill-opacity:1;stroke-width:0.26458332px">S</tspan></text>
      <text
         id="text9933"
         y="71.441391"
         x="9.6161194"
         style="font-style:normal;font-variant:normal;font-weight:normal;font-stretch:normal;font-size:3.54523301px;line-height:125%;font-family:Montserrat;-inkscape-font-specification:Montserrat;text-align:start;letter-spacing:0px;word-spacing:0px;writing-mode:lr-tb;text-anchor:start;display:inline;fill:#621e4b;fill-opacity:1;stroke:none;stroke-width:0.12258349px;stroke-linecap:butt;stroke-linejoin:miter;stroke-opacity:1"
         xml:space="preserve"><tspan
           id="tspan9935"
           style="font-style:normal;font-variant:normal;font-weight:normal;font-stretch:normal;font-size:4.93888903px;font-family:Montserrat;-inkscape-font-specification:Montserrat;fill:#621e4b;fill-opacity:1;stroke-width:0.12258349px"
           y="71.441391"
           x="9.6161194">de</tspan></text>
      <text
         id="text9937"
         y="78.002991"
         x="24.981119"
         style="font-style:normal;font-variant:normal;font-weight:normal;font-stretch:normal;font-size:7.05555534px;line-height:125%;font-family:Montserrat;-inkscape-font-specification:Montserrat;text-align:start;letter-spacing:0px;word-spacing:0px;writing-mode:lr-tb;text-anchor:start;fill:#621e4b;fill-opacity:1;stroke:none;stroke-width:0.26458332px;stroke-linecap:butt;stroke-linejoin:miter;stroke-opacity:1"
         xml:space="preserve"><tspan
           style="fill:#621e4b;fill-opacity:1;stroke-width:0.26458332px"
           y="78.002991"
           x="24.981119"
           id="tspan9939">S</tspan></text>
      <path
         style="opacity:1;fill:#b03586;fill-opacity:1;fill-rule:nonzero;stroke:none;stroke-width:1.5;stroke-linecap:butt;stroke-linejoin:round;stroke-miterlimit:4;stroke-dasharray:none;stroke-dashoffset:0;stroke-opacity:0.95294118;paint-order:stroke markers fill"
         d="m 32.478281,75.529757 -0.897101,1.553911 3.579108,6.199106 4.475697,-7.753017 -3.036506,0 0,0.363802 -2.413291,0 0,1.361676 2.780191,0 0,0.747757 -3.612697,0 0,-2.473235 z"
         id="path9941" />
    </g>
  </g>
</svg>
