<?xml version="1.0" encoding="UTF-8" standalone="no"?>
<svg
   xmlns:dc="http://purl.org/dc/elements/1.1/"
   xmlns:cc="http://creativecommons.org/ns#"
   xmlns:rdf="http://www.w3.org/1999/02/22-rdf-syntax-ns#"
   xmlns:svg="http://www.w3.org/2000/svg"
   xmlns="http://www.w3.org/2000/svg"
   width="29.495649mm"
   height="15.593273mm"
   viewBox="0 0 104.51214 55.251751"
   id="svg9275"
   version="1.1">
  <defs
     id="defs9277" />
  <metadata
     id="metadata9280">
    <rdf:RDF>
      <cc:Work
         rdf:about="">
        <dc:format>image/svg+xml</dc:format>
        <dc:type
           rdf:resource="http://purl.org/dc/dcmitype/StillImage" />
        <dc:title></dc:title>
      </cc:Work>
    </rdf:RDF>
  </metadata>
  <text
     xml:space="preserve"
     style="font-style:normal;font-variant:normal;font-weight:normal;font-stretch:normal;font-size:12.56184864px;line-height:125%;font-family:Montserrat;-inkscape-font-specification:Montserrat;text-align:start;letter-spacing:0px;word-spacing:0px;writing-mode:lr-tb;text-anchor:start;display:inline;fill:#621e4b;fill-opacity:1;stroke:none;stroke-width:0.43435094px;stroke-linecap:butt;stroke-linejoin:miter;stroke-opacity:1"
     x="-1.8574647"
     y="13.292202"
     id="text9933"><tspan
       x="-1.8574647"
       y="13.292202"
       style="font-style:normal;font-variant:normal;font-weight:200;font-stretch:normal;font-size:17.5px;font-family:Montserrat;-inkscape-font-specification:'Montserrat Ultra-Light';fill:#621e4b;fill-opacity:1;stroke-width:0.43435094px"
       id="tspan9935" /></text>
  <g
     transform="translate(-11.68238,-10.387893)"
     id="g4913">
    <path
       style="opacity:1;fill:#621e4b;fill-opacity:1;fill-rule:nonzero;stroke:none;stroke-width:5.31496;stroke-linecap:butt;stroke-linejoin:round;stroke-miterlimit:4;stroke-dasharray:none;stroke-dashoffset:0;stroke-opacity:0.95294118;paint-order:stroke markers fill"
       d="M 55.933222,43.676144 43.251339,65.639642 h 25.361936 v -0.0019 z"
       id="path9895" />
    <path
       id="path160"
       d="M 27.390195,38.170099 43.250791,65.639574 55.932672,43.676072 52.753964,38.170099 h -3.103639 c -0.583239,1.352753 -1.636958,2.343915 -3.098147,2.90954 l 3.923954,5.850223 h -3.349003 l -3.200683,-5.300904 c -0.250016,0.02516 -0.525168,0.02551 -0.800174,0.02551 h -4.149166 v 5.275272 h -2.951653 v -8.759764 z m 11.586911,0 v 0.834955 h 4.149166 c 1.317543,0 2.356462,-0.278574 3.079839,-0.834955 z"
       style="opacity:1;fill:#892a69;fill-opacity:1;fill-rule:nonzero;stroke:none;stroke-width:5.31496;stroke-linecap:butt;stroke-linejoin:round;stroke-miterlimit:4;stroke-dasharray:none;stroke-dashoffset:0;stroke-opacity:0.95294118;paint-order:stroke markers fill" />
    <path
       id="path162"
       d="M 43.250791,10.698781 27.390195,38.170099 h 8.635258 v -8.73963 h 7.100819 c 4.475005,0 7.049568,2.17474 7.049568,5.974734 0,1.040287 -0.180744,1.965189 -0.525515,2.764896 h 3.103639 l -0.0019,-0.0039 3.178715,-5.505983 z m -4.273685,21.381224 v 6.090094 h 7.229005 c 0.759025,-0.58382 1.170045,-1.473771 1.170045,-2.68982 0,-2.300006 -1.549884,-3.400274 -4.249884,-3.400274 z"
       style="opacity:1;fill:#b03686;fill-opacity:1;fill-rule:nonzero;stroke:none;stroke-width:5.31496;stroke-linecap:butt;stroke-linejoin:round;stroke-miterlimit:4;stroke-dasharray:none;stroke-dashoffset:0;stroke-opacity:0.95294118;paint-order:stroke markers fill" />
    <path
       style="opacity:1;fill:#621e4b;fill-opacity:1;fill-rule:nonzero;stroke:none;stroke-width:5.31496;stroke-linecap:butt;stroke-linejoin:round;stroke-miterlimit:4;stroke-dasharray:none;stroke-dashoffset:0;stroke-opacity:0.95294118;paint-order:stroke markers fill"
       d="M 74.970664,10.695142 87.652549,32.658613 100.33443,10.695142 Z"
       id="path150" />
    <path
       id="path154"
       d="m 100.33391,10.695124 -12.680046,21.965324 3.176876,5.504155 h 3.103642 v -8.734134 h 12.500598 v 2.649536 h -9.550774 v 4.724128 h 8.551034 v 1.36047 h 10.75927 z"
       style="opacity:1;fill:#892a69;fill-opacity:1;fill-rule:nonzero;stroke:none;stroke-width:5.31496;stroke-linecap:butt;stroke-linejoin:round;stroke-miterlimit:4;stroke-dasharray:none;stroke-dashoffset:0;stroke-opacity:0.95294118;paint-order:stroke markers fill" />
    <path
       style="opacity:1;fill:#c94fa0;fill-opacity:1;fill-rule:nonzero;stroke:none;stroke-width:5.31496;stroke-linecap:butt;stroke-linejoin:round;stroke-miterlimit:4;stroke-dasharray:none;stroke-dashoffset:0;stroke-opacity:0.95294118;paint-order:stroke markers fill"
       d="m 87.654356,43.674258 -9.494007,16.446506 -6.364735,0.0071 3.180543,5.509665 25.358273,-0.0018 z"
       id="path156" />
    <path
       style="opacity:1;fill:#b03586;fill-opacity:1;fill-rule:nonzero;stroke:none;stroke-width:5.31496;stroke-linecap:butt;stroke-linejoin:round;stroke-miterlimit:4;stroke-dasharray:none;stroke-dashoffset:0;stroke-opacity:0.95294118;paint-order:stroke markers fill"
       d="m 90.832568,38.166432 -3.178704,5.505983 12.681876,21.965334 15.85877,-27.471317 h -10.75927 v 1.289062 h -8.551034 v 4.824836 h 9.851074 v 2.649532 H 93.934382 v -8.76343 z"
       id="path126" />
    <text
       id="text4700"
       y="46.929859"
       x="64.267822"
       style="font-style:normal;font-variant:normal;font-weight:200;font-stretch:normal;font-size:24.99999619px;line-height:125%;font-family:Montserrat;-inkscape-font-specification:'Montserrat Ultra-Light';text-align:start;letter-spacing:0px;word-spacing:0px;writing-mode:lr-tb;text-anchor:start;fill:#621e4b;fill-opacity:1;stroke:none;stroke-width:0.93749988px;stroke-linecap:butt;stroke-linejoin:miter;stroke-opacity:1"
       xml:space="preserve"><tspan
         style="font-style:normal;font-variant:normal;font-weight:300;font-stretch:normal;font-family:Montserrat;-inkscape-font-specification:'Montserrat Light';fill:#621e4b;fill-opacity:1;stroke-width:0.93749988px"
         y="46.929859"
         x="64.267822"
         id="tspan4698">S</tspan></text>
    <path
       style="opacity:1;fill:#c94fa0;fill-opacity:1;fill-rule:nonzero;stroke:none;stroke-width:5.31496;stroke-linecap:butt;stroke-linejoin:round;stroke-miterlimit:4;stroke-dasharray:none;stroke-dashoffset:0;stroke-opacity:0.95294118;paint-order:stroke markers fill"
       d="m 43.251301,10.698792 12.680042,21.961663 9.499499,-16.452034 h 6.361087 l -3.180544,-5.509629 z"
       id="path158" />
    <path
       id="path132"
       d="m 43.251301,10.698792 12.680042,21.961663 9.499499,-16.452034 h 6.361087 l -3.180544,-5.509629 z"
       style="opacity:1;fill:#000000;fill-opacity:0;fill-rule:nonzero;stroke:none;stroke-width:5.31496;stroke-linecap:butt;stroke-linejoin:round;stroke-miterlimit:4;stroke-dasharray:none;stroke-dashoffset:0;stroke-opacity:0.95294118;paint-order:stroke markers fill" />
    <path
       style="opacity:1;fill:#000000;fill-opacity:0;fill-rule:nonzero;stroke:none;stroke-width:5.31496;stroke-linecap:butt;stroke-linejoin:round;stroke-miterlimit:4;stroke-dasharray:none;stroke-dashoffset:0;stroke-opacity:0.95294118;paint-order:stroke markers fill"
       d="m 43.251301,10.698792 12.680042,21.961663 9.499499,-16.452034 h 6.361087 l -3.180544,-5.509629 z"
       id="path9921" />
    <text
       xml:space="preserve"
       style="font-style:normal;font-variant:normal;font-weight:normal;font-stretch:normal;font-size:19.76845551px;line-height:125%;font-family:Montserrat;-inkscape-font-specification:Montserrat;text-align:start;letter-spacing:0px;word-spacing:0px;writing-mode:lr-tb;text-anchor:start;fill:#621e4b;fill-opacity:1;stroke:none;stroke-width:0.74131709px;stroke-linecap:butt;stroke-linejoin:miter;stroke-opacity:1"
       x="10.289557"
       y="23.68379"
       id="text4706"><tspan
         id="tspan4704"
         x="10.289557"
         y="23.68379"
         style="font-style:normal;font-variant:normal;font-weight:300;font-stretch:normal;font-size:17.49999809px;font-family:Montserrat;-inkscape-font-specification:'Montserrat Light';fill:#621e4b;fill-opacity:1;stroke-width:0.74131709px">de</tspan></text>
    <path
       id="path4875"
       d="m 43.251301,10.698792 12.680042,21.961663 9.499499,-16.452034 h 6.361087 l -3.180544,-5.509629 z"
       style="opacity:1;fill:#c94fa0;fill-opacity:1;fill-rule:nonzero;stroke:none;stroke-width:5.31496;stroke-linecap:butt;stroke-linejoin:round;stroke-miterlimit:4;stroke-dasharray:none;stroke-dashoffset:0;stroke-opacity:0.95294118;paint-order:stroke markers fill" />
    <path
       style="opacity:1;fill:#b03686;fill-opacity:1;fill-rule:nonzero;stroke:none;stroke-width:5.31496;stroke-linecap:butt;stroke-linejoin:round;stroke-miterlimit:4;stroke-dasharray:none;stroke-dashoffset:0;stroke-opacity:0.95294118;paint-order:stroke markers fill"
       d="M 43.250791,10.698781 27.390195,38.170099 h 8.635258 v -8.73963 h 7.100819 c 4.475005,0 7.049568,2.17474 7.049568,5.974734 0,1.040287 -0.180744,1.965189 -0.525515,2.764896 h 3.103639 l -0.0019,-0.0039 3.178715,-5.505983 z m -4.273685,21.381224 v 6.090094 h 7.229005 c 0.759025,-0.58382 1.170045,-1.473771 1.170045,-2.68982 0,-2.300006 -1.549884,-3.400274 -4.249884,-3.400274 z"
       id="path4877" />
    <path
       style="opacity:1;fill:#892a69;fill-opacity:1;fill-rule:nonzero;stroke:none;stroke-width:5.31496;stroke-linecap:butt;stroke-linejoin:round;stroke-miterlimit:4;stroke-dasharray:none;stroke-dashoffset:0;stroke-opacity:0.95294118;paint-order:stroke markers fill"
       d="M 27.390195,38.170099 43.250791,65.639574 55.932672,43.676072 52.753964,38.170099 h -3.103639 c -0.583239,1.352753 -1.636958,2.343915 -3.098147,2.90954 l 3.923954,5.850223 h -3.349003 l -3.200683,-5.300904 c -0.250016,0.02516 -0.525168,0.02551 -0.800174,0.02551 h -4.149166 v 5.275272 h -2.951653 v -8.759764 z m 11.586911,0 v 0.834955 h 4.149166 c 1.317543,0 2.356462,-0.278574 3.079839,-0.834955 z"
       id="path4879" />
    <path
       id="path4881"
       d="M 55.933222,43.676144 43.251339,65.639642 h 25.361936 v -0.0019 z"
       style="opacity:1;fill:#621e4b;fill-opacity:1;fill-rule:nonzero;stroke:none;stroke-width:5.31496;stroke-linecap:butt;stroke-linejoin:round;stroke-miterlimit:4;stroke-dasharray:none;stroke-dashoffset:0;stroke-opacity:0.95294118;paint-order:stroke markers fill" />
    <path
       id="path4883"
       d="m 87.654356,43.674258 -9.494007,16.446506 -6.364735,0.0071 3.180543,5.509665 25.358273,-0.0018 z"
       style="opacity:1;fill:#c94fa0;fill-opacity:1;fill-rule:nonzero;stroke:none;stroke-width:5.31496;stroke-linecap:butt;stroke-linejoin:round;stroke-miterlimit:4;stroke-dasharray:none;stroke-dashoffset:0;stroke-opacity:0.95294118;paint-order:stroke markers fill" />
    <path
       id="path4885"
       d="m 90.832568,38.166432 -3.178704,5.505983 12.681876,21.965334 15.85877,-27.471317 h -10.75927 v 1.289062 h -8.551034 v 4.824836 h 9.851074 v 2.649532 H 93.934382 v -8.76343 z"
       style="opacity:1;fill:#b03586;fill-opacity:1;fill-rule:nonzero;stroke:none;stroke-width:5.31496;stroke-linecap:butt;stroke-linejoin:round;stroke-miterlimit:4;stroke-dasharray:none;stroke-dashoffset:0;stroke-opacity:0.95294118;paint-order:stroke markers fill" />
    <path
       style="opacity:1;fill:#892a69;fill-opacity:1;fill-rule:nonzero;stroke:none;stroke-width:5.31496;stroke-linecap:butt;stroke-linejoin:round;stroke-miterlimit:4;stroke-dasharray:none;stroke-dashoffset:0;stroke-opacity:0.95294118;paint-order:stroke markers fill"
       d="m 100.33391,10.695124 -12.680046,21.965324 3.176876,5.504155 h 3.103642 v -8.734134 h 12.500598 v 2.649536 h -9.550774 v 4.724128 h 8.551034 v 1.36047 h 10.75927 z"
       id="path4887" />
    <path
       id="path4889"
       d="M 74.970664,10.695142 87.652549,32.658613 100.33443,10.695142 Z"
       style="opacity:1;fill:#621e4b;fill-opacity:1;fill-rule:nonzero;stroke:none;stroke-width:5.31496;stroke-linecap:butt;stroke-linejoin:round;stroke-miterlimit:4;stroke-dasharray:none;stroke-dashoffset:0;stroke-opacity:0.95294118;paint-order:stroke markers fill" />
  </g>
</svg>
