<?xml version="1.0" encoding="UTF-8" standalone="no"?>
<svg
   xmlns:dc="http://purl.org/dc/elements/1.1/"
   xmlns:cc="http://creativecommons.org/ns#"
   xmlns:rdf="http://www.w3.org/1999/02/22-rdf-syntax-ns#"
   xmlns:svg="http://www.w3.org/2000/svg"
   xmlns="http://www.w3.org/2000/svg"
   width="29.495649mm"
   height="15.593273mm"
   viewBox="0 0 104.51214 55.251751"
   id="svg9275"
   version="1.1">
  <defs
     id="defs9277" />
  <metadata
     id="metadata9280">
    <rdf:RDF>
      <cc:Work
         rdf:about="">
        <dc:format>image/svg+xml</dc:format>
        <dc:type
           rdf:resource="http://purl.org/dc/dcmitype/StillImage" />
        <dc:title></dc:title>
      </cc:Work>
    </rdf:RDF>
  </metadata>
  <text
     xml:space="preserve"
     style="font-style:normal;font-variant:normal;font-weight:normal;font-stretch:normal;font-size:12.56184864px;line-height:125%;font-family:Montserrat;-inkscape-font-specification:Montserrat;text-align:start;letter-spacing:0px;word-spacing:0px;writing-mode:lr-tb;text-anchor:start;display:inline;fill:#621e4b;fill-opacity:1;stroke:none;stroke-width:0.43435094px;stroke-linecap:butt;stroke-linejoin:miter;stroke-opacity:1"
     x="-1.8574647"
     y="13.292202"
     id="text9933"><tspan
       x="-1.8574647"
       y="13.292202"
       style="font-style:normal;font-variant:normal;font-weight:200;font-stretch:normal;font-size:17.5px;font-family:Montserrat;-inkscape-font-specification:'Montserrat Ultra-Light';fill:#621e4b;fill-opacity:1;stroke-width:0.43435094px"
       id="tspan9935" /></text>
  <path
     id="path9895"
     d="M 44.250842,33.288251 31.568959,55.251749 h 25.361936 v -0.0019 z"
     style="opacity:1;fill:#262626;fill-opacity:1;fill-rule:nonzero;stroke:none;stroke-width:5.31496;stroke-linecap:butt;stroke-linejoin:round;stroke-miterlimit:4;stroke-dasharray:none;stroke-dashoffset:0;stroke-opacity:0.95294118;paint-order:stroke markers fill" />
  <path
     style="opacity:1;fill:#404040;fill-opacity:1;fill-rule:nonzero;stroke:none;stroke-width:5.31496;stroke-linecap:butt;stroke-linejoin:round;stroke-miterlimit:4;stroke-dasharray:none;stroke-dashoffset:0;stroke-opacity:0.95294118;paint-order:stroke markers fill"
     d="M 15.707815,27.782206 31.568411,55.251681 44.250292,33.288179 41.071584,27.782206 h -3.103639 c -0.583239,1.352753 -1.636958,2.343915 -3.098147,2.90954 l 3.923954,5.850223 h -3.349003 l -3.200683,-5.300904 c -0.250016,0.02516 -0.525168,0.02551 -0.800174,0.02551 h -4.149166 v 5.275272 h -2.951653 v -8.759764 z m 11.586911,0 v 0.834955 h 4.149166 c 1.317543,0 2.356462,-0.278574 3.079839,-0.834955 z"
     id="path160" />
  <path
     style="opacity:1;fill:#595959;fill-opacity:1;fill-rule:nonzero;stroke:none;stroke-width:5.31496;stroke-linecap:butt;stroke-linejoin:round;stroke-miterlimit:4;stroke-dasharray:none;stroke-dashoffset:0;stroke-opacity:0.95294118;paint-order:stroke markers fill"
     d="M 31.568411,0.31088778 15.707815,27.782206 h 8.635258 v -8.73963 h 7.100819 c 4.475005,0 7.049568,2.17474 7.049568,5.974734 0,1.040287 -0.180744,1.965189 -0.525515,2.764896 h 3.103639 l -0.0019,-0.0039 3.178715,-5.505983 z M 27.294726,21.692112 v 6.090094 h 7.229005 c 0.759025,-0.58382 1.170045,-1.473771 1.170045,-2.68982 0,-2.300006 -1.549884,-3.400274 -4.249884,-3.400274 z"
     id="path162" />
  <path
     id="path150"
     d="M 63.288284,0.30724878 75.970169,22.27072 88.65205,0.30724878 Z"
     style="opacity:1;fill:#262626;fill-opacity:1;fill-rule:nonzero;stroke:none;stroke-width:5.31496;stroke-linecap:butt;stroke-linejoin:round;stroke-miterlimit:4;stroke-dasharray:none;stroke-dashoffset:0;stroke-opacity:0.95294118;paint-order:stroke markers fill" />
  <path
     style="opacity:1;fill:#404040;fill-opacity:1;fill-rule:nonzero;stroke:none;stroke-width:5.31496;stroke-linecap:butt;stroke-linejoin:round;stroke-miterlimit:4;stroke-dasharray:none;stroke-dashoffset:0;stroke-opacity:0.95294118;paint-order:stroke markers fill"
     d="M 88.65153,0.30723078 75.971484,22.272555 79.14836,27.77671 h 3.103642 V 19.042576 H 94.7526 v 2.649536 h -9.550774 v 4.724128 h 8.551034 v 1.36047 h 10.75927 z"
     id="path154" />
  <path
     id="path156"
     d="m 75.971976,33.286365 -9.494007,16.446506 -6.364735,0.0071 3.180543,5.509665 25.358273,-0.0018 z"
     style="opacity:1;fill:#737373;fill-opacity:1;fill-rule:nonzero;stroke:none;stroke-width:5.31496;stroke-linecap:butt;stroke-linejoin:round;stroke-miterlimit:4;stroke-dasharray:none;stroke-dashoffset:0;stroke-opacity:0.95294118;paint-order:stroke markers fill" />
  <path
     id="path126"
     d="M 79.150188,27.778539 75.971484,33.284522 88.65336,55.249856 104.51213,27.778539 H 93.75286 v 1.289062 h -8.551034 v 4.824836 H 95.0529 v 2.649532 H 82.252002 v -8.76343 z"
     style="opacity:1;fill:#595959;fill-opacity:1;fill-rule:nonzero;stroke:none;stroke-width:5.31496;stroke-linecap:butt;stroke-linejoin:round;stroke-miterlimit:4;stroke-dasharray:none;stroke-dashoffset:0;stroke-opacity:0.95294118;paint-order:stroke markers fill" />
  <text
     xml:space="preserve"
     style="font-style:normal;font-variant:normal;font-weight:200;font-stretch:normal;font-size:24.99999619px;line-height:125%;font-family:Montserrat;-inkscape-font-specification:'Montserrat Ultra-Light';text-align:start;letter-spacing:0px;word-spacing:0px;writing-mode:lr-tb;text-anchor:start;fill:#262626;fill-opacity:1;stroke:none;stroke-width:0.93749988px;stroke-linecap:butt;stroke-linejoin:miter;stroke-opacity:1"
     x="52.585442"
     y="36.541965"
     id="text4700"><tspan
       id="tspan4698"
       x="52.585442"
       y="36.541965"
       style="font-style:normal;font-variant:normal;font-weight:300;font-stretch:normal;font-family:Montserrat;-inkscape-font-specification:'Montserrat Light';fill:#262626;fill-opacity:1;stroke-width:0.93749988px">S</tspan></text>
  <path
     id="path158"
     d="M 31.568921,0.31089878 44.248963,22.272562 53.748462,5.8205278 h 6.361087 L 56.929005,0.31089878 Z"
     style="opacity:1;fill:#737373;fill-opacity:1;fill-rule:nonzero;stroke:none;stroke-width:5.31496;stroke-linecap:butt;stroke-linejoin:round;stroke-miterlimit:4;stroke-dasharray:none;stroke-dashoffset:0;stroke-opacity:0.95294118;paint-order:stroke markers fill" />
  <path
     style="opacity:1;fill:#000000;fill-opacity:0;fill-rule:nonzero;stroke:none;stroke-width:5.31496;stroke-linecap:butt;stroke-linejoin:round;stroke-miterlimit:4;stroke-dasharray:none;stroke-dashoffset:0;stroke-opacity:0.95294118;paint-order:stroke markers fill"
     d="M 31.568921,0.31089878 44.248963,22.272562 53.748462,5.8205278 h 6.361087 L 56.929005,0.31089878 Z"
     id="path132" />
  <path
     id="path9921"
     d="M 31.568921,0.31089878 44.248963,22.272562 53.748462,5.8205278 h 6.361087 L 56.929005,0.31089878 Z"
     style="opacity:1;fill:#000000;fill-opacity:0;fill-rule:nonzero;stroke:none;stroke-width:5.31496;stroke-linecap:butt;stroke-linejoin:round;stroke-miterlimit:4;stroke-dasharray:none;stroke-dashoffset:0;stroke-opacity:0.95294118;paint-order:stroke markers fill" />
  <text
     id="text4706"
     y="13.295897"
     x="-1.3928221"
     style="font-style:normal;font-variant:normal;font-weight:normal;font-stretch:normal;font-size:19.76845551px;line-height:125%;font-family:Montserrat;-inkscape-font-specification:Montserrat;text-align:start;letter-spacing:0px;word-spacing:0px;writing-mode:lr-tb;text-anchor:start;fill:#262626;fill-opacity:1;stroke:none;stroke-width:0.74131709px;stroke-linecap:butt;stroke-linejoin:miter;stroke-opacity:1"
     xml:space="preserve"><tspan
       style="font-style:normal;font-variant:normal;font-weight:300;font-stretch:normal;font-size:17.49999809px;font-family:Montserrat;-inkscape-font-specification:'Montserrat Light';fill:#262626;fill-opacity:1;stroke-width:0.74131709px"
       y="13.295897"
       x="-1.3928221"
       id="tspan4704">de</tspan></text>
  <path
     style="opacity:1;fill:#262626;fill-opacity:1;fill-rule:nonzero;stroke:none;stroke-width:5.31496;stroke-linecap:butt;stroke-linejoin:round;stroke-miterlimit:4;stroke-dasharray:none;stroke-dashoffset:0;stroke-opacity:0.95294118;paint-order:stroke markers fill"
     d="M 44.250842,33.288251 31.568959,55.251749 h 25.361936 v -0.0019 z"
     id="path5573" />
  <path
     id="path5575"
     d="M 15.707815,27.782206 31.568411,55.251681 44.250292,33.288179 41.071584,27.782206 h -3.103639 c -0.583239,1.352753 -1.636958,2.343915 -3.098147,2.90954 l 3.923954,5.850223 h -3.349003 l -3.200683,-5.300904 c -0.250016,0.02516 -0.525168,0.02551 -0.800174,0.02551 h -4.149166 v 5.275272 h -2.951653 v -8.759764 z m 11.586911,0 v 0.834955 h 4.149166 c 1.317543,0 2.356462,-0.278574 3.079839,-0.834955 z"
     style="opacity:1;fill:#404040;fill-opacity:1;fill-rule:nonzero;stroke:none;stroke-width:5.31496;stroke-linecap:butt;stroke-linejoin:round;stroke-miterlimit:4;stroke-dasharray:none;stroke-dashoffset:0;stroke-opacity:0.95294118;paint-order:stroke markers fill" />
  <path
     id="path5577"
     d="M 31.568411,0.31088778 15.707815,27.782206 h 8.635258 v -8.73963 h 7.100819 c 4.475005,0 7.049568,2.17474 7.049568,5.974734 0,1.040287 -0.180744,1.965189 -0.525515,2.764896 h 3.103639 l -0.0019,-0.0039 3.178715,-5.505983 z M 27.294726,21.692112 v 6.090094 h 7.229005 c 0.759025,-0.58382 1.170045,-1.473771 1.170045,-2.68982 0,-2.300006 -1.549884,-3.400274 -4.249884,-3.400274 z"
     style="opacity:1;fill:#595959;fill-opacity:1;fill-rule:nonzero;stroke:none;stroke-width:5.31496;stroke-linecap:butt;stroke-linejoin:round;stroke-miterlimit:4;stroke-dasharray:none;stroke-dashoffset:0;stroke-opacity:0.95294118;paint-order:stroke markers fill" />
  <path
     style="opacity:1;fill:#737373;fill-opacity:1;fill-rule:nonzero;stroke:none;stroke-width:5.31496;stroke-linecap:butt;stroke-linejoin:round;stroke-miterlimit:4;stroke-dasharray:none;stroke-dashoffset:0;stroke-opacity:0.95294118;paint-order:stroke markers fill"
     d="M 31.568921,0.31089878 44.248963,22.272562 53.748462,5.8205278 h 6.361087 L 56.929005,0.31089878 Z"
     id="path5579" />
  <path
     style="opacity:1;fill:#262626;fill-opacity:1;fill-rule:nonzero;stroke:none;stroke-width:5.31496;stroke-linecap:butt;stroke-linejoin:round;stroke-miterlimit:4;stroke-dasharray:none;stroke-dashoffset:0;stroke-opacity:0.95294118;paint-order:stroke markers fill"
     d="M 63.288284,0.30724878 75.970169,22.27072 88.65205,0.30724878 Z"
     id="path5581" />
  <path
     id="path5583"
     d="M 88.65153,0.30723078 75.971484,22.272555 79.14836,27.77671 h 3.103642 V 19.042576 H 94.7526 v 2.649536 h -9.550774 v 4.724128 h 8.551034 v 1.36047 h 10.75927 z"
     style="opacity:1;fill:#404040;fill-opacity:1;fill-rule:nonzero;stroke:none;stroke-width:5.31496;stroke-linecap:butt;stroke-linejoin:round;stroke-miterlimit:4;stroke-dasharray:none;stroke-dashoffset:0;stroke-opacity:0.95294118;paint-order:stroke markers fill" />
  <path
     style="opacity:1;fill:#595959;fill-opacity:1;fill-rule:nonzero;stroke:none;stroke-width:5.31496;stroke-linecap:butt;stroke-linejoin:round;stroke-miterlimit:4;stroke-dasharray:none;stroke-dashoffset:0;stroke-opacity:0.95294118;paint-order:stroke markers fill"
     d="M 79.150188,27.778539 75.971484,33.284522 88.65336,55.249856 104.51213,27.778539 H 93.75286 v 1.289062 h -8.551034 v 4.824836 H 95.0529 v 2.649532 H 82.252002 v -8.76343 z"
     id="path5585" />
  <path
     style="opacity:1;fill:#737373;fill-opacity:1;fill-rule:nonzero;stroke:none;stroke-width:5.31496;stroke-linecap:butt;stroke-linejoin:round;stroke-miterlimit:4;stroke-dasharray:none;stroke-dashoffset:0;stroke-opacity:0.95294118;paint-order:stroke markers fill"
     d="m 75.971976,33.286365 -9.494007,16.446506 -6.364735,0.0071 3.180543,5.509665 25.358273,-0.0018 z"
     id="path5587" />
</svg>
