<?xml version="1.0" encoding="UTF-8" standalone="no"?>
<!-- Created with Inkscape (http://www.inkscape.org/) -->

<svg
   xmlns:dc="http://purl.org/dc/elements/1.1/"
   xmlns:cc="http://creativecommons.org/ns#"
   xmlns:rdf="http://www.w3.org/1999/02/22-rdf-syntax-ns#"
   xmlns:svg="http://www.w3.org/2000/svg"
   xmlns="http://www.w3.org/2000/svg"
   xmlns:sodipodi="http://sodipodi.sourceforge.net/DTD/sodipodi-0.dtd"
   xmlns:inkscape="http://www.inkscape.org/namespaces/inkscape"
   width="210mm"
   height="297mm"
   viewBox="0 0 744.09448819 1052.3622047"
   id="svg5191"
   version="1.1"
   inkscape:version="0.91 r13725"
   sodipodi:docname="reconfigured-de.svg">
  <defs
     id="defs5193" />
  <sodipodi:namedview
     id="base"
     pagecolor="#ffffff"
     bordercolor="#666666"
     borderopacity="1.0"
     inkscape:pageopacity="0.0"
     inkscape:pageshadow="2"
     inkscape:zoom="1.5264636"
     inkscape:cx="385.09527"
     inkscape:cy="671.36669"
     inkscape:document-units="px"
     inkscape:current-layer="layer1"
     showgrid="false"
     showguides="true"
     inkscape:guide-bbox="true"
     gridtolerance="1"
     inkscape:window-width="1879"
     inkscape:window-height="1056"
     inkscape:window-x="1961"
     inkscape:window-y="24"
     inkscape:window-maximized="1">
    <inkscape:grid
       type="xygrid"
       id="grid5779" />
  </sodipodi:namedview>
  <metadata
     id="metadata5196">
    <rdf:RDF>
      <cc:Work
         rdf:about="">
        <dc:format>image/svg+xml</dc:format>
        <dc:type
           rdf:resource="http://purl.org/dc/dcmitype/StillImage" />
        <dc:title></dc:title>
      </cc:Work>
    </rdf:RDF>
  </metadata>
  <g
     inkscape:label="Ebene 1"
     inkscape:groupmode="layer"
     id="layer1">
    <text
       sodipodi:linespacing="125%"
       id="text5669-3"
       y="209.69212"
       x="119.09915"
       style="font-style:normal;font-variant:normal;font-weight:normal;font-stretch:normal;font-size:24.4832859px;line-height:125%;font-family:Montserrat;-inkscape-font-specification:Montserrat;text-align:start;letter-spacing:0px;word-spacing:0px;writing-mode:lr-tb;text-anchor:start;display:inline;fill:#7e2560;fill-opacity:0.81568627;stroke:none;stroke-width:0.23891759px;stroke-linecap:butt;stroke-linejoin:miter;stroke-opacity:1"
       xml:space="preserve"><tspan
         style="font-style:normal;font-variant:normal;font-weight:normal;font-stretch:normal;font-size:24.4832859px;font-family:Montserrat;-inkscape-font-specification:Montserrat;fill:#7e2560;fill-opacity:0.81568627;stroke-width:0.23891759px"
         y="209.69212"
         x="119.09915"
         id="tspan5667-6"
         sodipodi:role="line">de</tspan></text>
    <path
       inkscape:connector-curvature="0"
       id="path5671-5"
       d="m 195.44653,215.61606 c -3.72145,0 -6.24389,1.83554 -6.24389,4.77355 0,6.09633 9.25597,3.96623 9.25597,7.78563 0,1.32205 -1.20037,2.08191 -3.208,2.08191 -1.83625,0 -4.03984,-0.88165 -5.80262,-2.49754 l -1.24878,2.49754 c 1.76281,1.61585 4.30881,2.71729 7.00196,2.71729 3.77043,0 6.46361,-1.88529 6.46361,-4.94568 0.0245,-6.16981 -9.23034,-4.16235 -9.23034,-7.90834 0,-1.15065 1.10302,-1.7871 2.79237,-1.7871 1.29761,0 3.15819,0.46495 5.01891,1.59119 l 1.19934,-2.547 c -1.59141,-1.05282 -3.77055,-1.76145 -5.99853,-1.76145 z"
       style="display:inline;opacity:1;fill:#7e2660;fill-opacity:0.94117647;fill-rule:nonzero;stroke:none;stroke-width:0.24381626;stroke-linecap:butt;stroke-linejoin:round;stroke-miterlimit:4;stroke-dasharray:none;stroke-dashoffset:0;stroke-opacity:1;paint-order:stroke markers fill" />
    <path
       inkscape:connector-curvature="0"
       id="path5673-3"
       d="m 168.33411,224.29341 -7.0459,0.002 0,0.80748 4.06494,0 c 1.27599,0 2.27355,-0.27673 2.98096,-0.80932 z m -18.72254,0.002 15.86243,27.47498 13.59557,-23.54737 -2.26867,-3.92761 -5.13611,0 c -0.57574,1.29841 -1.54695,2.29337 -2.95898,2.83996 l 3.84521,5.72939 -3.28125,0 -3.13476,-5.19106 c -0.24484,0.0248 -0.51255,0.0248 -0.78186,0.0248 l -4.06494,0 0,5.16724 -2.88941,0 0,-8.56934 z"
       style="display:inline;opacity:1;fill:#892968;fill-opacity:1;fill-rule:nonzero;stroke:none;stroke-width:0.24381626;stroke-linecap:butt;stroke-linejoin:round;stroke-miterlimit:4;stroke-dasharray:none;stroke-dashoffset:0;stroke-opacity:1;paint-order:stroke markers fill" />
    <path
       inkscape:connector-curvature="0"
       id="path5675-5"
       d="m 165.474,196.82027 -15.86243,27.47498 8.78723,0 0,-8.56934 6.95435,0 c 4.38251,0 6.90307,2.12885 6.90307,5.85021 0,1.0406 -0.23757,1.92256 -0.5896,2.71729 l 5.13428,0 2.26685,-3.92577 0,-0.002 z m -4.18579,21.50026 0,5.97472 7.0459,-0.002 c 0.75852,-0.57111 1.18103,-1.43872 1.18103,-2.64221 0,-2.25248 -1.51779,-3.33067 -4.16199,-3.33067 z"
       style="display:inline;opacity:1;fill:#b03586;fill-opacity:1;fill-rule:nonzero;stroke:none;stroke-width:0.24381626;stroke-linecap:butt;stroke-linejoin:round;stroke-miterlimit:4;stroke-dasharray:none;stroke-dashoffset:0;stroke-opacity:1;paint-order:stroke markers fill" />
    <path
       inkscape:connector-curvature="0"
       id="path5677-6"
       d="m 224.39184,251.77023 -13.59558,-23.54921 -11.22986,19.45315 -0.0989,0.1722 -4.53552,0 2.26685,3.92397 0.009,-0.0106 -0.006,0.0106 13.14148,0 z"
       style="display:inline;opacity:1;fill:#d676b5;fill-opacity:1;fill-rule:nonzero;stroke:none;stroke-width:0.24381626;stroke-linecap:butt;stroke-linejoin:round;stroke-miterlimit:4;stroke-dasharray:none;stroke-dashoffset:0;stroke-opacity:1;paint-order:stroke markers fill" />
    <path
       inkscape:connector-curvature="0"
       id="path5679-2"
       d="m 240.25393,224.29525 -10.86548,0 0,1.24877 -8.37341,0 0,4.72411 9.64599,0 0,2.59647 -12.53539,0 0,-8.56935 -5.06104,0 -2.26685,3.92577 13.59558,23.54921 z"
       style="display:inline;opacity:1;fill:#b03586;fill-opacity:1;fill-rule:nonzero;stroke:none;stroke-width:0.24381626;stroke-linecap:butt;stroke-linejoin:round;stroke-miterlimit:4;stroke-dasharray:none;stroke-dashoffset:0;stroke-opacity:1;paint-order:stroke markers fill" />
    <path
       inkscape:connector-curvature="0"
       id="path5681-9"
       d="m 224.39184,196.82027 -27.1875,0 13.59192,23.54737 z"
       style="display:inline;opacity:1;fill:#621e4b;fill-opacity:1;fill-rule:nonzero;stroke:none;stroke-width:0.24381626;stroke-linecap:butt;stroke-linejoin:round;stroke-miterlimit:4;stroke-dasharray:none;stroke-dashoffset:0;stroke-opacity:1;paint-order:stroke markers fill" />
    <path
       inkscape:connector-curvature="0"
       id="path5683-1"
       d="m 224.39184,196.82027 -13.59558,23.54737 2.26685,3.92761 5.06103,0 0,-8.56934 12.24243,0 0,2.59462 -9.35302,0 0,4.62706 8.37341,0 0,1.34766 10.86547,0 z"
       style="display:inline;opacity:1;fill:#892968;fill-opacity:1;fill-rule:nonzero;stroke:none;stroke-width:0.24381626;stroke-linecap:butt;stroke-linejoin:round;stroke-miterlimit:4;stroke-dasharray:none;stroke-dashoffset:0;stroke-opacity:1;paint-order:stroke markers fill" />
    <path
       inkscape:connector-curvature="0"
       id="path5685-2"
       d="m 197.20251,196.81843 0.002,0.002 27.18749,0 0,-0.002 z"
       style="display:inline;opacity:1;fill:#000000;fill-opacity:1;fill-rule:nonzero;stroke:none;stroke-width:0.24381626;stroke-linecap:butt;stroke-linejoin:round;stroke-miterlimit:4;stroke-dasharray:none;stroke-dashoffset:0;stroke-opacity:1;paint-order:stroke markers fill" />
    <path
       inkscape:connector-curvature="0"
       id="path5687-7"
       d="m 165.47766,196.81843 13.59374,23.54372 10.52491,-18.23181 0.70313,-1.21585 0.0971,-0.16653 4.53736,0 -2.27051,-3.92942 -1.35315,0 -2.97547,0 z"
       style="display:inline;opacity:1;fill:#d676b5;fill-opacity:1;fill-rule:nonzero;stroke:none;stroke-width:0.24381626;stroke-linecap:butt;stroke-linejoin:round;stroke-miterlimit:4;stroke-dasharray:none;stroke-dashoffset:0;stroke-opacity:1;paint-order:stroke markers fill" />
    <path
       inkscape:connector-curvature="0"
       id="path5689-0"
       d="m 179.06957,228.22287 -13.59557,23.54736 27.19115,0 z"
       style="display:inline;opacity:1;fill:#621e4b;fill-opacity:1;fill-rule:nonzero;stroke:none;stroke-width:0.24381626;stroke-linecap:butt;stroke-linejoin:round;stroke-miterlimit:4;stroke-dasharray:none;stroke-dashoffset:0;stroke-opacity:1;paint-order:stroke markers fill" />
    <path
       inkscape:connector-curvature="0"
       id="path5691-9"
       d="m 171.66662,224.29341 c -3.5e-4,8.1e-4 -0.002,9.6e-4 -0.002,0.002 l 5.13611,0 0,-0.002 z"
       style="display:inline;opacity:1;fill:#000000;fill-opacity:1;fill-rule:nonzero;stroke:none;stroke-width:0.24381626;stroke-linecap:butt;stroke-linejoin:round;stroke-miterlimit:4;stroke-dasharray:none;stroke-dashoffset:0;stroke-opacity:1;paint-order:stroke markers fill" />
    <path
       inkscape:connector-curvature="0"
       id="path5693-3"
       d="m 165.474,196.81843 0,0.002 13.59375,23.54552 0,0.002 0.004,-0.007 -13.59375,-23.54369 z"
       style="display:inline;opacity:1;fill:#000000;fill-opacity:1;fill-rule:nonzero;stroke:none;stroke-width:0.24381626;stroke-linecap:butt;stroke-linejoin:round;stroke-miterlimit:4;stroke-dasharray:none;stroke-dashoffset:0;stroke-opacity:1;paint-order:stroke markers fill" />
    <text
       sodipodi:linespacing="125%"
       xml:space="preserve"
       style="font-style:normal;font-variant:normal;font-weight:normal;font-stretch:normal;font-size:24.4832859px;line-height:125%;font-family:Montserrat;-inkscape-font-specification:Montserrat;text-align:start;letter-spacing:0px;word-spacing:0px;writing-mode:lr-tb;text-anchor:start;display:inline;fill:#000000;fill-opacity:1;stroke:none;stroke-width:0.23891759px;stroke-linecap:butt;stroke-linejoin:miter;stroke-opacity:1"
       x="261.78427"
       y="217.71544"
       id="text5701-6"><tspan
         sodipodi:role="line"
         id="tspan5697-0"
         x="261.78427"
         y="217.71544"
         style="font-style:normal;font-variant:normal;font-weight:300;font-stretch:normal;font-size:24.4832859px;font-family:Montserrat;-inkscape-font-specification:'Montserrat Light';fill:#000000;stroke-width:0.23891759px">GESELLSCHAFT FÜR</tspan><tspan
         sodipodi:role="line"
         x="261.78427"
         y="248.31955"
         style="font-style:normal;font-variant:normal;font-weight:300;font-stretch:normal;font-size:24.4832859px;font-family:Montserrat;-inkscape-font-specification:'Montserrat Light';fill:#000000;stroke-width:0.23891759px"
         id="tspan5699-6">FORSCHUNGSSOFTWARE</tspan></text>
    <path
       inkscape:connector-curvature="0"
       id="path5703-2"
       d="m 250.51692,196.81839 1.9822,0 0,54.95177 -1.9822,0 z"
       style="display:inline;opacity:1;fill:#000000;fill-opacity:1;fill-rule:nonzero;stroke:none;stroke-width:0.11509767;stroke-linecap:square;stroke-linejoin:round;stroke-miterlimit:4;stroke-dasharray:none;stroke-dashoffset:0;stroke-opacity:1;paint-order:stroke markers fill"
       sodipodi:nodetypes="ccccc" />
    <text
       sodipodi:linespacing="125%"
       id="text5669-3-6"
       y="309.69211"
       x="123.09914"
       style="font-style:normal;font-variant:normal;font-weight:normal;font-stretch:normal;font-size:24.4832859px;line-height:125%;font-family:Montserrat;-inkscape-font-specification:Montserrat;text-align:start;letter-spacing:0px;word-spacing:0px;writing-mode:lr-tb;text-anchor:start;display:inline;fill:#7e2560;fill-opacity:0.81568627;stroke:none;stroke-width:0.23891759px;stroke-linecap:butt;stroke-linejoin:miter;stroke-opacity:1"
       xml:space="preserve"><tspan
         style="font-style:normal;font-variant:normal;font-weight:normal;font-stretch:normal;font-size:24.4832859px;font-family:Montserrat;-inkscape-font-specification:Montserrat;fill:#7e2560;fill-opacity:0.81568627;stroke-width:0.23891759px"
         y="309.69211"
         x="123.09914"
         id="tspan5667-6-1"
         sodipodi:role="line">de</tspan></text>
    <path
       inkscape:connector-curvature="0"
       id="path5671-5-8"
       d="m 195.44652,315.61605 c -3.72145,0 -6.24389,1.83554 -6.24389,4.77355 0,6.09633 9.25597,3.96623 9.25597,7.78563 0,1.32205 -1.20037,2.08191 -3.208,2.08191 -1.83625,0 -4.03984,-0.88165 -5.80262,-2.49754 l -1.24878,2.49754 c 1.76281,1.61585 4.30881,2.71729 7.00196,2.71729 3.77043,0 6.46361,-1.88529 6.46361,-4.94568 0.0245,-6.16981 -9.23034,-4.16235 -9.23034,-7.90834 0,-1.15065 1.10302,-1.7871 2.79237,-1.7871 1.29761,0 3.15819,0.46495 5.01891,1.59119 l 1.19934,-2.547 c -1.59141,-1.05282 -3.77055,-1.76145 -5.99853,-1.76145 z"
       style="display:inline;opacity:1;fill:#7e2660;fill-opacity:0.94117647;fill-rule:nonzero;stroke:none;stroke-width:0.24381626;stroke-linecap:butt;stroke-linejoin:round;stroke-miterlimit:4;stroke-dasharray:none;stroke-dashoffset:0;stroke-opacity:1;paint-order:stroke markers fill" />
    <path
       inkscape:connector-curvature="0"
       id="path5673-3-7"
       d="m 168.3341,324.2934 -7.0459,0.002 0,0.80748 4.06494,0 c 1.27599,0 2.27355,-0.27673 2.98096,-0.80932 z m -18.72254,0.002 15.86243,27.47498 13.59557,-23.54737 -2.26867,-3.92761 -5.13611,0 c -0.57574,1.29841 -1.54695,2.29337 -2.95898,2.83996 l 3.84521,5.72939 -3.28125,0 -3.13476,-5.19106 c -0.24484,0.0248 -0.51255,0.0248 -0.78186,0.0248 l -4.06494,0 0,5.16724 -2.88941,0 0,-8.56934 z"
       style="display:inline;opacity:1;fill:#892968;fill-opacity:1;fill-rule:nonzero;stroke:none;stroke-width:0.24381626;stroke-linecap:butt;stroke-linejoin:round;stroke-miterlimit:4;stroke-dasharray:none;stroke-dashoffset:0;stroke-opacity:1;paint-order:stroke markers fill" />
    <path
       inkscape:connector-curvature="0"
       id="path5675-5-9"
       d="m 165.47399,296.82026 -15.86243,27.47498 8.78723,0 0,-8.56934 6.95435,0 c 4.38251,0 6.90307,2.12885 6.90307,5.85021 0,1.0406 -0.23757,1.92256 -0.5896,2.71729 l 5.13428,0 2.26685,-3.92577 0,-0.002 z m -4.18579,21.50026 0,5.97472 7.0459,-0.002 c 0.75852,-0.57111 1.18103,-1.43872 1.18103,-2.64221 0,-2.25248 -1.51779,-3.33067 -4.16199,-3.33067 z"
       style="display:inline;opacity:1;fill:#b03586;fill-opacity:1;fill-rule:nonzero;stroke:none;stroke-width:0.24381626;stroke-linecap:butt;stroke-linejoin:round;stroke-miterlimit:4;stroke-dasharray:none;stroke-dashoffset:0;stroke-opacity:1;paint-order:stroke markers fill" />
    <path
       inkscape:connector-curvature="0"
       id="path5677-6-2"
       d="m 224.39183,351.77022 -13.59558,-23.54921 -11.22986,19.45315 -0.0989,0.1722 -4.53552,0 2.26685,3.92397 0.009,-0.0106 -0.006,0.0106 13.14148,0 z"
       style="display:inline;opacity:1;fill:#d676b5;fill-opacity:1;fill-rule:nonzero;stroke:none;stroke-width:0.24381626;stroke-linecap:butt;stroke-linejoin:round;stroke-miterlimit:4;stroke-dasharray:none;stroke-dashoffset:0;stroke-opacity:1;paint-order:stroke markers fill" />
    <path
       inkscape:connector-curvature="0"
       id="path5679-2-0"
       d="m 240.25392,324.29524 -10.86548,0 0,1.24877 -8.37341,0 0,4.72411 9.64599,0 0,2.59647 -12.53539,0 0,-8.56935 -5.06104,0 -2.26685,3.92577 13.59558,23.54921 z"
       style="display:inline;opacity:1;fill:#b03586;fill-opacity:1;fill-rule:nonzero;stroke:none;stroke-width:0.24381626;stroke-linecap:butt;stroke-linejoin:round;stroke-miterlimit:4;stroke-dasharray:none;stroke-dashoffset:0;stroke-opacity:1;paint-order:stroke markers fill" />
    <path
       inkscape:connector-curvature="0"
       id="path5681-9-2"
       d="m 224.39183,296.82026 -27.1875,0 13.59192,23.54737 z"
       style="display:inline;opacity:1;fill:#621e4b;fill-opacity:1;fill-rule:nonzero;stroke:none;stroke-width:0.24381626;stroke-linecap:butt;stroke-linejoin:round;stroke-miterlimit:4;stroke-dasharray:none;stroke-dashoffset:0;stroke-opacity:1;paint-order:stroke markers fill" />
    <path
       inkscape:connector-curvature="0"
       id="path5683-1-3"
       d="m 224.39183,296.82026 -13.59558,23.54737 2.26685,3.92761 5.06103,0 0,-8.56934 12.24243,0 0,2.59462 -9.35302,0 0,4.62706 8.37341,0 0,1.34766 10.86547,0 z"
       style="display:inline;opacity:1;fill:#892968;fill-opacity:1;fill-rule:nonzero;stroke:none;stroke-width:0.24381626;stroke-linecap:butt;stroke-linejoin:round;stroke-miterlimit:4;stroke-dasharray:none;stroke-dashoffset:0;stroke-opacity:1;paint-order:stroke markers fill" />
    <path
       inkscape:connector-curvature="0"
       id="path5685-2-7"
       d="m 197.2025,296.81842 0.002,0.002 27.18749,0 0,-0.002 z"
       style="display:inline;opacity:1;fill:#000000;fill-opacity:1;fill-rule:nonzero;stroke:none;stroke-width:0.24381626;stroke-linecap:butt;stroke-linejoin:round;stroke-miterlimit:4;stroke-dasharray:none;stroke-dashoffset:0;stroke-opacity:1;paint-order:stroke markers fill" />
    <path
       inkscape:connector-curvature="0"
       id="path5687-7-5"
       d="m 165.47765,296.81842 13.59374,23.54372 10.52491,-18.23181 0.70313,-1.21585 0.0971,-0.16653 4.53736,0 -2.27051,-3.92942 -1.35315,0 -2.97547,0 z"
       style="display:inline;opacity:1;fill:#d676b5;fill-opacity:1;fill-rule:nonzero;stroke:none;stroke-width:0.24381626;stroke-linecap:butt;stroke-linejoin:round;stroke-miterlimit:4;stroke-dasharray:none;stroke-dashoffset:0;stroke-opacity:1;paint-order:stroke markers fill" />
    <path
       inkscape:connector-curvature="0"
       id="path5689-0-9"
       d="m 179.06956,328.22286 -13.59557,23.54736 27.19115,0 z"
       style="display:inline;opacity:1;fill:#621e4b;fill-opacity:1;fill-rule:nonzero;stroke:none;stroke-width:0.24381626;stroke-linecap:butt;stroke-linejoin:round;stroke-miterlimit:4;stroke-dasharray:none;stroke-dashoffset:0;stroke-opacity:1;paint-order:stroke markers fill" />
    <path
       inkscape:connector-curvature="0"
       id="path5691-9-2"
       d="m 171.66661,324.2934 c -3.5e-4,8.1e-4 -0.002,9.6e-4 -0.002,0.002 l 5.13611,0 0,-0.002 z"
       style="display:inline;opacity:1;fill:#000000;fill-opacity:1;fill-rule:nonzero;stroke:none;stroke-width:0.24381626;stroke-linecap:butt;stroke-linejoin:round;stroke-miterlimit:4;stroke-dasharray:none;stroke-dashoffset:0;stroke-opacity:1;paint-order:stroke markers fill" />
    <path
       inkscape:connector-curvature="0"
       id="path5693-3-2"
       d="m 165.47399,296.81842 0,0.002 13.59375,23.54552 0,0.002 0.004,-0.007 -13.59375,-23.54369 z"
       style="display:inline;opacity:1;fill:#000000;fill-opacity:1;fill-rule:nonzero;stroke:none;stroke-width:0.24381626;stroke-linecap:butt;stroke-linejoin:round;stroke-miterlimit:4;stroke-dasharray:none;stroke-dashoffset:0;stroke-opacity:1;paint-order:stroke markers fill" />
    <text
       sodipodi:linespacing="125%"
       xml:space="preserve"
       style="font-style:normal;font-variant:normal;font-weight:normal;font-stretch:normal;font-size:24.4832859px;line-height:125%;font-family:Montserrat;-inkscape-font-specification:Montserrat;text-align:start;letter-spacing:0px;word-spacing:0px;writing-mode:lr-tb;text-anchor:start;display:inline;fill:#000000;fill-opacity:1;stroke:none;stroke-width:0.23891759px;stroke-linecap:butt;stroke-linejoin:miter;stroke-opacity:1"
       x="261.78427"
       y="317.71542"
       id="text5701-6-8"><tspan
         sodipodi:role="line"
         id="tspan5697-0-9"
         x="261.78427"
         y="317.71542"
         style="font-style:normal;font-variant:normal;font-weight:300;font-stretch:normal;font-size:24.4832859px;font-family:Montserrat;-inkscape-font-specification:'Montserrat Light';fill:#000000;stroke-width:0.23891759px">GESELLSCHAFT FÜR</tspan><tspan
         sodipodi:role="line"
         x="261.78427"
         y="348.31952"
         style="font-style:normal;font-variant:normal;font-weight:300;font-stretch:normal;font-size:24.4832859px;font-family:Montserrat;-inkscape-font-specification:'Montserrat Light';fill:#000000;stroke-width:0.23891759px"
         id="tspan5699-6-7">FORSCHUNGSSOFTWARE</tspan></text>
    <path
       inkscape:connector-curvature="0"
       id="path5703-2-3"
       d="m 250.51691,296.81838 1.9822,0 0,54.95177 -1.9822,0 z"
       style="display:inline;opacity:1;fill:#000000;fill-opacity:1;fill-rule:nonzero;stroke:none;stroke-width:0.11509767;stroke-linecap:square;stroke-linejoin:round;stroke-miterlimit:4;stroke-dasharray:none;stroke-dashoffset:0;stroke-opacity:1;paint-order:stroke markers fill"
       sodipodi:nodetypes="ccccc" />
    <text
       sodipodi:linespacing="125%"
       id="text5669-3-6-6"
       y="426.69608"
       x="116.17623"
       style="font-style:normal;font-variant:normal;font-weight:normal;font-stretch:normal;font-size:24.4832859px;line-height:125%;font-family:Montserrat;-inkscape-font-specification:Montserrat;text-align:start;letter-spacing:0px;word-spacing:0px;writing-mode:lr-tb;text-anchor:start;display:inline;fill:#7e2560;fill-opacity:0.81568627;stroke:none;stroke-width:0.23891759px;stroke-linecap:butt;stroke-linejoin:miter;stroke-opacity:1"
       xml:space="preserve"><tspan
         style="font-style:normal;font-variant:normal;font-weight:normal;font-stretch:normal;font-size:24.4832859px;font-family:Montserrat;-inkscape-font-specification:Montserrat;fill:#7e2560;fill-opacity:0.81568627;stroke-width:0.23891759px"
         y="426.69608"
         x="116.17623"
         id="tspan5667-6-1-1"
         sodipodi:role="line">de</tspan></text>
    <path
       inkscape:connector-curvature="0"
       id="path5671-5-8-2"
       d="m 195.87509,411.18749 c -3.72145,0 -6.24389,1.83554 -6.24389,4.77355 0,6.09633 9.25597,3.96623 9.25597,7.78563 0,1.32205 -1.20037,2.08191 -3.208,2.08191 -1.83625,0 -4.03984,-0.88165 -5.80262,-2.49754 l -1.24878,2.49754 c 1.76281,1.61585 4.30881,2.71729 7.00196,2.71729 3.77043,0 6.46361,-1.88529 6.46361,-4.94568 0.0245,-6.16981 -9.23034,-4.16235 -9.23034,-7.90834 0,-1.15065 1.10302,-1.7871 2.79237,-1.7871 1.29761,0 3.15819,0.46495 5.01891,1.59119 l 1.19934,-2.547 c -1.59141,-1.05282 -3.77055,-1.76145 -5.99853,-1.76145 z"
       style="display:inline;opacity:1;fill:#7e2660;fill-opacity:0.94117647;fill-rule:nonzero;stroke:none;stroke-width:0.24381626;stroke-linecap:butt;stroke-linejoin:round;stroke-miterlimit:4;stroke-dasharray:none;stroke-dashoffset:0;stroke-opacity:1;paint-order:stroke markers fill" />
    <path
       inkscape:connector-curvature="0"
       id="path5673-3-7-9"
       d="m 168.76267,419.86484 -7.0459,0.002 0,0.80748 4.06494,0 c 1.27599,0 2.27355,-0.27673 2.98096,-0.80932 z m -18.72254,0.002 15.86243,27.47498 13.59557,-23.54737 -2.26867,-3.92761 -5.13611,0 c -0.57574,1.29841 -1.54695,2.29337 -2.95898,2.83996 l 3.84521,5.72939 -3.28125,0 -3.13476,-5.19106 c -0.24484,0.0248 -0.51255,0.0248 -0.78186,0.0248 l -4.06494,0 0,5.16724 -2.88941,0 0,-8.56934 z"
       style="display:inline;opacity:1;fill:#892968;fill-opacity:1;fill-rule:nonzero;stroke:none;stroke-width:0.24381626;stroke-linecap:butt;stroke-linejoin:round;stroke-miterlimit:4;stroke-dasharray:none;stroke-dashoffset:0;stroke-opacity:1;paint-order:stroke markers fill" />
    <path
       inkscape:connector-curvature="0"
       id="path5675-5-9-3"
       d="m 165.90256,392.3917 -15.86243,27.47498 8.78723,0 0,-8.56934 6.95435,0 c 4.38251,0 6.90307,2.12885 6.90307,5.85021 0,1.0406 -0.23757,1.92256 -0.5896,2.71729 l 5.13428,0 2.26685,-3.92577 0,-0.002 z m -4.18579,21.50026 0,5.97472 7.0459,-0.002 c 0.75852,-0.57111 1.18103,-1.43872 1.18103,-2.64221 0,-2.25248 -1.51779,-3.33067 -4.16199,-3.33067 z"
       style="display:inline;opacity:1;fill:#b03586;fill-opacity:1;fill-rule:nonzero;stroke:none;stroke-width:0.24381626;stroke-linecap:butt;stroke-linejoin:round;stroke-miterlimit:4;stroke-dasharray:none;stroke-dashoffset:0;stroke-opacity:1;paint-order:stroke markers fill" />
    <path
       inkscape:connector-curvature="0"
       id="path5677-6-2-1"
       d="m 224.8204,447.34166 -13.59558,-23.54921 -11.22986,19.45315 -0.0989,0.1722 -4.53552,0 2.26685,3.92397 0.009,-0.0106 -0.006,0.0106 13.14148,0 z"
       style="display:inline;opacity:1;fill:#d676b5;fill-opacity:1;fill-rule:nonzero;stroke:none;stroke-width:0.24381626;stroke-linecap:butt;stroke-linejoin:round;stroke-miterlimit:4;stroke-dasharray:none;stroke-dashoffset:0;stroke-opacity:1;paint-order:stroke markers fill" />
    <path
       inkscape:connector-curvature="0"
       id="path5679-2-0-9"
       d="m 240.68249,419.86668 -10.86548,0 0,1.24877 -8.37341,0 0,4.72411 9.64599,0 0,2.59647 -12.53539,0 0,-8.56935 -5.06104,0 -2.26685,3.92577 13.59558,23.54921 z"
       style="display:inline;opacity:1;fill:#b03586;fill-opacity:1;fill-rule:nonzero;stroke:none;stroke-width:0.24381626;stroke-linecap:butt;stroke-linejoin:round;stroke-miterlimit:4;stroke-dasharray:none;stroke-dashoffset:0;stroke-opacity:1;paint-order:stroke markers fill" />
    <path
       inkscape:connector-curvature="0"
       id="path5681-9-2-4"
       d="m 224.8204,392.3917 -27.1875,0 13.59192,23.54737 z"
       style="display:inline;opacity:1;fill:#621e4b;fill-opacity:1;fill-rule:nonzero;stroke:none;stroke-width:0.24381626;stroke-linecap:butt;stroke-linejoin:round;stroke-miterlimit:4;stroke-dasharray:none;stroke-dashoffset:0;stroke-opacity:1;paint-order:stroke markers fill" />
    <path
       inkscape:connector-curvature="0"
       id="path5683-1-3-7"
       d="m 224.8204,392.3917 -13.59558,23.54737 2.26685,3.92761 5.06103,0 0,-8.56934 12.24243,0 0,2.59462 -9.35302,0 0,4.62706 8.37341,0 0,1.34766 10.86547,0 z"
       style="display:inline;opacity:1;fill:#892968;fill-opacity:1;fill-rule:nonzero;stroke:none;stroke-width:0.24381626;stroke-linecap:butt;stroke-linejoin:round;stroke-miterlimit:4;stroke-dasharray:none;stroke-dashoffset:0;stroke-opacity:1;paint-order:stroke markers fill" />
    <path
       inkscape:connector-curvature="0"
       id="path5685-2-7-8"
       d="m 197.63107,392.38986 0.002,0.002 27.18749,0 0,-0.002 z"
       style="display:inline;opacity:1;fill:#000000;fill-opacity:1;fill-rule:nonzero;stroke:none;stroke-width:0.24381626;stroke-linecap:butt;stroke-linejoin:round;stroke-miterlimit:4;stroke-dasharray:none;stroke-dashoffset:0;stroke-opacity:1;paint-order:stroke markers fill" />
    <path
       inkscape:connector-curvature="0"
       id="path5687-7-5-4"
       d="m 165.90622,392.38986 13.59374,23.54372 10.52491,-18.23181 0.70313,-1.21585 0.0971,-0.16653 4.53736,0 -2.27051,-3.92942 -1.35315,0 -2.97547,0 z"
       style="display:inline;opacity:1;fill:#d676b5;fill-opacity:1;fill-rule:nonzero;stroke:none;stroke-width:0.24381626;stroke-linecap:butt;stroke-linejoin:round;stroke-miterlimit:4;stroke-dasharray:none;stroke-dashoffset:0;stroke-opacity:1;paint-order:stroke markers fill" />
    <path
       inkscape:connector-curvature="0"
       id="path5689-0-9-5"
       d="m 179.49813,423.7943 -13.59557,23.54736 27.19115,0 z"
       style="display:inline;opacity:1;fill:#621e4b;fill-opacity:1;fill-rule:nonzero;stroke:none;stroke-width:0.24381626;stroke-linecap:butt;stroke-linejoin:round;stroke-miterlimit:4;stroke-dasharray:none;stroke-dashoffset:0;stroke-opacity:1;paint-order:stroke markers fill" />
    <path
       inkscape:connector-curvature="0"
       id="path5691-9-2-0"
       d="m 172.09518,419.86484 c -3.5e-4,8.1e-4 -0.002,9.6e-4 -0.002,0.002 l 5.13611,0 0,-0.002 z"
       style="display:inline;opacity:1;fill:#000000;fill-opacity:1;fill-rule:nonzero;stroke:none;stroke-width:0.24381626;stroke-linecap:butt;stroke-linejoin:round;stroke-miterlimit:4;stroke-dasharray:none;stroke-dashoffset:0;stroke-opacity:1;paint-order:stroke markers fill" />
    <path
       inkscape:connector-curvature="0"
       id="path5693-3-2-3"
       d="m 165.90256,392.38986 0,0.002 13.59375,23.54552 0,0.002 0.004,-0.007 -13.59375,-23.54369 z"
       style="display:inline;opacity:1;fill:#000000;fill-opacity:1;fill-rule:nonzero;stroke:none;stroke-width:0.24381626;stroke-linecap:butt;stroke-linejoin:round;stroke-miterlimit:4;stroke-dasharray:none;stroke-dashoffset:0;stroke-opacity:1;paint-order:stroke markers fill" />
    <text
       sodipodi:linespacing="125%"
       xml:space="preserve"
       style="font-style:normal;font-variant:normal;font-weight:normal;font-stretch:normal;font-size:24.4832859px;line-height:125%;font-family:Montserrat;-inkscape-font-specification:Montserrat;text-align:start;letter-spacing:0px;word-spacing:0px;writing-mode:lr-tb;text-anchor:start;display:inline;fill:#000000;fill-opacity:1;stroke:none;stroke-width:0.23891759px;stroke-linecap:butt;stroke-linejoin:miter;stroke-opacity:1"
       x="262.21283"
       y="413.28687"
       id="text5701-6-8-6"><tspan
         sodipodi:role="line"
         id="tspan5697-0-9-1"
         x="262.21283"
         y="413.28687"
         style="font-style:normal;font-variant:normal;font-weight:300;font-stretch:normal;font-size:24.4832859px;font-family:Montserrat;-inkscape-font-specification:'Montserrat Light';fill:#000000;stroke-width:0.23891759px">GESELLSCHAFT FÜR</tspan><tspan
         sodipodi:role="line"
         x="262.21283"
         y="443.89096"
         style="font-style:normal;font-variant:normal;font-weight:300;font-stretch:normal;font-size:24.4832859px;font-family:Montserrat;-inkscape-font-specification:'Montserrat Light';fill:#000000;stroke-width:0.23891759px"
         id="tspan5699-6-7-0">FORSCHUNGSSOFTWARE</tspan></text>
    <path
       inkscape:connector-curvature="0"
       id="path5703-2-3-6"
       d="m 250.94548,392.38982 1.9822,0 0,54.95177 -1.9822,0 z"
       style="display:inline;opacity:1;fill:#000000;fill-opacity:1;fill-rule:nonzero;stroke:none;stroke-width:0.11509767;stroke-linecap:square;stroke-linejoin:round;stroke-miterlimit:4;stroke-dasharray:none;stroke-dashoffset:0;stroke-opacity:1;paint-order:stroke markers fill"
       sodipodi:nodetypes="ccccc" />
  </g>
</svg>
