<?xml version="1.0" encoding="UTF-8" standalone="no"?>
<!-- Created with Inkscape (http://www.inkscape.org/) -->

<svg
   xmlns:dc="http://purl.org/dc/elements/1.1/"
   xmlns:cc="http://creativecommons.org/ns#"
   xmlns:rdf="http://www.w3.org/1999/02/22-rdf-syntax-ns#"
   xmlns:svg="http://www.w3.org/2000/svg"
   xmlns="http://www.w3.org/2000/svg"
   xmlns:sodipodi="http://sodipodi.sourceforge.net/DTD/sodipodi-0.dtd"
   xmlns:inkscape="http://www.inkscape.org/namespaces/inkscape"
   width="200mm"
   height="135mm"
   viewBox="0 0 200 135"
   version="1.1"
   id="svg5470"
   inkscape:version="0.92.1 r15371"
   sodipodi:docname="RSE_Logo_Dreiervorschlag.svg"
   inkscape:export-filename="F:\Projects\RSE\Logo_choice.png"
   inkscape:export-xdpi="300"
   inkscape:export-ydpi="300">
  <defs
     id="defs5464" />
  <sodipodi:namedview
     id="base"
     pagecolor="#ffffff"
     bordercolor="#666666"
     borderopacity="1.0"
     inkscape:pageopacity="0.0"
     inkscape:pageshadow="2"
     inkscape:zoom="0.5"
     inkscape:cx="328.92729"
     inkscape:cy="44.599207"
     inkscape:document-units="mm"
     inkscape:current-layer="layer1"
     showgrid="true"
     inkscape:snap-page="true"
     inkscape:window-width="1920"
     inkscape:window-height="1019"
     inkscape:window-x="-9"
     inkscape:window-y="-9"
     inkscape:window-maximized="1"
     inkscape:snap-global="true"
     inkscape:object-paths="true"
     inkscape:snap-intersection-paths="true"
     inkscape:object-nodes="true"
     inkscape:snap-smooth-nodes="false"
     inkscape:snap-midpoints="true"
     showguides="false"
     inkscape:snap-grids="false"
     inkscape:snap-object-midpoints="true">
    <inkscape:grid
       type="xygrid"
       id="grid4652" />
  </sodipodi:namedview>
  <metadata
     id="metadata5467">
    <rdf:RDF>
      <cc:Work
         rdf:about="">
        <dc:format>image/svg+xml</dc:format>
        <dc:type
           rdf:resource="http://purl.org/dc/dcmitype/StillImage" />
        <dc:title></dc:title>
      </cc:Work>
    </rdf:RDF>
  </metadata>
  <g
     inkscape:groupmode="layer"
     id="layer3"
     inkscape:label="Background"
     style="display:inline"
     transform="translate(0,110)"
     sodipodi:insensitive="true">
    <rect
       style="opacity:1;fill:#aaeeff;fill-opacity:1;fill-rule:nonzero;stroke:none;stroke-width:1.07331264;stroke-linecap:butt;stroke-linejoin:round;stroke-miterlimit:4;stroke-dasharray:none;stroke-dashoffset:0;stroke-opacity:1;paint-order:stroke markers fill"
       id="rect4905"
       width="200"
       height="135"
       x="0"
       y="-110.00001" />
    <text
       xml:space="preserve"
       style="font-style:normal;font-variant:normal;font-weight:normal;font-stretch:normal;font-size:7.05555534px;line-height:125%;font-family:Montserrat;-inkscape-font-specification:Montserrat;text-align:start;letter-spacing:0px;word-spacing:0px;writing-mode:lr-tb;text-anchor:start;fill:#000000;fill-opacity:1;stroke:none;stroke-width:0.26458332px;stroke-linecap:butt;stroke-linejoin:miter;stroke-opacity:1"
       x="0"
       y="-110"
       id="text11794"><tspan
         sodipodi:role="line"
         id="tspan11792"
         x="0"
         y="-103.51528"
         style="stroke-width:0.26458332px" /></text>
  </g>
  <g
     inkscape:groupmode="layer"
     id="layer2"
     inkscape:label="Logos"
     style="display:inline"
     sodipodi:insensitive="true">
    <g
       id="g6225"
       transform="translate(24.695704)">
      <text
         id="text4724"
         y="20.817379"
         x="50.164387"
         style="font-style:normal;font-variant:normal;font-weight:normal;font-stretch:normal;font-size:6.90972757px;line-height:125%;font-family:Montserrat;-inkscape-font-specification:Montserrat;text-align:start;letter-spacing:0px;word-spacing:0px;writing-mode:lr-tb;text-anchor:start;display:inline;fill:#000000;fill-opacity:1;stroke:none;stroke-width:0.23891759px;stroke-linecap:butt;stroke-linejoin:miter;stroke-opacity:1"
         xml:space="preserve"><tspan
           style="font-style:normal;font-variant:normal;font-weight:300;font-stretch:normal;font-size:6.90972757px;font-family:Montserrat;-inkscape-font-specification:'Montserrat Light';fill:#000000;stroke-width:0.23891759px"
           y="20.817379"
           x="50.164387"
           id="tspan4720"
           sodipodi:role="line">GESELLSCHAFT FÜR</tspan><tspan
           id="tspan4722"
           style="font-style:normal;font-variant:normal;font-weight:300;font-stretch:normal;font-size:6.90972757px;font-family:Montserrat;-inkscape-font-specification:'Montserrat Light';fill:#000000;stroke-width:0.23891759px"
           y="29.454538"
           x="50.164387"
           sodipodi:role="line">FORSCHUNGSSOFTWARE</tspan></text>
      <path
         sodipodi:nodetypes="ccccc"
         style="display:inline;opacity:1;fill:#000000;fill-opacity:1;fill-rule:nonzero;stroke:none;stroke-width:0.11509767;stroke-linecap:square;stroke-linejoin:round;stroke-miterlimit:4;stroke-dasharray:none;stroke-dashoffset:0;stroke-opacity:1;paint-order:stroke markers fill"
         d="m 46.984487,14.919759 h 0.55942 v 15.50861 h -0.55942 z"
         id="path4726"
         inkscape:connector-curvature="0" />
    </g>
    <g
       id="g6030"
       transform="translate(24.695704,46.561774)">
      <text
         xml:space="preserve"
         style="font-style:normal;font-variant:normal;font-weight:normal;font-stretch:normal;font-size:3.54523301px;line-height:125%;font-family:Montserrat;-inkscape-font-specification:Montserrat;text-align:start;letter-spacing:0px;word-spacing:0px;writing-mode:lr-tb;text-anchor:start;display:inline;fill:#7e2560;fill-opacity:0.94117647;stroke:none;stroke-width:0.12258349px;stroke-linecap:butt;stroke-linejoin:miter;stroke-opacity:1"
         x="13.675662"
         y="27.263557"
         id="text5589"><tspan
           sodipodi:role="line"
           x="13.675662"
           y="27.263557"
           style="font-style:normal;font-variant:normal;font-weight:normal;font-stretch:normal;font-size:4.93888903px;font-family:Montserrat;-inkscape-font-specification:Montserrat;fill:#7e2560;fill-opacity:0.94117647;stroke-width:0.12258349px"
           id="tspan5587">de</tspan></text>
      <path
         inkscape:connector-curvature="0"
         style="opacity:1;fill:#621e4b;fill-opacity:1;fill-rule:nonzero;stroke:none;stroke-width:1.5;stroke-linecap:butt;stroke-linejoin:round;stroke-miterlimit:4;stroke-dasharray:none;stroke-dashoffset:0;stroke-opacity:0.95294118;paint-order:stroke markers fill"
         d="m 32.06124,11.78171 3.57911,6.19858 3.57911,-6.19858 z"
         id="path5571" />
      <path
         inkscape:connector-curvature="0"
         id="path5573"
         d="m 36.537822,19.534719 -0.897101,1.553911 3.579108,6.199106 4.475697,-7.753017 H 40.65902 v 0.363802 h -2.413291 v 1.361676 h 2.780191 v 0.747757 h -3.612697 v -2.473235 z"
         style="opacity:1;fill:#b03586;fill-opacity:1;fill-rule:nonzero;stroke:none;stroke-width:1.5;stroke-linecap:butt;stroke-linejoin:round;stroke-miterlimit:4;stroke-dasharray:none;stroke-dashoffset:0;stroke-opacity:0.95294118;paint-order:stroke markers fill" />
      <path
         inkscape:connector-curvature="0"
         id="path5575"
         d="m 39.219313,11.781705 -3.578592,6.199103 0.896585,1.553395 h 0.875917 v -2.464967 h 3.527948 v 0.747758 h -2.695442 v 1.333254 h 2.413291 v 0.383955 h 3.036506 z"
         style="opacity:1;fill:#892968;fill-opacity:1;fill-rule:nonzero;stroke:none;stroke-width:1.5;stroke-linecap:butt;stroke-linejoin:round;stroke-miterlimit:4;stroke-dasharray:none;stroke-dashoffset:0;stroke-opacity:0.95294118;paint-order:stroke markers fill" />
      <path
         inkscape:connector-curvature="0"
         style="opacity:1;fill:#d676b5;fill-opacity:1;fill-rule:nonzero;stroke:none;stroke-width:1.5;stroke-linecap:butt;stroke-linejoin:round;stroke-miterlimit:4;stroke-dasharray:none;stroke-dashoffset:0;stroke-opacity:0.95294118;paint-order:stroke markers fill"
         d="m 35.64086,21.08915 -2.67942,4.64157 -1.79627,0.002 0.89762,1.55495 7.15667,-5.2e-4 z"
         id="path5577" />
      <path
         inkscape:connector-curvature="0"
         style="opacity:1;fill:#d676b5;fill-opacity:1;fill-rule:nonzero;stroke:none;stroke-width:1.5;stroke-linecap:butt;stroke-linejoin:round;stroke-miterlimit:4;stroke-dasharray:none;stroke-dashoffset:0;stroke-opacity:0.95294118;paint-order:stroke markers fill"
         d="m 23.10933,11.78274 3.57859,6.19807 2.68097,-4.64313 h 1.79524 l -0.89762,-1.55494 z"
         id="path5579" />
      <path
         inkscape:connector-curvature="0"
         id="path5581"
         d="m 18.632973,19.535754 4.476213,7.752497 3.579109,-6.198589 -0.897102,-1.553908 h -0.875916 c -0.164603,0.381777 -0.461986,0.661505 -0.874366,0.821137 l 1.107427,1.651063 h -0.945163 l -0.903304,-1.496033 c -0.07056,0.0071 -0.148214,0.0072 -0.225827,0.0072 h -1.170987 v 1.488799 h -0.833022 v -2.4722 z m 3.270084,0 v 0.235643 h 1.170987 c 0.37184,0 0.665046,-0.07862 0.869199,-0.235643 z"
         style="opacity:1;fill:#892968;fill-opacity:1;fill-rule:nonzero;stroke:none;stroke-width:1.5;stroke-linecap:butt;stroke-linejoin:round;stroke-miterlimit:4;stroke-dasharray:none;stroke-dashoffset:0;stroke-opacity:0.95294118;paint-order:stroke markers fill" />
      <path
         inkscape:connector-curvature="0"
         id="path5583"
         d="m 23.109186,11.782737 -4.476213,7.753017 h 2.437062 v -2.466518 h 2.004009 c 1.262946,0 1.989545,0.61376 1.989545,1.686203 0,0.293592 -0.05101,0.55462 -0.148312,0.780315 h 0.875916 l -5.29e-4,-0.0011 0.897104,-1.553911 z m -1.206129,6.034257 v 1.71876 h 2.040186 c 0.214214,-0.164767 0.330213,-0.415931 0.330213,-0.759127 0,-0.649113 -0.437412,-0.959633 -1.199412,-0.959633 z"
         style="opacity:1;fill:#b03586;fill-opacity:1;fill-rule:nonzero;stroke:none;stroke-width:1.5;stroke-linecap:butt;stroke-linejoin:round;stroke-miterlimit:4;stroke-dasharray:none;stroke-dashoffset:0;stroke-opacity:0.95294118;paint-order:stroke markers fill" />
      <path
         inkscape:connector-curvature="0"
         style="opacity:1;fill:#621e4b;fill-opacity:1;fill-rule:nonzero;stroke:none;stroke-width:1.5;stroke-linecap:butt;stroke-linejoin:round;stroke-miterlimit:4;stroke-dasharray:none;stroke-dashoffset:0;stroke-opacity:0.95294118;paint-order:stroke markers fill"
         d="m 26.68844,21.08966 -3.57911,6.19859 h 8.95243 l -5.3e-4,-5.3e-4 h -1.79421 z"
         id="path5585" />
      <text
         xml:space="preserve"
         style="font-style:normal;font-variant:normal;font-weight:normal;font-stretch:normal;font-size:7.05555534px;line-height:125%;font-family:Montserrat;-inkscape-font-specification:Montserrat;text-align:start;letter-spacing:0px;word-spacing:0px;writing-mode:lr-tb;text-anchor:start;fill:#621e4b;fill-opacity:1;stroke:none;stroke-width:0.26458332px;stroke-linecap:butt;stroke-linejoin:miter;stroke-opacity:1"
         x="29.040659"
         y="22.007957"
         id="text5607"><tspan
           sodipodi:role="line"
           id="tspan5605"
           x="29.040659"
           y="22.007957"
           style="fill:#621e4b;fill-opacity:1;stroke-width:0.26458332px">S</tspan></text>
    </g>
    <g
       id="g6004"
       transform="translate(24.695704,-23.583575)">
      <text
         id="text5759"
         y="42.169273"
         x="13.675662"
         style="font-style:normal;font-variant:normal;font-weight:normal;font-stretch:normal;font-size:3.54523301px;line-height:125%;font-family:Montserrat;-inkscape-font-specification:Montserrat;text-align:start;letter-spacing:0px;word-spacing:0px;writing-mode:lr-tb;text-anchor:start;display:inline;fill:#7e2560;fill-opacity:0.94117647;stroke:none;stroke-width:0.12258349px;stroke-linecap:butt;stroke-linejoin:miter;stroke-opacity:1"
         xml:space="preserve"><tspan
           id="tspan5757"
           style="font-style:normal;font-variant:normal;font-weight:normal;font-stretch:normal;font-size:4.93888903px;font-family:Montserrat;-inkscape-font-specification:Montserrat;fill:#7e2560;fill-opacity:0.94117647;stroke-width:0.12258349px"
           y="42.169273"
           x="13.675662"
           sodipodi:role="line">de</tspan></text>
      <path
         id="path5761"
         d="m 32.06124,38.50463 3.57911,6.19858 3.57911,-6.19858 z"
         style="opacity:1;fill:#621e4b;fill-opacity:1;fill-rule:nonzero;stroke:none;stroke-width:1.5;stroke-linecap:butt;stroke-linejoin:round;stroke-miterlimit:4;stroke-dasharray:none;stroke-dashoffset:0;stroke-opacity:0.95294118;paint-order:stroke markers fill"
         inkscape:connector-curvature="0" />
      <path
         style="opacity:1;fill:#b03586;fill-opacity:1;fill-rule:nonzero;stroke:none;stroke-width:1.5;stroke-linecap:butt;stroke-linejoin:round;stroke-miterlimit:4;stroke-dasharray:none;stroke-dashoffset:0;stroke-opacity:0.95294118;paint-order:stroke markers fill"
         d="m 36.537822,46.257639 -0.897101,1.553911 3.579108,6.199106 4.475697,-7.753017 H 40.65902 v 0.363802 h -2.413291 v 1.361676 h 2.780191 v 0.747757 h -3.612697 v -2.473235 z"
         id="path5763"
         inkscape:connector-curvature="0" />
      <path
         style="opacity:1;fill:#892968;fill-opacity:1;fill-rule:nonzero;stroke:none;stroke-width:1.5;stroke-linecap:butt;stroke-linejoin:round;stroke-miterlimit:4;stroke-dasharray:none;stroke-dashoffset:0;stroke-opacity:0.95294118;paint-order:stroke markers fill"
         d="m 39.219313,38.504625 -3.578592,6.199103 0.896585,1.553395 h 0.875917 v -2.464967 h 3.527948 v 0.747758 h -2.695442 v 1.333254 h 2.413291 v 0.383955 h 3.036506 z"
         id="path5765"
         inkscape:connector-curvature="0" />
      <path
         id="path5767"
         d="m 35.64086,47.81207 -2.67942,4.64157 -1.79627,0.002 0.89762,1.55495 7.15667,-5.2e-4 z"
         style="opacity:1;fill:#d676b5;fill-opacity:1;fill-rule:nonzero;stroke:none;stroke-width:1.5;stroke-linecap:butt;stroke-linejoin:round;stroke-miterlimit:4;stroke-dasharray:none;stroke-dashoffset:0;stroke-opacity:0.95294118;paint-order:stroke markers fill"
         inkscape:connector-curvature="0" />
      <path
         id="path5769"
         d="m 23.10933,38.50566 3.57859,6.19807 2.68097,-4.64313 h 1.79524 l -0.89762,-1.55494 z"
         style="opacity:1;fill:#d676b5;fill-opacity:1;fill-rule:nonzero;stroke:none;stroke-width:1.5;stroke-linecap:butt;stroke-linejoin:round;stroke-miterlimit:4;stroke-dasharray:none;stroke-dashoffset:0;stroke-opacity:0.95294118;paint-order:stroke markers fill"
         inkscape:connector-curvature="0" />
      <path
         style="opacity:1;fill:#892968;fill-opacity:1;fill-rule:nonzero;stroke:none;stroke-width:1.5;stroke-linecap:butt;stroke-linejoin:round;stroke-miterlimit:4;stroke-dasharray:none;stroke-dashoffset:0;stroke-opacity:0.95294118;paint-order:stroke markers fill"
         d="m 18.632973,46.258674 4.476213,7.752497 3.579109,-6.198589 -0.897102,-1.553908 h -0.875916 c -0.164603,0.381777 -0.461986,0.661505 -0.874366,0.821137 l 1.107427,1.651063 h -0.945163 l -0.903304,-1.496033 c -0.07056,0.0071 -0.148214,0.0072 -0.225827,0.0072 h -1.170987 v 1.488799 h -0.833022 v -2.4722 z m 3.270084,0 v 0.235643 h 1.170987 c 0.37184,0 0.665046,-0.07862 0.869199,-0.235643 z"
         id="path5771"
         inkscape:connector-curvature="0" />
      <path
         style="opacity:1;fill:#b03586;fill-opacity:1;fill-rule:nonzero;stroke:none;stroke-width:1.5;stroke-linecap:butt;stroke-linejoin:round;stroke-miterlimit:4;stroke-dasharray:none;stroke-dashoffset:0;stroke-opacity:0.95294118;paint-order:stroke markers fill"
         d="m 23.109186,38.505657 -4.476213,7.753017 h 2.437062 v -2.466518 h 2.004009 c 1.262946,0 1.989545,0.61376 1.989545,1.686203 0,0.293592 -0.05101,0.55462 -0.148312,0.780315 h 0.875916 l -5.29e-4,-0.0011 0.897104,-1.553911 z m -1.206129,6.034257 v 1.71876 h 2.040186 c 0.214214,-0.164767 0.330213,-0.415931 0.330213,-0.759127 0,-0.649113 -0.437412,-0.959633 -1.199412,-0.959633 z"
         id="path5773"
         inkscape:connector-curvature="0" />
      <path
         id="path5775"
         d="m 26.68844,47.81258 -3.57911,6.19859 h 8.95243 l -5.3e-4,-5.3e-4 h -1.79421 z"
         style="opacity:1;fill:#621e4b;fill-opacity:1;fill-rule:nonzero;stroke:none;stroke-width:1.5;stroke-linecap:butt;stroke-linejoin:round;stroke-miterlimit:4;stroke-dasharray:none;stroke-dashoffset:0;stroke-opacity:0.95294118;paint-order:stroke markers fill"
         inkscape:connector-curvature="0" />
      <text
         id="text5783"
         y="48.730877"
         x="29.040659"
         style="font-style:normal;font-variant:normal;font-weight:normal;font-stretch:normal;font-size:7.05555534px;line-height:125%;font-family:Montserrat;-inkscape-font-specification:Montserrat;text-align:start;letter-spacing:0px;word-spacing:0px;writing-mode:lr-tb;text-anchor:start;fill:#621e4b;fill-opacity:1;stroke:none;stroke-width:0.26458332px;stroke-linecap:butt;stroke-linejoin:miter;stroke-opacity:1"
         xml:space="preserve"><tspan
           style="fill:#621e4b;fill-opacity:1;stroke-width:0.26458332px"
           y="48.730877"
           x="29.040659"
           id="tspan5781"
           sodipodi:role="line">S</tspan></text>
    </g>
    <g
       id="g6197"
       transform="translate(24.695704,50.495138)">
      <path
         inkscape:connector-curvature="0"
         style="opacity:1;fill:#621e4b;fill-opacity:1;fill-rule:nonzero;stroke:none;stroke-width:1.5;stroke-linecap:butt;stroke-linejoin:round;stroke-miterlimit:4;stroke-dasharray:none;stroke-dashoffset:0;stroke-opacity:0.95294118;paint-order:stroke markers fill"
         d="m 32.5904,51.270775 3.57911,6.19858 3.57911,-6.19858 z"
         id="path5795" />
      <path
         inkscape:connector-curvature="0"
         id="path5797"
         d="m 37.066982,59.023784 -0.897101,1.553911 3.579108,6.199106 4.475697,-7.753017 H 41.18818 v 0.363802 h -2.413291 v 1.361676 h 2.780191 v 0.747757 h -3.612697 v -2.473235 z"
         style="opacity:1;fill:#b03586;fill-opacity:1;fill-rule:nonzero;stroke:none;stroke-width:1.5;stroke-linecap:butt;stroke-linejoin:round;stroke-miterlimit:4;stroke-dasharray:none;stroke-dashoffset:0;stroke-opacity:0.95294118;paint-order:stroke markers fill" />
      <path
         inkscape:connector-curvature="0"
         id="path5799"
         d="m 39.748473,51.27077 -3.578592,6.199103 0.896585,1.553395 h 0.875917 v -2.464967 h 3.527948 v 0.747758 h -2.695442 v 1.333254 h 2.413291 v 0.383955 h 3.036506 z"
         style="opacity:1;fill:#892968;fill-opacity:1;fill-rule:nonzero;stroke:none;stroke-width:1.5;stroke-linecap:butt;stroke-linejoin:round;stroke-miterlimit:4;stroke-dasharray:none;stroke-dashoffset:0;stroke-opacity:0.95294118;paint-order:stroke markers fill" />
      <path
         inkscape:connector-curvature="0"
         style="opacity:1;fill:#d676b5;fill-opacity:1;fill-rule:nonzero;stroke:none;stroke-width:1.5;stroke-linecap:butt;stroke-linejoin:round;stroke-miterlimit:4;stroke-dasharray:none;stroke-dashoffset:0;stroke-opacity:0.95294118;paint-order:stroke markers fill"
         d="m 36.17002,60.578215 -2.67942,4.64157 -1.79627,0.002 0.89762,1.55495 7.15667,-5.2e-4 z"
         id="path5801" />
      <path
         inkscape:connector-curvature="0"
         style="opacity:1;fill:#d676b5;fill-opacity:1;fill-rule:nonzero;stroke:none;stroke-width:1.5;stroke-linecap:butt;stroke-linejoin:round;stroke-miterlimit:4;stroke-dasharray:none;stroke-dashoffset:0;stroke-opacity:0.95294118;paint-order:stroke markers fill"
         d="m 23.63849,51.271805 3.57859,6.19807 2.68097,-4.64313 h 1.79524 l -0.89762,-1.55494 z"
         id="path5803" />
      <path
         inkscape:connector-curvature="0"
         id="path5805"
         d="m 19.162133,59.024819 4.476213,7.752497 3.579109,-6.198589 -0.897102,-1.553908 h -0.875916 c -0.164603,0.381777 -0.461986,0.661505 -0.874366,0.821137 l 1.107427,1.651063 h -0.945163 l -0.903304,-1.496033 c -0.07056,0.0071 -0.148214,0.0072 -0.225827,0.0072 h -1.170987 v 1.488799 h -0.833022 v -2.4722 z m 3.270084,0 v 0.235643 h 1.170987 c 0.37184,0 0.665046,-0.07862 0.869199,-0.235643 z"
         style="opacity:1;fill:#892968;fill-opacity:1;fill-rule:nonzero;stroke:none;stroke-width:1.5;stroke-linecap:butt;stroke-linejoin:round;stroke-miterlimit:4;stroke-dasharray:none;stroke-dashoffset:0;stroke-opacity:0.95294118;paint-order:stroke markers fill" />
      <path
         inkscape:connector-curvature="0"
         id="path5807"
         d="m 23.638346,51.271802 -4.476213,7.753017 h 2.437062 v -2.466518 h 2.004009 c 1.262946,0 1.989545,0.61376 1.989545,1.686203 0,0.293592 -0.05101,0.55462 -0.148312,0.780315 h 0.875916 l -5.29e-4,-0.0011 0.897104,-1.553911 z m -1.206129,6.034257 v 1.71876 h 2.040186 c 0.214214,-0.164767 0.330213,-0.415931 0.330213,-0.759127 0,-0.649113 -0.437412,-0.959633 -1.199412,-0.959633 z"
         style="opacity:1;fill:#b03586;fill-opacity:1;fill-rule:nonzero;stroke:none;stroke-width:1.5;stroke-linecap:butt;stroke-linejoin:round;stroke-miterlimit:4;stroke-dasharray:none;stroke-dashoffset:0;stroke-opacity:0.95294118;paint-order:stroke markers fill" />
      <path
         inkscape:connector-curvature="0"
         style="opacity:1;fill:#621e4b;fill-opacity:1;fill-rule:nonzero;stroke:none;stroke-width:1.5;stroke-linecap:butt;stroke-linejoin:round;stroke-miterlimit:4;stroke-dasharray:none;stroke-dashoffset:0;stroke-opacity:0.95294118;paint-order:stroke markers fill"
         d="m 27.2176,60.578725 -3.57911,6.19859 h 8.95243 l -5.3e-4,-5.3e-4 h -1.79421 z"
         id="path5809" />
      <text
         xml:space="preserve"
         style="font-style:normal;font-variant:normal;font-weight:normal;font-stretch:normal;font-size:7.05555534px;line-height:125%;font-family:Montserrat;-inkscape-font-specification:Montserrat;text-align:start;letter-spacing:0px;word-spacing:0px;writing-mode:lr-tb;text-anchor:start;fill:#621e4b;fill-opacity:1;stroke:none;stroke-width:0.26458332px;stroke-linecap:butt;stroke-linejoin:miter;stroke-opacity:1"
         x="29.56982"
         y="61.497025"
         id="text5817"><tspan
           sodipodi:role="line"
           id="tspan5815"
           x="29.56982"
           y="61.497025"
           style="fill:#621e4b;fill-opacity:1;stroke-width:0.26458332px">S</tspan></text>
      <path
         inkscape:connector-curvature="0"
         id="path5825"
         d="m 16.195645,59.761728 a 3.5079125,3.5079125 0 0 0 -3.5078,3.5078 3.5079125,3.5079125 0 0 0 3.5078,3.50779 3.5079125,3.5079125 0 0 0 3.50779,-3.50779 3.5079125,3.5079125 0 0 0 -3.50779,-3.5078 z m -0.78342,1.15704 h 0.56793 v 3.66437 h -0.56793 v -0.44907 c -0.18767,0.30621 -0.50365,0.47388 -0.92346,0.47388 -0.75565,0 -1.25935,-0.54814 -1.25935,-1.34824 0,-0.79022 0.5087,-1.3286 1.24954,-1.3286 0.42474,0 0.74066,0.17283 0.93327,0.47904 z m 2.512,1.0175 c 0.92357,0 1.29904,0.60255 1.22989,1.55081 h -1.9854 c 0.0889,0.40499 0.40007,0.65681 0.81493,0.65681 0.28646,0 0.54791,-0.10888 0.74053,-0.30644 l 0.30127,0.32091 c -0.25682,0.28152 -0.63186,0.44493 -1.08624,0.44493 -0.80998,0 -1.34359,-0.53837 -1.34359,-1.3286 10e-6,-0.79516 0.54826,-1.33348 1.32861,-1.33842 z m 0.005,0.45424 c -0.41486,0 -0.70629,0.26181 -0.77049,0.68161 h 1.5012 c -0.0198,-0.42474 -0.30102,-0.68161 -0.73071,-0.68161 z m -3.32228,0.0248 c -0.47413,0 -0.80483,0.36027 -0.80977,0.86404 0.005,0.49882 0.3307,0.85472 0.80977,0.85472 0.47414,0 0.80512,-0.3559 0.80512,-0.85472 0,-0.50871 -0.33098,-0.86404 -0.80512,-0.86404 z"
         style="opacity:1;fill:#892968;fill-opacity:1;fill-rule:nonzero;stroke:none;stroke-width:0.2;stroke-linecap:butt;stroke-linejoin:round;stroke-miterlimit:4;stroke-dasharray:none;stroke-dashoffset:0;stroke-opacity:0.95294118;paint-order:stroke markers fill" />
    </g>
    <g
       id="g6219"
       transform="translate(24.695704,0.39126288)">
      <text
         xml:space="preserve"
         style="font-style:normal;font-variant:normal;font-weight:normal;font-stretch:normal;font-size:6.90972757px;line-height:125%;font-family:Montserrat;-inkscape-font-specification:Montserrat;text-align:start;letter-spacing:0px;word-spacing:0px;writing-mode:lr-tb;text-anchor:start;display:inline;fill:#000000;fill-opacity:1;stroke:none;stroke-width:0.23891759px;stroke-linecap:butt;stroke-linejoin:miter;stroke-opacity:1"
         x="50.164387"
         y="63.847775"
         id="text6211"><tspan
           sodipodi:role="line"
           id="tspan6207"
           x="50.164387"
           y="63.847775"
           style="font-style:normal;font-variant:normal;font-weight:300;font-stretch:normal;font-size:6.90972757px;font-family:Montserrat;-inkscape-font-specification:'Montserrat Light';fill:#000000;stroke-width:0.23891759px">GESELLSCHAFT FÜR</tspan><tspan
           sodipodi:role="line"
           x="50.164387"
           y="72.484932"
           style="font-style:normal;font-variant:normal;font-weight:300;font-stretch:normal;font-size:6.90972757px;font-family:Montserrat;-inkscape-font-specification:'Montserrat Light';fill:#000000;stroke-width:0.23891759px"
           id="tspan6209">FORSCHUNGSSOFTWARE</tspan></text>
      <path
         inkscape:connector-curvature="0"
         id="path6213"
         d="m 46.984487,57.950153 h 0.55942 v 15.50861 h -0.55942 z"
         style="display:inline;opacity:1;fill:#000000;fill-opacity:1;fill-rule:nonzero;stroke:none;stroke-width:0.11509767;stroke-linecap:square;stroke-linejoin:round;stroke-miterlimit:4;stroke-dasharray:none;stroke-dashoffset:0;stroke-opacity:1;paint-order:stroke markers fill"
         sodipodi:nodetypes="ccccc" />
    </g>
    <g
       transform="translate(24.695704,43.813693)"
       id="g6235">
      <text
         id="text6231"
         y="63.847775"
         x="50.164387"
         style="font-style:normal;font-variant:normal;font-weight:normal;font-stretch:normal;font-size:6.90972757px;line-height:125%;font-family:Montserrat;-inkscape-font-specification:Montserrat;text-align:start;letter-spacing:0px;word-spacing:0px;writing-mode:lr-tb;text-anchor:start;display:inline;fill:#000000;fill-opacity:1;stroke:none;stroke-width:0.23891759px;stroke-linecap:butt;stroke-linejoin:miter;stroke-opacity:1"
         xml:space="preserve"><tspan
           style="font-style:normal;font-variant:normal;font-weight:300;font-stretch:normal;font-size:6.90972757px;font-family:Montserrat;-inkscape-font-specification:'Montserrat Light';fill:#000000;stroke-width:0.23891759px"
           y="63.847775"
           x="50.164387"
           id="tspan6227"
           sodipodi:role="line">GESELLSCHAFT FÜR</tspan><tspan
           id="tspan6229"
           style="font-style:normal;font-variant:normal;font-weight:300;font-stretch:normal;font-size:6.90972757px;font-family:Montserrat;-inkscape-font-specification:'Montserrat Light';fill:#000000;stroke-width:0.23891759px"
           y="72.484932"
           x="50.164387"
           sodipodi:role="line">FORSCHUNGSSOFTWARE</tspan></text>
      <path
         sodipodi:nodetypes="ccccc"
         style="display:inline;opacity:1;fill:#000000;fill-opacity:1;fill-rule:nonzero;stroke:none;stroke-width:0.11509767;stroke-linecap:square;stroke-linejoin:round;stroke-miterlimit:4;stroke-dasharray:none;stroke-dashoffset:0;stroke-opacity:1;paint-order:stroke markers fill"
         d="m 46.984487,57.950153 h 0.55942 v 15.50861 h -0.55942 z"
         id="path6233"
         inkscape:connector-curvature="0" />
    </g>
    <g
       transform="translate(24.695704,-23.583575)"
       id="g6261">
      <text
         xml:space="preserve"
         style="font-style:normal;font-variant:normal;font-weight:normal;font-stretch:normal;font-size:3.54523301px;line-height:125%;font-family:Montserrat;-inkscape-font-specification:Montserrat;text-align:start;letter-spacing:0px;word-spacing:0px;writing-mode:lr-tb;text-anchor:start;display:inline;fill:#7e2560;fill-opacity:0.94117647;stroke:none;stroke-width:0.12258349px;stroke-linecap:butt;stroke-linejoin:miter;stroke-opacity:1"
         x="13.675662"
         y="42.169273"
         id="text6239"><tspan
           sodipodi:role="line"
           x="13.675662"
           y="42.169273"
           style="font-style:normal;font-variant:normal;font-weight:normal;font-stretch:normal;font-size:4.93888903px;font-family:Montserrat;-inkscape-font-specification:Montserrat;fill:#7e2560;fill-opacity:0.94117647;stroke-width:0.12258349px"
           id="tspan6237">de</tspan></text>
      <path
         inkscape:connector-curvature="0"
         style="opacity:1;fill:#621e4b;fill-opacity:1;fill-rule:nonzero;stroke:none;stroke-width:1.5;stroke-linecap:butt;stroke-linejoin:round;stroke-miterlimit:4;stroke-dasharray:none;stroke-dashoffset:0;stroke-opacity:0.95294118;paint-order:stroke markers fill"
         d="m 32.06124,38.50463 3.57911,6.19858 3.57911,-6.19858 z"
         id="path6241" />
      <path
         inkscape:connector-curvature="0"
         id="path6243"
         d="m 36.537822,46.257639 -0.897101,1.553911 3.579108,6.199106 4.475697,-7.753017 H 40.65902 v 0.363802 h -2.413291 v 1.361676 h 2.780191 v 0.747757 h -3.612697 v -2.473235 z"
         style="opacity:1;fill:#b03586;fill-opacity:1;fill-rule:nonzero;stroke:none;stroke-width:1.5;stroke-linecap:butt;stroke-linejoin:round;stroke-miterlimit:4;stroke-dasharray:none;stroke-dashoffset:0;stroke-opacity:0.95294118;paint-order:stroke markers fill" />
      <path
         inkscape:connector-curvature="0"
         id="path6245"
         d="m 39.219313,38.504625 -3.578592,6.199103 0.896585,1.553395 h 0.875917 v -2.464967 h 3.527948 v 0.747758 h -2.695442 v 1.333254 h 2.413291 v 0.383955 h 3.036506 z"
         style="opacity:1;fill:#892968;fill-opacity:1;fill-rule:nonzero;stroke:none;stroke-width:1.5;stroke-linecap:butt;stroke-linejoin:round;stroke-miterlimit:4;stroke-dasharray:none;stroke-dashoffset:0;stroke-opacity:0.95294118;paint-order:stroke markers fill" />
      <path
         inkscape:connector-curvature="0"
         style="opacity:1;fill:#d676b5;fill-opacity:1;fill-rule:nonzero;stroke:none;stroke-width:1.5;stroke-linecap:butt;stroke-linejoin:round;stroke-miterlimit:4;stroke-dasharray:none;stroke-dashoffset:0;stroke-opacity:0.95294118;paint-order:stroke markers fill"
         d="m 35.64086,47.81207 -2.67942,4.64157 -1.79627,0.002 0.89762,1.55495 7.15667,-5.2e-4 z"
         id="path6247" />
      <path
         inkscape:connector-curvature="0"
         style="opacity:1;fill:#d676b5;fill-opacity:1;fill-rule:nonzero;stroke:none;stroke-width:1.5;stroke-linecap:butt;stroke-linejoin:round;stroke-miterlimit:4;stroke-dasharray:none;stroke-dashoffset:0;stroke-opacity:0.95294118;paint-order:stroke markers fill"
         d="m 23.10933,38.50566 3.57859,6.19807 2.68097,-4.64313 h 1.79524 l -0.89762,-1.55494 z"
         id="path6249" />
      <path
         inkscape:connector-curvature="0"
         id="path6251"
         d="m 18.632973,46.258674 4.476213,7.752497 3.579109,-6.198589 -0.897102,-1.553908 h -0.875916 c -0.164603,0.381777 -0.461986,0.661505 -0.874366,0.821137 l 1.107427,1.651063 h -0.945163 l -0.903304,-1.496033 c -0.07056,0.0071 -0.148214,0.0072 -0.225827,0.0072 h -1.170987 v 1.488799 h -0.833022 v -2.4722 z m 3.270084,0 v 0.235643 h 1.170987 c 0.37184,0 0.665046,-0.07862 0.869199,-0.235643 z"
         style="opacity:1;fill:#892968;fill-opacity:1;fill-rule:nonzero;stroke:none;stroke-width:1.5;stroke-linecap:butt;stroke-linejoin:round;stroke-miterlimit:4;stroke-dasharray:none;stroke-dashoffset:0;stroke-opacity:0.95294118;paint-order:stroke markers fill" />
      <path
         inkscape:connector-curvature="0"
         id="path6253"
         d="m 23.109186,38.505657 -4.476213,7.753017 h 2.437062 v -2.466518 h 2.004009 c 1.262946,0 1.989545,0.61376 1.989545,1.686203 0,0.293592 -0.05101,0.55462 -0.148312,0.780315 h 0.875916 l -5.29e-4,-0.0011 0.897104,-1.553911 z m -1.206129,6.034257 v 1.71876 h 2.040186 c 0.214214,-0.164767 0.330213,-0.415931 0.330213,-0.759127 0,-0.649113 -0.437412,-0.959633 -1.199412,-0.959633 z"
         style="opacity:1;fill:#b03586;fill-opacity:1;fill-rule:nonzero;stroke:none;stroke-width:1.5;stroke-linecap:butt;stroke-linejoin:round;stroke-miterlimit:4;stroke-dasharray:none;stroke-dashoffset:0;stroke-opacity:0.95294118;paint-order:stroke markers fill" />
      <path
         inkscape:connector-curvature="0"
         style="opacity:1;fill:#621e4b;fill-opacity:1;fill-rule:nonzero;stroke:none;stroke-width:1.5;stroke-linecap:butt;stroke-linejoin:round;stroke-miterlimit:4;stroke-dasharray:none;stroke-dashoffset:0;stroke-opacity:0.95294118;paint-order:stroke markers fill"
         d="m 26.68844,47.81258 -3.57911,6.19859 h 8.95243 l -5.3e-4,-5.3e-4 h -1.79421 z"
         id="path6255" />
      <text
         xml:space="preserve"
         style="font-style:normal;font-variant:normal;font-weight:normal;font-stretch:normal;font-size:7.05555534px;line-height:125%;font-family:Montserrat;-inkscape-font-specification:Montserrat;text-align:start;letter-spacing:0px;word-spacing:0px;writing-mode:lr-tb;text-anchor:start;fill:#621e4b;fill-opacity:1;stroke:none;stroke-width:0.26458332px;stroke-linecap:butt;stroke-linejoin:miter;stroke-opacity:1"
         x="29.040659"
         y="48.730877"
         id="text6259"><tspan
           sodipodi:role="line"
           id="tspan6257"
           x="29.040659"
           y="48.730877"
           style="fill:#621e4b;fill-opacity:1;stroke-width:0.26458332px">S</tspan></text>
    </g>
    <g
       transform="translate(24.695704,46.561774)"
       id="g6287">
      <text
         id="text6265"
         y="27.263557"
         x="13.675662"
         style="font-style:normal;font-variant:normal;font-weight:normal;font-stretch:normal;font-size:3.54523301px;line-height:125%;font-family:Montserrat;-inkscape-font-specification:Montserrat;text-align:start;letter-spacing:0px;word-spacing:0px;writing-mode:lr-tb;text-anchor:start;display:inline;fill:#7e2560;fill-opacity:0.94117647;stroke:none;stroke-width:0.12258349px;stroke-linecap:butt;stroke-linejoin:miter;stroke-opacity:1"
         xml:space="preserve"><tspan
           id="tspan6263"
           style="font-style:normal;font-variant:normal;font-weight:normal;font-stretch:normal;font-size:4.93888903px;font-family:Montserrat;-inkscape-font-specification:Montserrat;fill:#7e2560;fill-opacity:0.94117647;stroke-width:0.12258349px"
           y="27.263557"
           x="13.675662"
           sodipodi:role="line">de</tspan></text>
      <path
         id="path6267"
         d="m 32.06124,11.78171 3.57911,6.19858 3.57911,-6.19858 z"
         style="opacity:1;fill:#621e4b;fill-opacity:1;fill-rule:nonzero;stroke:none;stroke-width:1.5;stroke-linecap:butt;stroke-linejoin:round;stroke-miterlimit:4;stroke-dasharray:none;stroke-dashoffset:0;stroke-opacity:0.95294118;paint-order:stroke markers fill"
         inkscape:connector-curvature="0" />
      <path
         style="opacity:1;fill:#b03586;fill-opacity:1;fill-rule:nonzero;stroke:none;stroke-width:1.5;stroke-linecap:butt;stroke-linejoin:round;stroke-miterlimit:4;stroke-dasharray:none;stroke-dashoffset:0;stroke-opacity:0.95294118;paint-order:stroke markers fill"
         d="m 36.537822,19.534719 -0.897101,1.553911 3.579108,6.199106 4.475697,-7.753017 H 40.65902 v 0.363802 h -2.413291 v 1.361676 h 2.780191 v 0.747757 h -3.612697 v -2.473235 z"
         id="path6269"
         inkscape:connector-curvature="0" />
      <path
         style="opacity:1;fill:#892968;fill-opacity:1;fill-rule:nonzero;stroke:none;stroke-width:1.5;stroke-linecap:butt;stroke-linejoin:round;stroke-miterlimit:4;stroke-dasharray:none;stroke-dashoffset:0;stroke-opacity:0.95294118;paint-order:stroke markers fill"
         d="m 39.219313,11.781705 -3.578592,6.199103 0.896585,1.553395 h 0.875917 v -2.464967 h 3.527948 v 0.747758 h -2.695442 v 1.333254 h 2.413291 v 0.383955 h 3.036506 z"
         id="path6271"
         inkscape:connector-curvature="0" />
      <path
         id="path6273"
         d="m 35.64086,21.08915 -2.67942,4.64157 -1.79627,0.002 0.89762,1.55495 7.15667,-5.2e-4 z"
         style="opacity:1;fill:#d676b5;fill-opacity:1;fill-rule:nonzero;stroke:none;stroke-width:1.5;stroke-linecap:butt;stroke-linejoin:round;stroke-miterlimit:4;stroke-dasharray:none;stroke-dashoffset:0;stroke-opacity:0.95294118;paint-order:stroke markers fill"
         inkscape:connector-curvature="0" />
      <path
         id="path6275"
         d="m 23.10933,11.78274 3.57859,6.19807 2.68097,-4.64313 h 1.79524 l -0.89762,-1.55494 z"
         style="opacity:1;fill:#d676b5;fill-opacity:1;fill-rule:nonzero;stroke:none;stroke-width:1.5;stroke-linecap:butt;stroke-linejoin:round;stroke-miterlimit:4;stroke-dasharray:none;stroke-dashoffset:0;stroke-opacity:0.95294118;paint-order:stroke markers fill"
         inkscape:connector-curvature="0" />
      <path
         style="opacity:1;fill:#892968;fill-opacity:1;fill-rule:nonzero;stroke:none;stroke-width:1.5;stroke-linecap:butt;stroke-linejoin:round;stroke-miterlimit:4;stroke-dasharray:none;stroke-dashoffset:0;stroke-opacity:0.95294118;paint-order:stroke markers fill"
         d="m 18.632973,19.535754 4.476213,7.752497 3.579109,-6.198589 -0.897102,-1.553908 h -0.875916 c -0.164603,0.381777 -0.461986,0.661505 -0.874366,0.821137 l 1.107427,1.651063 h -0.945163 l -0.903304,-1.496033 c -0.07056,0.0071 -0.148214,0.0072 -0.225827,0.0072 h -1.170987 v 1.488799 h -0.833022 v -2.4722 z m 3.270084,0 v 0.235643 h 1.170987 c 0.37184,0 0.665046,-0.07862 0.869199,-0.235643 z"
         id="path6277"
         inkscape:connector-curvature="0" />
      <path
         style="opacity:1;fill:#b03586;fill-opacity:1;fill-rule:nonzero;stroke:none;stroke-width:1.5;stroke-linecap:butt;stroke-linejoin:round;stroke-miterlimit:4;stroke-dasharray:none;stroke-dashoffset:0;stroke-opacity:0.95294118;paint-order:stroke markers fill"
         d="m 23.109186,11.782737 -4.476213,7.753017 h 2.437062 v -2.466518 h 2.004009 c 1.262946,0 1.989545,0.61376 1.989545,1.686203 0,0.293592 -0.05101,0.55462 -0.148312,0.780315 h 0.875916 l -5.29e-4,-0.0011 0.897104,-1.553911 z m -1.206129,6.034257 v 1.71876 h 2.040186 c 0.214214,-0.164767 0.330213,-0.415931 0.330213,-0.759127 0,-0.649113 -0.437412,-0.959633 -1.199412,-0.959633 z"
         id="path6279"
         inkscape:connector-curvature="0" />
      <path
         id="path6281"
         d="m 26.68844,21.08966 -3.57911,6.19859 h 8.95243 l -5.3e-4,-5.3e-4 h -1.79421 z"
         style="opacity:1;fill:#621e4b;fill-opacity:1;fill-rule:nonzero;stroke:none;stroke-width:1.5;stroke-linecap:butt;stroke-linejoin:round;stroke-miterlimit:4;stroke-dasharray:none;stroke-dashoffset:0;stroke-opacity:0.95294118;paint-order:stroke markers fill"
         inkscape:connector-curvature="0" />
      <text
         id="text6285"
         y="22.007957"
         x="29.040659"
         style="font-style:normal;font-variant:normal;font-weight:normal;font-stretch:normal;font-size:7.05555534px;line-height:125%;font-family:Montserrat;-inkscape-font-specification:Montserrat;text-align:start;letter-spacing:0px;word-spacing:0px;writing-mode:lr-tb;text-anchor:start;fill:#621e4b;fill-opacity:1;stroke:none;stroke-width:0.26458332px;stroke-linecap:butt;stroke-linejoin:miter;stroke-opacity:1"
         xml:space="preserve"><tspan
           style="fill:#621e4b;fill-opacity:1;stroke-width:0.26458332px"
           y="22.007957"
           x="29.040659"
           id="tspan6283"
           sodipodi:role="line">S</tspan></text>
    </g>
    <g
       transform="translate(24.695704,50.495138)"
       id="g6311">
      <path
         id="path6289"
         d="m 32.5904,51.270775 3.57911,6.19858 3.57911,-6.19858 z"
         style="opacity:1;fill:#621e4b;fill-opacity:1;fill-rule:nonzero;stroke:none;stroke-width:1.5;stroke-linecap:butt;stroke-linejoin:round;stroke-miterlimit:4;stroke-dasharray:none;stroke-dashoffset:0;stroke-opacity:0.95294118;paint-order:stroke markers fill"
         inkscape:connector-curvature="0" />
      <path
         style="opacity:1;fill:#b03586;fill-opacity:1;fill-rule:nonzero;stroke:none;stroke-width:1.5;stroke-linecap:butt;stroke-linejoin:round;stroke-miterlimit:4;stroke-dasharray:none;stroke-dashoffset:0;stroke-opacity:0.95294118;paint-order:stroke markers fill"
         d="m 37.066982,59.023784 -0.897101,1.553911 3.579108,6.199106 4.475697,-7.753017 H 41.18818 v 0.363802 h -2.413291 v 1.361676 h 2.780191 v 0.747757 h -3.612697 v -2.473235 z"
         id="path6291"
         inkscape:connector-curvature="0" />
      <path
         style="opacity:1;fill:#892968;fill-opacity:1;fill-rule:nonzero;stroke:none;stroke-width:1.5;stroke-linecap:butt;stroke-linejoin:round;stroke-miterlimit:4;stroke-dasharray:none;stroke-dashoffset:0;stroke-opacity:0.95294118;paint-order:stroke markers fill"
         d="m 39.748473,51.27077 -3.578592,6.199103 0.896585,1.553395 h 0.875917 v -2.464967 h 3.527948 v 0.747758 h -2.695442 v 1.333254 h 2.413291 v 0.383955 h 3.036506 z"
         id="path6293"
         inkscape:connector-curvature="0" />
      <path
         id="path6295"
         d="m 36.17002,60.578215 -2.67942,4.64157 -1.79627,0.002 0.89762,1.55495 7.15667,-5.2e-4 z"
         style="opacity:1;fill:#d676b5;fill-opacity:1;fill-rule:nonzero;stroke:none;stroke-width:1.5;stroke-linecap:butt;stroke-linejoin:round;stroke-miterlimit:4;stroke-dasharray:none;stroke-dashoffset:0;stroke-opacity:0.95294118;paint-order:stroke markers fill"
         inkscape:connector-curvature="0" />
      <path
         id="path6297"
         d="m 23.63849,51.271805 3.57859,6.19807 2.68097,-4.64313 h 1.79524 l -0.89762,-1.55494 z"
         style="opacity:1;fill:#d676b5;fill-opacity:1;fill-rule:nonzero;stroke:none;stroke-width:1.5;stroke-linecap:butt;stroke-linejoin:round;stroke-miterlimit:4;stroke-dasharray:none;stroke-dashoffset:0;stroke-opacity:0.95294118;paint-order:stroke markers fill"
         inkscape:connector-curvature="0" />
      <path
         style="opacity:1;fill:#892968;fill-opacity:1;fill-rule:nonzero;stroke:none;stroke-width:1.5;stroke-linecap:butt;stroke-linejoin:round;stroke-miterlimit:4;stroke-dasharray:none;stroke-dashoffset:0;stroke-opacity:0.95294118;paint-order:stroke markers fill"
         d="m 19.162133,59.024819 4.476213,7.752497 3.579109,-6.198589 -0.897102,-1.553908 h -0.875916 c -0.164603,0.381777 -0.461986,0.661505 -0.874366,0.821137 l 1.107427,1.651063 h -0.945163 l -0.903304,-1.496033 c -0.07056,0.0071 -0.148214,0.0072 -0.225827,0.0072 h -1.170987 v 1.488799 h -0.833022 v -2.4722 z m 3.270084,0 v 0.235643 h 1.170987 c 0.37184,0 0.665046,-0.07862 0.869199,-0.235643 z"
         id="path6299"
         inkscape:connector-curvature="0" />
      <path
         style="opacity:1;fill:#b03586;fill-opacity:1;fill-rule:nonzero;stroke:none;stroke-width:1.5;stroke-linecap:butt;stroke-linejoin:round;stroke-miterlimit:4;stroke-dasharray:none;stroke-dashoffset:0;stroke-opacity:0.95294118;paint-order:stroke markers fill"
         d="m 23.638346,51.271802 -4.476213,7.753017 h 2.437062 v -2.466518 h 2.004009 c 1.262946,0 1.989545,0.61376 1.989545,1.686203 0,0.293592 -0.05101,0.55462 -0.148312,0.780315 h 0.875916 l -5.29e-4,-0.0011 0.897104,-1.553911 z m -1.206129,6.034257 v 1.71876 h 2.040186 c 0.214214,-0.164767 0.330213,-0.415931 0.330213,-0.759127 0,-0.649113 -0.437412,-0.959633 -1.199412,-0.959633 z"
         id="path6301"
         inkscape:connector-curvature="0" />
      <path
         id="path6303"
         d="m 27.2176,60.578725 -3.57911,6.19859 h 8.95243 l -5.3e-4,-5.3e-4 h -1.79421 z"
         style="opacity:1;fill:#621e4b;fill-opacity:1;fill-rule:nonzero;stroke:none;stroke-width:1.5;stroke-linecap:butt;stroke-linejoin:round;stroke-miterlimit:4;stroke-dasharray:none;stroke-dashoffset:0;stroke-opacity:0.95294118;paint-order:stroke markers fill"
         inkscape:connector-curvature="0" />
      <text
         id="text6307"
         y="61.497025"
         x="29.56982"
         style="font-style:normal;font-variant:normal;font-weight:normal;font-stretch:normal;font-size:7.05555534px;line-height:125%;font-family:Montserrat;-inkscape-font-specification:Montserrat;text-align:start;letter-spacing:0px;word-spacing:0px;writing-mode:lr-tb;text-anchor:start;fill:#621e4b;fill-opacity:1;stroke:none;stroke-width:0.26458332px;stroke-linecap:butt;stroke-linejoin:miter;stroke-opacity:1"
         xml:space="preserve"><tspan
           style="fill:#621e4b;fill-opacity:1;stroke-width:0.26458332px"
           y="61.497025"
           x="29.56982"
           id="tspan6305"
           sodipodi:role="line">S</tspan></text>
      <path
         style="opacity:1;fill:#892968;fill-opacity:1;fill-rule:nonzero;stroke:none;stroke-width:0.2;stroke-linecap:butt;stroke-linejoin:round;stroke-miterlimit:4;stroke-dasharray:none;stroke-dashoffset:0;stroke-opacity:0.95294118;paint-order:stroke markers fill"
         d="m 16.195645,59.761728 a 3.5079125,3.5079125 0 0 0 -3.5078,3.5078 3.5079125,3.5079125 0 0 0 3.5078,3.50779 3.5079125,3.5079125 0 0 0 3.50779,-3.50779 3.5079125,3.5079125 0 0 0 -3.50779,-3.5078 z m -0.78342,1.15704 h 0.56793 v 3.66437 h -0.56793 v -0.44907 c -0.18767,0.30621 -0.50365,0.47388 -0.92346,0.47388 -0.75565,0 -1.25935,-0.54814 -1.25935,-1.34824 0,-0.79022 0.5087,-1.3286 1.24954,-1.3286 0.42474,0 0.74066,0.17283 0.93327,0.47904 z m 2.512,1.0175 c 0.92357,0 1.29904,0.60255 1.22989,1.55081 h -1.9854 c 0.0889,0.40499 0.40007,0.65681 0.81493,0.65681 0.28646,0 0.54791,-0.10888 0.74053,-0.30644 l 0.30127,0.32091 c -0.25682,0.28152 -0.63186,0.44493 -1.08624,0.44493 -0.80998,0 -1.34359,-0.53837 -1.34359,-1.3286 10e-6,-0.79516 0.54826,-1.33348 1.32861,-1.33842 z m 0.005,0.45424 c -0.41486,0 -0.70629,0.26181 -0.77049,0.68161 h 1.5012 c -0.0198,-0.42474 -0.30102,-0.68161 -0.73071,-0.68161 z m -3.32228,0.0248 c -0.47413,0 -0.80483,0.36027 -0.80977,0.86404 0.005,0.49882 0.3307,0.85472 0.80977,0.85472 0.47414,0 0.80512,-0.3559 0.80512,-0.85472 0,-0.50871 -0.33098,-0.86404 -0.80512,-0.86404 z"
         id="path6309"
         inkscape:connector-curvature="0" />
    </g>
  </g>
  <g
     inkscape:groupmode="layer"
     id="layer1"
     inkscape:label="Numbers"
     style="display:inline"
     sodipodi:insensitive="true">
    <text
       xml:space="preserve"
       style="font-style:normal;font-variant:normal;font-weight:normal;font-stretch:normal;font-size:7.05555534px;line-height:125%;font-family:Montserrat;-inkscape-font-specification:Montserrat;text-align:start;letter-spacing:0px;word-spacing:0px;writing-mode:lr-tb;text-anchor:start;fill:#000000;fill-opacity:1;stroke:none;stroke-width:0.26458332px;stroke-linecap:butt;stroke-linejoin:miter;stroke-opacity:1"
       x="9.5622253"
       y="25.143764"
       id="text11799"><tspan
         sodipodi:role="line"
         id="tspan11797"
         x="9.5622253"
         y="25.143764"
         style="stroke-width:0.26458332px">1</tspan></text>
    <text
       id="text11803"
       y="68.583839"
       x="8.5215311"
       style="font-style:normal;font-variant:normal;font-weight:normal;font-stretch:normal;font-size:7.05555534px;line-height:125%;font-family:Montserrat;-inkscape-font-specification:Montserrat;text-align:start;letter-spacing:0px;word-spacing:0px;writing-mode:lr-tb;text-anchor:start;fill:#000000;fill-opacity:1;stroke:none;stroke-width:0.26458332px;stroke-linecap:butt;stroke-linejoin:miter;stroke-opacity:1"
       xml:space="preserve"><tspan
         style="stroke-width:0.26458332px"
         y="68.583839"
         x="8.5215311"
         id="tspan11801"
         sodipodi:role="line">2</tspan></text>
    <text
       xml:space="preserve"
       style="font-style:normal;font-variant:normal;font-weight:normal;font-stretch:normal;font-size:7.05555534px;line-height:125%;font-family:Montserrat;-inkscape-font-specification:Montserrat;text-align:start;letter-spacing:0px;word-spacing:0px;writing-mode:lr-tb;text-anchor:start;fill:#000000;fill-opacity:1;stroke:none;stroke-width:0.26458332px;stroke-linecap:butt;stroke-linejoin:miter;stroke-opacity:1"
       x="8.79317"
       y="111.96746"
       id="text11807"><tspan
         sodipodi:role="line"
         id="tspan11805"
         x="8.79317"
         y="111.96746"
         style="stroke-width:0.26458332px">3</tspan></text>
  </g>
</svg>
